<svg width="1363" height="122" viewBox="0 0 1363 122" fill="none" xmlns="http://www.w3.org/2000/svg">
<rect width="1134" height="122" fill="#F0F0F0"/>
<path d="M75.125 43.875V78H66.8984V43.875H75.125ZM85.3906 43.875V50.2266H56.8672V43.875H85.3906ZM98.6797 78.4688C96.6172 78.4688 94.7734 78.1484 93.1484 77.5078C91.5234 76.8516 90.1484 75.9531 89.0234 74.8125C87.9141 73.6719 87.0625 72.3594 86.4688 70.875C85.8906 69.3906 85.6016 67.8203 85.6016 66.1641V65.2734C85.6016 63.4141 85.8594 61.6953 86.375 60.1172C86.8906 58.5234 87.6562 57.1328 88.6719 55.9453C89.6875 54.7578 90.9609 53.8359 92.4922 53.1797C94.0234 52.5078 95.8047 52.1719 97.8359 52.1719C99.6328 52.1719 101.242 52.4609 102.664 53.0391C104.086 53.6172 105.289 54.4453 106.273 55.5234C107.273 56.6016 108.031 57.9062 108.547 59.4375C109.078 60.9688 109.344 62.6875 109.344 64.5938V67.8047H88.625V62.8594H101.633V62.25C101.648 61.4062 101.5 60.6875 101.188 60.0938C100.891 59.5 100.453 59.0469 99.875 58.7344C99.2969 58.4219 98.5938 58.2656 97.7656 58.2656C96.9062 58.2656 96.1953 58.4531 95.6328 58.8281C95.0859 59.2031 94.6562 59.7188 94.3438 60.375C94.0469 61.0156 93.8359 61.7578 93.7109 62.6016C93.5859 63.4453 93.5234 64.3359 93.5234 65.2734V66.1641C93.5234 67.1016 93.6484 67.9531 93.8984 68.7188C94.1641 69.4844 94.5391 70.1406 95.0234 70.6875C95.5234 71.2188 96.1172 71.6328 96.8047 71.9297C97.5078 72.2266 98.3047 72.375 99.1953 72.375C100.273 72.375 101.336 72.1719 102.383 71.7656C103.43 71.3594 104.328 70.6875 105.078 69.75L108.664 74.0156C108.148 74.75 107.414 75.4609 106.461 76.1484C105.523 76.8359 104.398 77.3984 103.086 77.8359C101.773 78.2578 100.305 78.4688 98.6797 78.4688ZM123.266 72.375C124 72.375 124.625 72.2422 125.141 71.9766C125.672 71.6953 126.07 71.3047 126.336 70.8047C126.617 70.2891 126.75 69.6719 126.734 68.9531H134.164C134.18 70.8594 133.711 72.5312 132.758 73.9688C131.82 75.3906 130.539 76.5 128.914 77.2969C127.305 78.0781 125.484 78.4688 123.453 78.4688C121.469 78.4688 119.734 78.1484 118.25 77.5078C116.766 76.8516 115.523 75.9453 114.523 74.7891C113.539 73.6172 112.797 72.25 112.297 70.6875C111.812 69.125 111.57 67.4297 111.57 65.6016V65.0625C111.57 63.2344 111.812 61.5391 112.297 59.9766C112.797 58.3984 113.539 57.0312 114.523 55.875C115.523 54.7031 116.758 53.7969 118.227 53.1562C119.711 52.5 121.438 52.1719 123.406 52.1719C125.516 52.1719 127.375 52.5703 128.984 53.3672C130.609 54.1641 131.883 55.3203 132.805 56.8359C133.727 58.3516 134.18 60.1875 134.164 62.3438H126.734C126.75 61.5781 126.633 60.8906 126.383 60.2812C126.133 59.6719 125.742 59.1875 125.211 58.8281C124.695 58.4531 124.031 58.2656 123.219 58.2656C122.406 58.2656 121.75 58.4453 121.25 58.8047C120.75 59.1641 120.367 59.6641 120.102 60.3047C119.852 60.9297 119.68 61.6484 119.586 62.4609C119.508 63.2734 119.469 64.1406 119.469 65.0625V65.6016C119.469 66.5391 119.508 67.4219 119.586 68.25C119.68 69.0625 119.859 69.7812 120.125 70.4062C120.391 71.0156 120.773 71.5 121.273 71.8594C121.773 72.2031 122.438 72.375 123.266 72.375ZM145.273 42V78H137.375V42H145.273ZM144.336 64.4531L142.484 64.5C142.484 62.7188 142.703 61.0781 143.141 59.5781C143.578 58.0781 144.203 56.7734 145.016 55.6641C145.828 54.5547 146.805 53.6953 147.945 53.0859C149.086 52.4766 150.352 52.1719 151.742 52.1719C152.992 52.1719 154.133 52.3516 155.164 52.7109C156.211 53.0703 157.109 53.6484 157.859 54.4453C158.625 55.2422 159.211 56.2812 159.617 57.5625C160.039 58.8438 160.25 60.4062 160.25 62.25V78H152.305V62.2031C152.305 61.1719 152.156 60.375 151.859 59.8125C151.578 59.2344 151.172 58.8359 150.641 58.6172C150.109 58.3828 149.461 58.2656 148.695 58.2656C147.773 58.2656 147.023 58.4219 146.445 58.7344C145.867 59.0469 145.422 59.4844 145.109 60.0469C144.812 60.5938 144.609 61.2422 144.5 61.9922C144.391 62.7422 144.336 63.5625 144.336 64.4531ZM194.539 68.9297C194.539 68.3984 194.461 67.9219 194.305 67.5C194.148 67.0625 193.859 66.6562 193.438 66.2812C193.016 65.9062 192.406 65.5312 191.609 65.1562C190.828 64.7656 189.797 64.3594 188.516 63.9375C187.016 63.4375 185.57 62.875 184.18 62.25C182.789 61.6094 181.547 60.8672 180.453 60.0234C179.359 59.1641 178.492 58.1641 177.852 57.0234C177.211 55.8672 176.891 54.5234 176.891 52.9922C176.891 51.5234 177.219 50.2031 177.875 49.0312C178.531 47.8438 179.445 46.8359 180.617 46.0078C181.805 45.1641 183.195 44.5234 184.789 44.0859C186.383 43.6328 188.125 43.4062 190.016 43.4062C192.516 43.4062 194.719 43.8438 196.625 44.7188C198.547 45.5781 200.047 46.8047 201.125 48.3984C202.219 49.9766 202.766 51.8438 202.766 54H194.586C194.586 53.1406 194.406 52.3828 194.047 51.7266C193.703 51.0703 193.18 50.5547 192.477 50.1797C191.773 49.8047 190.891 49.6172 189.828 49.6172C188.797 49.6172 187.93 49.7734 187.227 50.0859C186.523 50.3984 185.992 50.8203 185.633 51.3516C185.273 51.8672 185.094 52.4375 185.094 53.0625C185.094 53.5781 185.234 54.0469 185.516 54.4688C185.812 54.875 186.227 55.2578 186.758 55.6172C187.305 55.9766 187.961 56.3203 188.727 56.6484C189.508 56.9766 190.383 57.2969 191.352 57.6094C193.164 58.1875 194.773 58.8359 196.18 59.5547C197.602 60.2578 198.797 61.0625 199.766 61.9688C200.75 62.8594 201.492 63.875 201.992 65.0156C202.508 66.1562 202.766 67.4453 202.766 68.8828C202.766 70.4141 202.469 71.7734 201.875 72.9609C201.281 74.1484 200.43 75.1562 199.32 75.9844C198.211 76.7969 196.883 77.4141 195.336 77.8359C193.789 78.2578 192.062 78.4688 190.156 78.4688C188.406 78.4688 186.68 78.25 184.977 77.8125C183.289 77.3594 181.758 76.6719 180.383 75.75C179.008 74.8125 177.906 73.6172 177.078 72.1641C176.266 70.6953 175.859 68.9531 175.859 66.9375H184.109C184.109 67.9375 184.242 68.7812 184.508 69.4688C184.773 70.1562 185.164 70.7109 185.68 71.1328C186.195 71.5391 186.828 71.8359 187.578 72.0234C188.328 72.1953 189.188 72.2812 190.156 72.2812C191.203 72.2812 192.047 72.1328 192.688 71.8359C193.328 71.5234 193.797 71.1172 194.094 70.6172C194.391 70.1016 194.539 69.5391 194.539 68.9297ZM219.992 52.6406V58.125H204.711V52.6406H219.992ZM207.922 46.3359H215.82V69.7266C215.82 70.3984 215.898 70.9219 216.055 71.2969C216.211 71.6562 216.477 71.9141 216.852 72.0703C217.242 72.2109 217.758 72.2812 218.398 72.2812C218.852 72.2812 219.227 72.2734 219.523 72.2578C219.82 72.2266 220.102 72.1875 220.367 72.1406V77.7891C219.695 78.0078 218.992 78.1719 218.258 78.2812C217.523 78.4062 216.742 78.4688 215.914 78.4688C214.227 78.4688 212.781 78.2031 211.578 77.6719C210.391 77.1406 209.484 76.3047 208.859 75.1641C208.234 74.0234 207.922 72.5391 207.922 70.7109V46.3359ZM236.305 71.625V61.1719C236.305 60.4531 236.203 59.8359 236 59.3203C235.797 58.8047 235.477 58.4062 235.039 58.125C234.602 57.8281 234.016 57.6797 233.281 57.6797C232.688 57.6797 232.18 57.7812 231.758 57.9844C231.336 58.1875 231.016 58.4922 230.797 58.8984C230.578 59.3047 230.469 59.8203 230.469 60.4453H222.57C222.57 59.2734 222.828 58.1875 223.344 57.1875C223.875 56.1719 224.625 55.2891 225.594 54.5391C226.578 53.7891 227.75 53.2109 229.109 52.8047C230.484 52.3828 232.016 52.1719 233.703 52.1719C235.719 52.1719 237.516 52.5078 239.094 53.1797C240.688 53.8516 241.945 54.8594 242.867 56.2031C243.789 57.5312 244.25 59.2031 244.25 61.2188V71.6016C244.25 73.2578 244.344 74.5156 244.531 75.375C244.719 76.2188 244.984 76.9609 245.328 77.6016V78H237.406C237.031 77.2188 236.75 76.2656 236.562 75.1406C236.391 74 236.305 72.8281 236.305 71.625ZM237.266 62.5078L237.312 66.7266H233.82C233.086 66.7266 232.461 66.8281 231.945 67.0312C231.445 67.2344 231.039 67.5156 230.727 67.875C230.43 68.2188 230.211 68.6094 230.07 69.0469C229.945 69.4844 229.883 69.9453 229.883 70.4297C229.883 70.8984 229.992 71.3203 230.211 71.6953C230.445 72.0547 230.758 72.3359 231.148 72.5391C231.539 72.7422 231.977 72.8438 232.461 72.8438C233.336 72.8438 234.078 72.6797 234.688 72.3516C235.312 72.0078 235.789 71.5938 236.117 71.1094C236.445 70.625 236.609 70.1719 236.609 69.75L238.344 72.9844C238.031 73.6094 237.672 74.2422 237.266 74.8828C236.875 75.5234 236.383 76.1172 235.789 76.6641C235.211 77.1953 234.5 77.6328 233.656 77.9766C232.812 78.3047 231.789 78.4688 230.586 78.4688C229.023 78.4688 227.586 78.1484 226.273 77.5078C224.977 76.8672 223.938 75.9766 223.156 74.8359C222.375 73.6797 221.984 72.3516 221.984 70.8516C221.984 69.5391 222.219 68.3672 222.688 67.3359C223.172 66.3047 223.898 65.4297 224.867 64.7109C225.836 63.9922 227.07 63.4453 228.57 63.0703C230.07 62.6953 231.836 62.5078 233.867 62.5078H237.266ZM259.344 72.375C260.078 72.375 260.703 72.2422 261.219 71.9766C261.75 71.6953 262.148 71.3047 262.414 70.8047C262.695 70.2891 262.828 69.6719 262.812 68.9531H270.242C270.258 70.8594 269.789 72.5312 268.836 73.9688C267.898 75.3906 266.617 76.5 264.992 77.2969C263.383 78.0781 261.562 78.4688 259.531 78.4688C257.547 78.4688 255.812 78.1484 254.328 77.5078C252.844 76.8516 251.602 75.9453 250.602 74.7891C249.617 73.6172 248.875 72.25 248.375 70.6875C247.891 69.125 247.648 67.4297 247.648 65.6016V65.0625C247.648 63.2344 247.891 61.5391 248.375 59.9766C248.875 58.3984 249.617 57.0312 250.602 55.875C251.602 54.7031 252.836 53.7969 254.305 53.1562C255.789 52.5 257.516 52.1719 259.484 52.1719C261.594 52.1719 263.453 52.5703 265.062 53.3672C266.688 54.1641 267.961 55.3203 268.883 56.8359C269.805 58.3516 270.258 60.1875 270.242 62.3438H262.812C262.828 61.5781 262.711 60.8906 262.461 60.2812C262.211 59.6719 261.82 59.1875 261.289 58.8281C260.773 58.4531 260.109 58.2656 259.297 58.2656C258.484 58.2656 257.828 58.4453 257.328 58.8047C256.828 59.1641 256.445 59.6641 256.18 60.3047C255.93 60.9297 255.758 61.6484 255.664 62.4609C255.586 63.2734 255.547 64.1406 255.547 65.0625V65.6016C255.547 66.5391 255.586 67.4219 255.664 68.25C255.758 69.0625 255.938 69.7812 256.203 70.4062C256.469 71.0156 256.852 71.5 257.352 71.8594C257.852 72.2031 258.516 72.375 259.344 72.375ZM281.586 41.9766V78H273.688V41.9766H281.586ZM297.805 52.6406L286.789 65.5547L281.023 71.3203L277.578 66.3047L282.383 60.0469L288.336 52.6406H297.805ZM289.344 78L282.57 66.4453L288.406 62.2969L298.391 78H289.344Z" fill="black"/>
<path d="M1134 0H1348C1356.28 0 1363 6.71573 1363 15V107C1363 115.284 1356.28 122 1348 122H1134V0Z" fill="#006624"/>
<path fill-rule="evenodd" clip-rule="evenodd" d="M1218.75 32.5C1218.62 32.5 1218.49 32.5527 1218.4 32.6464C1218.3 32.7402 1218.25 32.8674 1218.25 33V89C1218.25 89.1326 1218.3 89.2598 1218.4 89.3536C1218.49 89.4473 1218.62 89.5 1218.75 89.5H1278.25C1278.38 89.5 1278.51 89.4473 1278.6 89.3536C1278.7 89.2598 1278.75 89.1326 1278.75 89V43.5C1278.75 43.3674 1278.7 43.2402 1278.6 43.1464C1278.51 43.0527 1278.38 43 1278.25 43H1248.5C1247.61 43 1246.77 42.6045 1246.2 41.9206L1238.34 32.5H1218.75ZM1214.15 28.4038C1215.37 27.1848 1217.03 26.5 1218.75 26.5H1239.75C1240.64 26.5 1241.48 26.8955 1242.05 27.5794L1249.91 37H1278.25C1279.97 37 1281.63 37.6848 1282.85 38.9038C1284.07 40.1228 1284.75 41.7761 1284.75 43.5V89C1284.75 90.7239 1284.07 92.3772 1282.85 93.5962C1281.63 94.8152 1279.97 95.5 1278.25 95.5H1218.75C1217.03 95.5 1215.37 94.8152 1214.15 93.5962C1212.93 92.3772 1212.25 90.7239 1212.25 89V33C1212.25 31.2761 1212.93 29.6228 1214.15 28.4038Z" fill="white"/>
<path fill-rule="evenodd" clip-rule="evenodd" d="M1243.97 55.0251C1245.34 56.392 1245.34 58.608 1243.97 59.9749L1237.7 66.25L1243.97 72.5251C1245.34 73.892 1245.34 76.108 1243.97 77.4749C1242.61 78.8417 1240.39 78.8417 1239.03 77.4749L1230.28 68.7249C1228.91 67.358 1228.91 65.142 1230.28 63.7751L1239.03 55.0251C1240.39 53.6583 1242.61 53.6583 1243.97 55.0251Z" fill="white"/>
<path fill-rule="evenodd" clip-rule="evenodd" d="M1252.28 77.4749C1250.91 76.108 1250.91 73.892 1252.28 72.5251L1258.55 66.25L1252.28 59.9749C1250.91 58.608 1250.91 56.392 1252.28 55.0251C1253.64 53.6583 1255.86 53.6583 1257.22 55.0251L1265.97 63.7751C1267.34 65.142 1267.34 67.358 1265.97 68.7249L1257.22 77.4749C1255.86 78.8417 1253.64 78.8417 1252.28 77.4749Z" fill="white"/>
</svg>
