<svg width="1363" height="163" viewBox="0 0 1363 163" fill="none" xmlns="http://www.w3.org/2000/svg">
<path d="M0 15C0 6.71573 6.71573 0 15 0H37V163H15C6.71573 163 0 156.284 0 148V15Z" fill="#424242"/>
<rect width="1097" height="163" transform="translate(37)" fill="#F0F0F0"/>
<path d="M101.906 53.9219L94.3945 51.2383V48.0859L104.602 52.375V54.6367L101.906 53.9219ZM94.3945 56.1719L101.918 53.4297L104.602 52.7852V55.0352L94.3945 59.3242V56.1719ZM126.422 52.082V58.8438C126.156 59.1641 125.746 59.5117 125.191 59.8867C124.637 60.2539 123.922 60.5703 123.047 60.8359C122.172 61.1016 121.113 61.2344 119.871 61.2344C118.77 61.2344 117.766 61.0547 116.859 60.6953C115.953 60.3281 115.172 59.793 114.516 59.0898C113.867 58.3867 113.367 57.5273 113.016 56.5117C112.664 55.4883 112.488 54.3203 112.488 53.0078V51.9414C112.488 50.6289 112.656 49.4609 112.992 48.4375C113.336 47.4141 113.824 46.5508 114.457 45.8477C115.09 45.1445 115.844 44.6094 116.719 44.2422C117.594 43.875 118.566 43.6914 119.637 43.6914C121.121 43.6914 122.34 43.9336 123.293 44.418C124.246 44.8945 124.973 45.5586 125.473 46.4102C125.98 47.2539 126.293 48.2227 126.41 49.3164H123C122.914 48.7383 122.75 48.2344 122.508 47.8047C122.266 47.375 121.918 47.0391 121.465 46.7969C121.02 46.5547 120.441 46.4336 119.73 46.4336C119.145 46.4336 118.621 46.5547 118.16 46.7969C117.707 47.0312 117.324 47.3789 117.012 47.8398C116.699 48.3008 116.461 48.8711 116.297 49.5508C116.133 50.2305 116.051 51.0195 116.051 51.918V53.0078C116.051 53.8984 116.137 54.6875 116.309 55.375C116.48 56.0547 116.734 56.6289 117.07 57.0977C117.414 57.5586 117.836 57.9062 118.336 58.1406C118.836 58.375 119.418 58.4922 120.082 58.4922C120.637 58.4922 121.098 58.4453 121.465 58.3516C121.84 58.2578 122.141 58.1445 122.367 58.0117C122.602 57.8711 122.781 57.7383 122.906 57.6133V54.5898H119.695V52.082H126.422ZM132.422 51.0859V61H129.047V48.3203H132.223L132.422 51.0859ZM136.242 48.2383L136.184 51.3672C136.02 51.3438 135.82 51.3242 135.586 51.3086C135.359 51.2852 135.152 51.2734 134.965 51.2734C134.488 51.2734 134.074 51.3359 133.723 51.4609C133.379 51.5781 133.09 51.7539 132.855 51.9883C132.629 52.2227 132.457 52.5078 132.34 52.8438C132.23 53.1797 132.168 53.5625 132.152 53.9922L131.473 53.7812C131.473 52.9609 131.555 52.207 131.719 51.5195C131.883 50.8242 132.121 50.2188 132.434 49.7031C132.754 49.1875 133.145 48.7891 133.605 48.5078C134.066 48.2266 134.594 48.0859 135.188 48.0859C135.375 48.0859 135.566 48.1016 135.762 48.1328C135.957 48.1562 136.117 48.1914 136.242 48.2383ZM143.438 61.2344C142.453 61.2344 141.57 61.0781 140.789 60.7656C140.008 60.4453 139.344 60.0039 138.797 59.4414C138.258 58.8789 137.844 58.2266 137.555 57.4844C137.266 56.7344 137.121 55.9375 137.121 55.0938V54.625C137.121 53.6641 137.258 52.7852 137.531 51.9883C137.805 51.1914 138.195 50.5 138.703 49.9141C139.219 49.3281 139.844 48.8789 140.578 48.5664C141.312 48.2461 142.141 48.0859 143.062 48.0859C143.961 48.0859 144.758 48.2344 145.453 48.5312C146.148 48.8281 146.73 49.25 147.199 49.7969C147.676 50.3438 148.035 51 148.277 51.7656C148.52 52.5234 148.641 53.3672 148.641 54.2969V55.7031H138.562V53.4531H145.324V53.1953C145.324 52.7266 145.238 52.3086 145.066 51.9414C144.902 51.5664 144.652 51.2695 144.316 51.0508C143.98 50.832 143.551 50.7227 143.027 50.7227C142.582 50.7227 142.199 50.8203 141.879 51.0156C141.559 51.2109 141.297 51.4844 141.094 51.8359C140.898 52.1875 140.75 52.6016 140.648 53.0781C140.555 53.5469 140.508 54.0625 140.508 54.625V55.0938C140.508 55.6016 140.578 56.0703 140.719 56.5C140.867 56.9297 141.074 57.3008 141.34 57.6133C141.613 57.9258 141.941 58.168 142.324 58.3398C142.715 58.5117 143.156 58.5977 143.648 58.5977C144.258 58.5977 144.824 58.4805 145.348 58.2461C145.879 58.0039 146.336 57.6406 146.719 57.1562L148.359 58.9375C148.094 59.3203 147.73 59.6875 147.27 60.0391C146.816 60.3906 146.27 60.6797 145.629 60.9062C144.988 61.125 144.258 61.2344 143.438 61.2344ZM156.398 61.2344C155.414 61.2344 154.531 61.0781 153.75 60.7656C152.969 60.4453 152.305 60.0039 151.758 59.4414C151.219 58.8789 150.805 58.2266 150.516 57.4844C150.227 56.7344 150.082 55.9375 150.082 55.0938V54.625C150.082 53.6641 150.219 52.7852 150.492 51.9883C150.766 51.1914 151.156 50.5 151.664 49.9141C152.18 49.3281 152.805 48.8789 153.539 48.5664C154.273 48.2461 155.102 48.0859 156.023 48.0859C156.922 48.0859 157.719 48.2344 158.414 48.5312C159.109 48.8281 159.691 49.25 160.16 49.7969C160.637 50.3438 160.996 51 161.238 51.7656C161.48 52.5234 161.602 53.3672 161.602 54.2969V55.7031H151.523V53.4531H158.285V53.1953C158.285 52.7266 158.199 52.3086 158.027 51.9414C157.863 51.5664 157.613 51.2695 157.277 51.0508C156.941 50.832 156.512 50.7227 155.988 50.7227C155.543 50.7227 155.16 50.8203 154.84 51.0156C154.52 51.2109 154.258 51.4844 154.055 51.8359C153.859 52.1875 153.711 52.6016 153.609 53.0781C153.516 53.5469 153.469 54.0625 153.469 54.625V55.0938C153.469 55.6016 153.539 56.0703 153.68 56.5C153.828 56.9297 154.035 57.3008 154.301 57.6133C154.574 57.9258 154.902 58.168 155.285 58.3398C155.676 58.5117 156.117 58.5977 156.609 58.5977C157.219 58.5977 157.785 58.4805 158.309 58.2461C158.84 58.0039 159.297 57.6406 159.68 57.1562L161.32 58.9375C161.055 59.3203 160.691 59.6875 160.23 60.0391C159.777 60.3906 159.23 60.6797 158.59 60.9062C157.949 61.125 157.219 61.2344 156.398 61.2344ZM166.828 51.0273V61H163.453V48.3203H166.617L166.828 51.0273ZM166.336 54.2148H165.422C165.422 53.2773 165.543 52.4336 165.785 51.6836C166.027 50.9258 166.367 50.2812 166.805 49.75C167.242 49.2109 167.762 48.8008 168.363 48.5195C168.973 48.2305 169.652 48.0859 170.402 48.0859C170.996 48.0859 171.539 48.1719 172.031 48.3438C172.523 48.5156 172.945 48.7891 173.297 49.1641C173.656 49.5391 173.93 50.0352 174.117 50.6523C174.312 51.2695 174.41 52.0234 174.41 52.9141V61H171.012V52.9023C171.012 52.3398 170.934 51.9023 170.777 51.5898C170.621 51.2773 170.391 51.0586 170.086 50.9336C169.789 50.8008 169.422 50.7344 168.984 50.7344C168.531 50.7344 168.137 50.8242 167.801 51.0039C167.473 51.1836 167.199 51.4336 166.98 51.7539C166.77 52.0664 166.609 52.4336 166.5 52.8555C166.391 53.2773 166.336 53.7305 166.336 54.2148ZM194.543 50.8867V53.6289H185.637V50.8867H194.543ZM186.68 43.9375V61H183.164V43.9375H186.68ZM197.051 43.9375V61H193.547V43.9375H197.051ZM206.742 58.1406V52.4922C206.742 52.0859 206.676 51.7383 206.543 51.4492C206.41 51.1523 206.203 50.9219 205.922 50.7578C205.648 50.5938 205.293 50.5117 204.855 50.5117C204.48 50.5117 204.156 50.5781 203.883 50.7109C203.609 50.8359 203.398 51.0195 203.25 51.2617C203.102 51.4961 203.027 51.7734 203.027 52.0938H199.652C199.652 51.5547 199.777 51.043 200.027 50.5586C200.277 50.0742 200.641 49.6484 201.117 49.2812C201.594 48.9062 202.16 48.6133 202.816 48.4023C203.48 48.1914 204.223 48.0859 205.043 48.0859C206.027 48.0859 206.902 48.25 207.668 48.5781C208.434 48.9062 209.035 49.3984 209.473 50.0547C209.918 50.7109 210.141 51.5312 210.141 52.5156V57.9414C210.141 58.6367 210.184 59.207 210.27 59.6523C210.355 60.0898 210.48 60.4727 210.645 60.8008V61H207.234C207.07 60.6562 206.945 60.2266 206.859 59.7109C206.781 59.1875 206.742 58.6641 206.742 58.1406ZM207.188 53.2773L207.211 55.1875H205.324C204.879 55.1875 204.492 55.2383 204.164 55.3398C203.836 55.4414 203.566 55.5859 203.355 55.7734C203.145 55.9531 202.988 56.1641 202.887 56.4062C202.793 56.6484 202.746 56.9141 202.746 57.2031C202.746 57.4922 202.812 57.7539 202.945 57.9883C203.078 58.2148 203.27 58.3945 203.52 58.5273C203.77 58.6523 204.062 58.7148 204.398 58.7148C204.906 58.7148 205.348 58.6133 205.723 58.4102C206.098 58.207 206.387 57.957 206.59 57.6602C206.801 57.3633 206.91 57.082 206.918 56.8164L207.809 58.2461C207.684 58.5664 207.512 58.8984 207.293 59.2422C207.082 59.5859 206.812 59.9102 206.484 60.2148C206.156 60.5117 205.762 60.7578 205.301 60.9531C204.84 61.1406 204.293 61.2344 203.66 61.2344C202.855 61.2344 202.125 61.0742 201.469 60.7539C200.82 60.4258 200.305 59.9766 199.922 59.4062C199.547 58.8281 199.359 58.1719 199.359 57.4375C199.359 56.7734 199.484 56.1836 199.734 55.668C199.984 55.1523 200.352 54.7188 200.836 54.3672C201.328 54.0078 201.941 53.7383 202.676 53.5586C203.41 53.3711 204.262 53.2773 205.23 53.2773H207.188ZM216.867 58.5391L219.68 48.3203H223.207L218.93 61H216.797L216.867 58.5391ZM214.934 48.3203L217.758 58.5508L217.816 61H215.672L211.395 48.3203H214.934ZM230.391 61.2344C229.406 61.2344 228.523 61.0781 227.742 60.7656C226.961 60.4453 226.297 60.0039 225.75 59.4414C225.211 58.8789 224.797 58.2266 224.508 57.4844C224.219 56.7344 224.074 55.9375 224.074 55.0938V54.625C224.074 53.6641 224.211 52.7852 224.484 51.9883C224.758 51.1914 225.148 50.5 225.656 49.9141C226.172 49.3281 226.797 48.8789 227.531 48.5664C228.266 48.2461 229.094 48.0859 230.016 48.0859C230.914 48.0859 231.711 48.2344 232.406 48.5312C233.102 48.8281 233.684 49.25 234.152 49.7969C234.629 50.3438 234.988 51 235.23 51.7656C235.473 52.5234 235.594 53.3672 235.594 54.2969V55.7031H225.516V53.4531H232.277V53.1953C232.277 52.7266 232.191 52.3086 232.02 51.9414C231.855 51.5664 231.605 51.2695 231.27 51.0508C230.934 50.832 230.504 50.7227 229.98 50.7227C229.535 50.7227 229.152 50.8203 228.832 51.0156C228.512 51.2109 228.25 51.4844 228.047 51.8359C227.852 52.1875 227.703 52.6016 227.602 53.0781C227.508 53.5469 227.461 54.0625 227.461 54.625V55.0938C227.461 55.6016 227.531 56.0703 227.672 56.5C227.82 56.9297 228.027 57.3008 228.293 57.6133C228.566 57.9258 228.895 58.168 229.277 58.3398C229.668 58.5117 230.109 58.5977 230.602 58.5977C231.211 58.5977 231.777 58.4805 232.301 58.2461C232.832 58.0039 233.289 57.6406 233.672 57.1562L235.312 58.9375C235.047 59.3203 234.684 59.6875 234.223 60.0391C233.77 60.3906 233.223 60.6797 232.582 60.9062C231.941 61.125 231.211 61.2344 230.391 61.2344ZM240.82 51.0273V61H237.445V48.3203H240.609L240.82 51.0273ZM240.328 54.2148H239.414C239.414 53.2773 239.535 52.4336 239.777 51.6836C240.02 50.9258 240.359 50.2812 240.797 49.75C241.234 49.2109 241.754 48.8008 242.355 48.5195C242.965 48.2305 243.645 48.0859 244.395 48.0859C244.988 48.0859 245.531 48.1719 246.023 48.3438C246.516 48.5156 246.938 48.7891 247.289 49.1641C247.648 49.5391 247.922 50.0352 248.109 50.6523C248.305 51.2695 248.402 52.0234 248.402 52.9141V61H245.004V52.9023C245.004 52.3398 244.926 51.9023 244.77 51.5898C244.613 51.2773 244.383 51.0586 244.078 50.9336C243.781 50.8008 243.414 50.7344 242.977 50.7344C242.523 50.7344 242.129 50.8242 241.793 51.0039C241.465 51.1836 241.191 51.4336 240.973 51.7539C240.762 52.0664 240.602 52.4336 240.492 52.8555C240.383 53.2773 240.328 53.7305 240.328 54.2148Z" fill="#888888"/>
<path d="M110.062 92.0469L101.742 119H92.9062L105.445 84.875H111.047L110.062 92.0469ZM116.953 119L108.609 92.0469L107.531 84.875H113.203L125.812 119H116.953ZM116.625 106.273V112.625H99.1172V106.273H116.625ZM135.258 115.906L142.055 84.875H146.109L148.312 87.5234L141.07 119H136.594L135.258 115.906ZM133.453 84.875L139.195 116.141L137.719 119H132.539L125.297 84.875H133.453ZM152.039 115.977L157.734 84.875H165.867L158.625 119H153.469L152.039 115.977ZM149.039 84.875L156 116.094L154.594 119H150.117L142.711 87.4766L145.008 84.875H149.039ZM186.68 109.93C186.68 109.398 186.602 108.922 186.445 108.5C186.289 108.062 186 107.656 185.578 107.281C185.156 106.906 184.547 106.531 183.75 106.156C182.969 105.766 181.938 105.359 180.656 104.938C179.156 104.438 177.711 103.875 176.32 103.25C174.93 102.609 173.688 101.867 172.594 101.023C171.5 100.164 170.633 99.1641 169.992 98.0234C169.352 96.8672 169.031 95.5234 169.031 93.9922C169.031 92.5234 169.359 91.2031 170.016 90.0312C170.672 88.8438 171.586 87.8359 172.758 87.0078C173.945 86.1641 175.336 85.5234 176.93 85.0859C178.523 84.6328 180.266 84.4062 182.156 84.4062C184.656 84.4062 186.859 84.8438 188.766 85.7188C190.688 86.5781 192.188 87.8047 193.266 89.3984C194.359 90.9766 194.906 92.8438 194.906 95H186.727C186.727 94.1406 186.547 93.3828 186.188 92.7266C185.844 92.0703 185.32 91.5547 184.617 91.1797C183.914 90.8047 183.031 90.6172 181.969 90.6172C180.938 90.6172 180.07 90.7734 179.367 91.0859C178.664 91.3984 178.133 91.8203 177.773 92.3516C177.414 92.8672 177.234 93.4375 177.234 94.0625C177.234 94.5781 177.375 95.0469 177.656 95.4688C177.953 95.875 178.367 96.2578 178.898 96.6172C179.445 96.9766 180.102 97.3203 180.867 97.6484C181.648 97.9766 182.523 98.2969 183.492 98.6094C185.305 99.1875 186.914 99.8359 188.32 100.555C189.742 101.258 190.938 102.062 191.906 102.969C192.891 103.859 193.633 104.875 194.133 106.016C194.648 107.156 194.906 108.445 194.906 109.883C194.906 111.414 194.609 112.773 194.016 113.961C193.422 115.148 192.57 116.156 191.461 116.984C190.352 117.797 189.023 118.414 187.477 118.836C185.93 119.258 184.203 119.469 182.297 119.469C180.547 119.469 178.82 119.25 177.117 118.812C175.43 118.359 173.898 117.672 172.523 116.75C171.148 115.812 170.047 114.617 169.219 113.164C168.406 111.695 168 109.953 168 107.938H176.25C176.25 108.938 176.383 109.781 176.648 110.469C176.914 111.156 177.305 111.711 177.82 112.133C178.336 112.539 178.969 112.836 179.719 113.023C180.469 113.195 181.328 113.281 182.297 113.281C183.344 113.281 184.188 113.133 184.828 112.836C185.469 112.523 185.938 112.117 186.234 111.617C186.531 111.102 186.68 110.539 186.68 109.93ZM222.188 119H214.617L214.664 112.672H222.188C223.75 112.672 225.07 112.297 226.148 111.547C227.242 110.797 228.07 109.68 228.633 108.195C229.211 106.695 229.5 104.852 229.5 102.664V101.188C229.5 99.5469 229.336 98.1094 229.008 96.875C228.695 95.625 228.227 94.5859 227.602 93.7578C226.977 92.9141 226.195 92.2812 225.258 91.8594C224.336 91.4375 223.273 91.2266 222.07 91.2266H214.477V84.875H222.07C224.383 84.875 226.5 85.2734 228.422 86.0703C230.359 86.8516 232.031 87.9766 233.438 89.4453C234.859 90.8984 235.953 92.625 236.719 94.625C237.5 96.6094 237.891 98.8125 237.891 101.234V102.664C237.891 105.07 237.5 107.273 236.719 109.273C235.953 111.273 234.867 113 233.461 114.453C232.055 115.906 230.391 117.031 228.469 117.828C226.562 118.609 224.469 119 222.188 119ZM219.328 84.875V119H211.102V84.875H219.328ZM254.086 119.469C252.023 119.469 250.18 119.148 248.555 118.508C246.93 117.852 245.555 116.953 244.43 115.812C243.32 114.672 242.469 113.359 241.875 111.875C241.297 110.391 241.008 108.82 241.008 107.164V106.273C241.008 104.414 241.266 102.695 241.781 101.117C242.297 99.5234 243.062 98.1328 244.078 96.9453C245.094 95.7578 246.367 94.8359 247.898 94.1797C249.43 93.5078 251.211 93.1719 253.242 93.1719C255.039 93.1719 256.648 93.4609 258.07 94.0391C259.492 94.6172 260.695 95.4453 261.68 96.5234C262.68 97.6016 263.438 98.9062 263.953 100.438C264.484 101.969 264.75 103.688 264.75 105.594V108.805H244.031V103.859H257.039V103.25C257.055 102.406 256.906 101.688 256.594 101.094C256.297 100.5 255.859 100.047 255.281 99.7344C254.703 99.4219 254 99.2656 253.172 99.2656C252.312 99.2656 251.602 99.4531 251.039 99.8281C250.492 100.203 250.062 100.719 249.75 101.375C249.453 102.016 249.242 102.758 249.117 103.602C248.992 104.445 248.93 105.336 248.93 106.273V107.164C248.93 108.102 249.055 108.953 249.305 109.719C249.57 110.484 249.945 111.141 250.43 111.688C250.93 112.219 251.523 112.633 252.211 112.93C252.914 113.227 253.711 113.375 254.602 113.375C255.68 113.375 256.742 113.172 257.789 112.766C258.836 112.359 259.734 111.688 260.484 110.75L264.07 115.016C263.555 115.75 262.82 116.461 261.867 117.148C260.93 117.836 259.805 118.398 258.492 118.836C257.18 119.258 255.711 119.469 254.086 119.469ZM275.93 98.5156V128.75H268.031V93.6406H275.391L275.93 98.5156ZM291.492 106.016V106.508C291.492 108.352 291.281 110.062 290.859 111.641C290.438 113.219 289.812 114.594 288.984 115.766C288.156 116.938 287.125 117.852 285.891 118.508C284.672 119.148 283.258 119.469 281.648 119.469C280.133 119.469 278.828 119.133 277.734 118.461C276.641 117.789 275.727 116.859 274.992 115.672C274.258 114.484 273.664 113.125 273.211 111.594C272.758 110.062 272.398 108.445 272.133 106.742V106.109C272.398 104.281 272.758 102.586 273.211 101.023C273.664 99.4453 274.258 98.0703 274.992 96.8984C275.727 95.7266 276.633 94.8125 277.711 94.1562C278.805 93.5 280.109 93.1719 281.625 93.1719C283.234 93.1719 284.648 93.4766 285.867 94.0859C287.102 94.6953 288.133 95.5703 288.961 96.7109C289.805 97.8359 290.438 99.1875 290.859 100.766C291.281 102.344 291.492 104.094 291.492 106.016ZM283.594 106.508V106.016C283.594 105.031 283.523 104.133 283.383 103.32C283.242 102.492 283.016 101.773 282.703 101.164C282.406 100.555 282.008 100.086 281.508 99.7578C281.008 99.4297 280.391 99.2656 279.656 99.2656C278.812 99.2656 278.102 99.3984 277.523 99.6641C276.961 99.9141 276.508 100.305 276.164 100.836C275.836 101.352 275.602 102 275.461 102.781C275.336 103.547 275.281 104.445 275.297 105.477V107.398C275.266 108.586 275.383 109.633 275.648 110.539C275.914 111.43 276.375 112.125 277.031 112.625C277.688 113.125 278.578 113.375 279.703 113.375C280.453 113.375 281.078 113.203 281.578 112.859C282.078 112.5 282.477 112.008 282.773 111.383C283.07 110.742 283.281 110.008 283.406 109.18C283.531 108.352 283.594 107.461 283.594 106.508ZM303.352 83V119H295.43V83H303.352ZM307.242 106.578V106.086C307.242 104.227 307.508 102.516 308.039 100.953C308.57 99.375 309.352 98.0078 310.383 96.8516C311.414 95.6953 312.688 94.7969 314.203 94.1562C315.719 93.5 317.469 93.1719 319.453 93.1719C321.453 93.1719 323.211 93.5 324.727 94.1562C326.258 94.7969 327.539 95.6953 328.57 96.8516C329.602 98.0078 330.383 99.375 330.914 100.953C331.445 102.516 331.711 104.227 331.711 106.086V106.578C331.711 108.422 331.445 110.133 330.914 111.711C330.383 113.273 329.602 114.641 328.57 115.812C327.539 116.969 326.266 117.867 324.75 118.508C323.234 119.148 321.484 119.469 319.5 119.469C317.516 119.469 315.758 119.148 314.227 118.508C312.695 117.867 311.414 116.969 310.383 115.812C309.352 114.641 308.57 113.273 308.039 111.711C307.508 110.133 307.242 108.422 307.242 106.578ZM315.141 106.086V106.578C315.141 107.531 315.211 108.422 315.352 109.25C315.492 110.078 315.727 110.805 316.055 111.43C316.383 112.039 316.828 112.516 317.391 112.859C317.953 113.203 318.656 113.375 319.5 113.375C320.328 113.375 321.016 113.203 321.562 112.859C322.125 112.516 322.57 112.039 322.898 111.43C323.227 110.805 323.461 110.078 323.602 109.25C323.742 108.422 323.812 107.531 323.812 106.578V106.086C323.812 105.164 323.742 104.297 323.602 103.484C323.461 102.656 323.227 101.93 322.898 101.305C322.57 100.664 322.125 100.164 321.562 99.8047C321 99.4453 320.297 99.2656 319.453 99.2656C318.625 99.2656 317.93 99.4453 317.367 99.8047C316.82 100.164 316.383 100.664 316.055 101.305C315.727 101.93 315.492 102.656 315.352 103.484C315.211 104.297 315.141 105.164 315.141 106.086ZM342.633 116.023L349.195 93.6406H357.68L347.484 122.773C347.266 123.414 346.977 124.102 346.617 124.836C346.258 125.586 345.766 126.297 345.141 126.969C344.516 127.641 343.711 128.188 342.727 128.609C341.758 129.031 340.555 129.242 339.117 129.242C338.352 129.242 337.789 129.203 337.43 129.125C337.086 129.062 336.555 128.945 335.836 128.773V123.125C336.039 123.125 336.211 123.125 336.352 123.125C336.508 123.125 336.68 123.125 336.867 123.125C337.711 123.125 338.383 123.039 338.883 122.867C339.398 122.695 339.789 122.445 340.055 122.117C340.336 121.789 340.555 121.391 340.711 120.922L342.633 116.023ZM340.969 93.6406L345.961 111.383L346.828 119.75H341.531L332.508 93.6406H340.969ZM367.711 99.0078V119H359.812V93.6406H367.219L367.711 99.0078ZM366.75 105.453L364.945 105.5C364.945 103.719 365.156 102.078 365.578 100.578C366 99.0781 366.625 97.7734 367.453 96.6641C368.281 95.5547 369.297 94.6953 370.5 94.0859C371.719 93.4766 373.125 93.1719 374.719 93.1719C375.828 93.1719 376.836 93.3438 377.742 93.6875C378.648 94.0156 379.43 94.5391 380.086 95.2578C380.742 95.9609 381.242 96.8828 381.586 98.0234C381.945 99.1484 382.125 100.5 382.125 102.078V119H374.227V103.086C374.227 102.008 374.102 101.195 373.852 100.648C373.617 100.102 373.273 99.7344 372.82 99.5469C372.367 99.3594 371.812 99.2656 371.156 99.2656C370.469 99.2656 369.852 99.4219 369.305 99.7344C368.758 100.047 368.289 100.484 367.898 101.047C367.523 101.594 367.234 102.242 367.031 102.992C366.844 103.742 366.75 104.562 366.75 105.453ZM381.234 105.453L379.031 105.5C379.031 103.719 379.227 102.078 379.617 100.578C380.023 99.0781 380.625 97.7734 381.422 96.6641C382.234 95.5547 383.242 94.6953 384.445 94.0859C385.648 93.4766 387.047 93.1719 388.641 93.1719C389.797 93.1719 390.859 93.3438 391.828 93.6875C392.797 94.0312 393.633 94.5859 394.336 95.3516C395.039 96.1172 395.586 97.1328 395.977 98.3984C396.367 99.6484 396.562 101.195 396.562 103.039V119H388.641V103.039C388.641 101.992 388.516 101.203 388.266 100.672C388.031 100.125 387.688 99.7578 387.234 99.5703C386.781 99.3672 386.242 99.2656 385.617 99.2656C384.867 99.2656 384.219 99.4219 383.672 99.7344C383.125 100.047 382.664 100.484 382.289 101.047C381.93 101.594 381.664 102.242 381.492 102.992C381.32 103.742 381.234 104.562 381.234 105.453ZM413.367 119.469C411.305 119.469 409.461 119.148 407.836 118.508C406.211 117.852 404.836 116.953 403.711 115.812C402.602 114.672 401.75 113.359 401.156 111.875C400.578 110.391 400.289 108.82 400.289 107.164V106.273C400.289 104.414 400.547 102.695 401.062 101.117C401.578 99.5234 402.344 98.1328 403.359 96.9453C404.375 95.7578 405.648 94.8359 407.18 94.1797C408.711 93.5078 410.492 93.1719 412.523 93.1719C414.32 93.1719 415.93 93.4609 417.352 94.0391C418.773 94.6172 419.977 95.4453 420.961 96.5234C421.961 97.6016 422.719 98.9062 423.234 100.438C423.766 101.969 424.031 103.688 424.031 105.594V108.805H403.312V103.859H416.32V103.25C416.336 102.406 416.188 101.688 415.875 101.094C415.578 100.5 415.141 100.047 414.562 99.7344C413.984 99.4219 413.281 99.2656 412.453 99.2656C411.594 99.2656 410.883 99.4531 410.32 99.8281C409.773 100.203 409.344 100.719 409.031 101.375C408.734 102.016 408.523 102.758 408.398 103.602C408.273 104.445 408.211 105.336 408.211 106.273V107.164C408.211 108.102 408.336 108.953 408.586 109.719C408.852 110.484 409.227 111.141 409.711 111.688C410.211 112.219 410.805 112.633 411.492 112.93C412.195 113.227 412.992 113.375 413.883 113.375C414.961 113.375 416.023 113.172 417.07 112.766C418.117 112.359 419.016 111.688 419.766 110.75L423.352 115.016C422.836 115.75 422.102 116.461 421.148 117.148C420.211 117.836 419.086 118.398 417.773 118.836C416.461 119.258 414.992 119.469 413.367 119.469ZM435 99.0547V119H427.102V93.6406H434.508L435 99.0547ZM434.062 105.453L432.211 105.5C432.211 103.562 432.445 101.836 432.914 100.32C433.383 98.7891 434.047 97.4922 434.906 96.4297C435.766 95.3672 436.789 94.5625 437.977 94.0156C439.18 93.4531 440.516 93.1719 441.984 93.1719C443.156 93.1719 444.227 93.3438 445.195 93.6875C446.18 94.0312 447.023 94.5859 447.727 95.3516C448.445 96.1172 448.992 97.1328 449.367 98.3984C449.758 99.6484 449.953 101.195 449.953 103.039V119H442.008V103.016C442.008 102 441.867 101.227 441.586 100.695C441.305 100.148 440.898 99.7734 440.367 99.5703C439.836 99.3672 439.188 99.2656 438.422 99.2656C437.609 99.2656 436.922 99.4219 436.359 99.7344C435.797 100.047 435.344 100.484 435 101.047C434.672 101.594 434.43 102.242 434.273 102.992C434.133 103.742 434.062 104.562 434.062 105.453ZM467.695 93.6406V99.125H452.414V93.6406H467.695ZM455.625 87.3359H463.523V110.727C463.523 111.398 463.602 111.922 463.758 112.297C463.914 112.656 464.18 112.914 464.555 113.07C464.945 113.211 465.461 113.281 466.102 113.281C466.555 113.281 466.93 113.273 467.227 113.258C467.523 113.227 467.805 113.188 468.07 113.141V118.789C467.398 119.008 466.695 119.172 465.961 119.281C465.227 119.406 464.445 119.469 463.617 119.469C461.93 119.469 460.484 119.203 459.281 118.672C458.094 118.141 457.188 117.305 456.562 116.164C455.938 115.023 455.625 113.539 455.625 111.711V87.3359Z" fill="black"/>
<path d="M1134 0H1348C1356.28 0 1363 6.71573 1363 15V148C1363 156.284 1356.28 163 1348 163H1134V0Z" fill="#008F32"/>
<path d="M1212.5 117.5L1212.5 45.5L1284.5 45.5L1284.5 117.5L1212.5 117.5Z" fill="white" fill-opacity="0.01"/>
<path d="M1221.5 81.5125L1221.5 108.5L1275.5 108.5L1275.5 81.5" stroke="white" stroke-width="7.24" stroke-linecap="round" stroke-linejoin="round"/>
<path d="M1262 68L1248.5 54.5L1235 68" stroke="white" stroke-width="7.24" stroke-linecap="round" stroke-linejoin="round"/>
<path d="M1248.49 93.5L1248.49 54.5" stroke="white" stroke-width="7.24" stroke-linecap="round" stroke-linejoin="round"/>
</svg>
