<svg width="1363" height="163" viewBox="0 0 1363 163" fill="none" xmlns="http://www.w3.org/2000/svg">
<rect width="1134" height="163" fill="#F0F0F0"/>
<path d="M64.9062 53.9219L57.3945 51.2383V48.0859L67.6016 52.375V54.6367L64.9062 53.9219ZM57.3945 56.1719L64.918 53.4297L67.6016 52.7852V55.0352L57.3945 59.3242V56.1719ZM89.4219 52.082V58.8438C89.1562 59.1641 88.7461 59.5117 88.1914 59.8867C87.6367 60.2539 86.9219 60.5703 86.0469 60.8359C85.1719 61.1016 84.1133 61.2344 82.8711 61.2344C81.7695 61.2344 80.7656 61.0547 79.8594 60.6953C78.9531 60.3281 78.1719 59.793 77.5156 59.0898C76.8672 58.3867 76.3672 57.5273 76.0156 56.5117C75.6641 55.4883 75.4883 54.3203 75.4883 53.0078V51.9414C75.4883 50.6289 75.6562 49.4609 75.9922 48.4375C76.3359 47.4141 76.8242 46.5508 77.457 45.8477C78.0898 45.1445 78.8438 44.6094 79.7188 44.2422C80.5938 43.875 81.5664 43.6914 82.6367 43.6914C84.1211 43.6914 85.3398 43.9336 86.293 44.418C87.2461 44.8945 87.9727 45.5586 88.4727 46.4102C88.9805 47.2539 89.293 48.2227 89.4102 49.3164H86C85.9141 48.7383 85.75 48.2344 85.5078 47.8047C85.2656 47.375 84.918 47.0391 84.4648 46.7969C84.0195 46.5547 83.4414 46.4336 82.7305 46.4336C82.1445 46.4336 81.6211 46.5547 81.1602 46.7969C80.707 47.0312 80.3242 47.3789 80.0117 47.8398C79.6992 48.3008 79.4609 48.8711 79.2969 49.5508C79.1328 50.2305 79.0508 51.0195 79.0508 51.918V53.0078C79.0508 53.8984 79.1367 54.6875 79.3086 55.375C79.4805 56.0547 79.7344 56.6289 80.0703 57.0977C80.4141 57.5586 80.8359 57.9062 81.3359 58.1406C81.8359 58.375 82.418 58.4922 83.082 58.4922C83.6367 58.4922 84.0977 58.4453 84.4648 58.3516C84.8398 58.2578 85.1406 58.1445 85.3672 58.0117C85.6016 57.8711 85.7812 57.7383 85.9062 57.6133V54.5898H82.6953V52.082H89.4219ZM95.4219 51.0859V61H92.0469V48.3203H95.2227L95.4219 51.0859ZM99.2422 48.2383L99.1836 51.3672C99.0195 51.3438 98.8203 51.3242 98.5859 51.3086C98.3594 51.2852 98.1523 51.2734 97.9648 51.2734C97.4883 51.2734 97.0742 51.3359 96.7227 51.4609C96.3789 51.5781 96.0898 51.7539 95.8555 51.9883C95.6289 52.2227 95.457 52.5078 95.3398 52.8438C95.2305 53.1797 95.168 53.5625 95.1523 53.9922L94.4727 53.7812C94.4727 52.9609 94.5547 52.207 94.7188 51.5195C94.8828 50.8242 95.1211 50.2188 95.4336 49.7031C95.7539 49.1875 96.1445 48.7891 96.6055 48.5078C97.0664 48.2266 97.5938 48.0859 98.1875 48.0859C98.375 48.0859 98.5664 48.1016 98.7617 48.1328C98.957 48.1562 99.1172 48.1914 99.2422 48.2383ZM106.438 61.2344C105.453 61.2344 104.57 61.0781 103.789 60.7656C103.008 60.4453 102.344 60.0039 101.797 59.4414C101.258 58.8789 100.844 58.2266 100.555 57.4844C100.266 56.7344 100.121 55.9375 100.121 55.0938V54.625C100.121 53.6641 100.258 52.7852 100.531 51.9883C100.805 51.1914 101.195 50.5 101.703 49.9141C102.219 49.3281 102.844 48.8789 103.578 48.5664C104.312 48.2461 105.141 48.0859 106.062 48.0859C106.961 48.0859 107.758 48.2344 108.453 48.5312C109.148 48.8281 109.73 49.25 110.199 49.7969C110.676 50.3438 111.035 51 111.277 51.7656C111.52 52.5234 111.641 53.3672 111.641 54.2969V55.7031H101.562V53.4531H108.324V53.1953C108.324 52.7266 108.238 52.3086 108.066 51.9414C107.902 51.5664 107.652 51.2695 107.316 51.0508C106.98 50.832 106.551 50.7227 106.027 50.7227C105.582 50.7227 105.199 50.8203 104.879 51.0156C104.559 51.2109 104.297 51.4844 104.094 51.8359C103.898 52.1875 103.75 52.6016 103.648 53.0781C103.555 53.5469 103.508 54.0625 103.508 54.625V55.0938C103.508 55.6016 103.578 56.0703 103.719 56.5C103.867 56.9297 104.074 57.3008 104.34 57.6133C104.613 57.9258 104.941 58.168 105.324 58.3398C105.715 58.5117 106.156 58.5977 106.648 58.5977C107.258 58.5977 107.824 58.4805 108.348 58.2461C108.879 58.0039 109.336 57.6406 109.719 57.1562L111.359 58.9375C111.094 59.3203 110.73 59.6875 110.27 60.0391C109.816 60.3906 109.27 60.6797 108.629 60.9062C107.988 61.125 107.258 61.2344 106.438 61.2344ZM119.398 61.2344C118.414 61.2344 117.531 61.0781 116.75 60.7656C115.969 60.4453 115.305 60.0039 114.758 59.4414C114.219 58.8789 113.805 58.2266 113.516 57.4844C113.227 56.7344 113.082 55.9375 113.082 55.0938V54.625C113.082 53.6641 113.219 52.7852 113.492 51.9883C113.766 51.1914 114.156 50.5 114.664 49.9141C115.18 49.3281 115.805 48.8789 116.539 48.5664C117.273 48.2461 118.102 48.0859 119.023 48.0859C119.922 48.0859 120.719 48.2344 121.414 48.5312C122.109 48.8281 122.691 49.25 123.16 49.7969C123.637 50.3438 123.996 51 124.238 51.7656C124.48 52.5234 124.602 53.3672 124.602 54.2969V55.7031H114.523V53.4531H121.285V53.1953C121.285 52.7266 121.199 52.3086 121.027 51.9414C120.863 51.5664 120.613 51.2695 120.277 51.0508C119.941 50.832 119.512 50.7227 118.988 50.7227C118.543 50.7227 118.16 50.8203 117.84 51.0156C117.52 51.2109 117.258 51.4844 117.055 51.8359C116.859 52.1875 116.711 52.6016 116.609 53.0781C116.516 53.5469 116.469 54.0625 116.469 54.625V55.0938C116.469 55.6016 116.539 56.0703 116.68 56.5C116.828 56.9297 117.035 57.3008 117.301 57.6133C117.574 57.9258 117.902 58.168 118.285 58.3398C118.676 58.5117 119.117 58.5977 119.609 58.5977C120.219 58.5977 120.785 58.4805 121.309 58.2461C121.84 58.0039 122.297 57.6406 122.68 57.1562L124.32 58.9375C124.055 59.3203 123.691 59.6875 123.23 60.0391C122.777 60.3906 122.23 60.6797 121.59 60.9062C120.949 61.125 120.219 61.2344 119.398 61.2344ZM129.828 51.0273V61H126.453V48.3203H129.617L129.828 51.0273ZM129.336 54.2148H128.422C128.422 53.2773 128.543 52.4336 128.785 51.6836C129.027 50.9258 129.367 50.2812 129.805 49.75C130.242 49.2109 130.762 48.8008 131.363 48.5195C131.973 48.2305 132.652 48.0859 133.402 48.0859C133.996 48.0859 134.539 48.1719 135.031 48.3438C135.523 48.5156 135.945 48.7891 136.297 49.1641C136.656 49.5391 136.93 50.0352 137.117 50.6523C137.312 51.2695 137.41 52.0234 137.41 52.9141V61H134.012V52.9023C134.012 52.3398 133.934 51.9023 133.777 51.5898C133.621 51.2773 133.391 51.0586 133.086 50.9336C132.789 50.8008 132.422 50.7344 131.984 50.7344C131.531 50.7344 131.137 50.8242 130.801 51.0039C130.473 51.1836 130.199 51.4336 129.98 51.7539C129.77 52.0664 129.609 52.4336 129.5 52.8555C129.391 53.2773 129.336 53.7305 129.336 54.2148ZM157.543 50.8867V53.6289H148.637V50.8867H157.543ZM149.68 43.9375V61H146.164V43.9375H149.68ZM160.051 43.9375V61H156.547V43.9375H160.051ZM169.742 58.1406V52.4922C169.742 52.0859 169.676 51.7383 169.543 51.4492C169.41 51.1523 169.203 50.9219 168.922 50.7578C168.648 50.5938 168.293 50.5117 167.855 50.5117C167.48 50.5117 167.156 50.5781 166.883 50.7109C166.609 50.8359 166.398 51.0195 166.25 51.2617C166.102 51.4961 166.027 51.7734 166.027 52.0938H162.652C162.652 51.5547 162.777 51.043 163.027 50.5586C163.277 50.0742 163.641 49.6484 164.117 49.2812C164.594 48.9062 165.16 48.6133 165.816 48.4023C166.48 48.1914 167.223 48.0859 168.043 48.0859C169.027 48.0859 169.902 48.25 170.668 48.5781C171.434 48.9062 172.035 49.3984 172.473 50.0547C172.918 50.7109 173.141 51.5312 173.141 52.5156V57.9414C173.141 58.6367 173.184 59.207 173.27 59.6523C173.355 60.0898 173.48 60.4727 173.645 60.8008V61H170.234C170.07 60.6562 169.945 60.2266 169.859 59.7109C169.781 59.1875 169.742 58.6641 169.742 58.1406ZM170.188 53.2773L170.211 55.1875H168.324C167.879 55.1875 167.492 55.2383 167.164 55.3398C166.836 55.4414 166.566 55.5859 166.355 55.7734C166.145 55.9531 165.988 56.1641 165.887 56.4062C165.793 56.6484 165.746 56.9141 165.746 57.2031C165.746 57.4922 165.812 57.7539 165.945 57.9883C166.078 58.2148 166.27 58.3945 166.52 58.5273C166.77 58.6523 167.062 58.7148 167.398 58.7148C167.906 58.7148 168.348 58.6133 168.723 58.4102C169.098 58.207 169.387 57.957 169.59 57.6602C169.801 57.3633 169.91 57.082 169.918 56.8164L170.809 58.2461C170.684 58.5664 170.512 58.8984 170.293 59.2422C170.082 59.5859 169.812 59.9102 169.484 60.2148C169.156 60.5117 168.762 60.7578 168.301 60.9531C167.84 61.1406 167.293 61.2344 166.66 61.2344C165.855 61.2344 165.125 61.0742 164.469 60.7539C163.82 60.4258 163.305 59.9766 162.922 59.4062C162.547 58.8281 162.359 58.1719 162.359 57.4375C162.359 56.7734 162.484 56.1836 162.734 55.668C162.984 55.1523 163.352 54.7188 163.836 54.3672C164.328 54.0078 164.941 53.7383 165.676 53.5586C166.41 53.3711 167.262 53.2773 168.23 53.2773H170.188ZM179.867 58.5391L182.68 48.3203H186.207L181.93 61H179.797L179.867 58.5391ZM177.934 48.3203L180.758 58.5508L180.816 61H178.672L174.395 48.3203H177.934ZM193.391 61.2344C192.406 61.2344 191.523 61.0781 190.742 60.7656C189.961 60.4453 189.297 60.0039 188.75 59.4414C188.211 58.8789 187.797 58.2266 187.508 57.4844C187.219 56.7344 187.074 55.9375 187.074 55.0938V54.625C187.074 53.6641 187.211 52.7852 187.484 51.9883C187.758 51.1914 188.148 50.5 188.656 49.9141C189.172 49.3281 189.797 48.8789 190.531 48.5664C191.266 48.2461 192.094 48.0859 193.016 48.0859C193.914 48.0859 194.711 48.2344 195.406 48.5312C196.102 48.8281 196.684 49.25 197.152 49.7969C197.629 50.3438 197.988 51 198.23 51.7656C198.473 52.5234 198.594 53.3672 198.594 54.2969V55.7031H188.516V53.4531H195.277V53.1953C195.277 52.7266 195.191 52.3086 195.02 51.9414C194.855 51.5664 194.605 51.2695 194.27 51.0508C193.934 50.832 193.504 50.7227 192.98 50.7227C192.535 50.7227 192.152 50.8203 191.832 51.0156C191.512 51.2109 191.25 51.4844 191.047 51.8359C190.852 52.1875 190.703 52.6016 190.602 53.0781C190.508 53.5469 190.461 54.0625 190.461 54.625V55.0938C190.461 55.6016 190.531 56.0703 190.672 56.5C190.82 56.9297 191.027 57.3008 191.293 57.6133C191.566 57.9258 191.895 58.168 192.277 58.3398C192.668 58.5117 193.109 58.5977 193.602 58.5977C194.211 58.5977 194.777 58.4805 195.301 58.2461C195.832 58.0039 196.289 57.6406 196.672 57.1562L198.312 58.9375C198.047 59.3203 197.684 59.6875 197.223 60.0391C196.77 60.3906 196.223 60.6797 195.582 60.9062C194.941 61.125 194.211 61.2344 193.391 61.2344ZM203.82 51.0273V61H200.445V48.3203H203.609L203.82 51.0273ZM203.328 54.2148H202.414C202.414 53.2773 202.535 52.4336 202.777 51.6836C203.02 50.9258 203.359 50.2812 203.797 49.75C204.234 49.2109 204.754 48.8008 205.355 48.5195C205.965 48.2305 206.645 48.0859 207.395 48.0859C207.988 48.0859 208.531 48.1719 209.023 48.3438C209.516 48.5156 209.938 48.7891 210.289 49.1641C210.648 49.5391 210.922 50.0352 211.109 50.6523C211.305 51.2695 211.402 52.0234 211.402 52.9141V61H208.004V52.9023C208.004 52.3398 207.926 51.9023 207.77 51.5898C207.613 51.2773 207.383 51.0586 207.078 50.9336C206.781 50.8008 206.414 50.7344 205.977 50.7344C205.523 50.7344 205.129 50.8242 204.793 51.0039C204.465 51.1836 204.191 51.4336 203.973 51.7539C203.762 52.0664 203.602 52.4336 203.492 52.8555C203.383 53.2773 203.328 53.7305 203.328 54.2148Z" fill="#888888"/>
<path d="M75.125 84.875V119H66.8984V84.875H75.125ZM85.3906 84.875V91.2266H56.8672V84.875H85.3906ZM98.6797 119.469C96.6172 119.469 94.7734 119.148 93.1484 118.508C91.5234 117.852 90.1484 116.953 89.0234 115.812C87.9141 114.672 87.0625 113.359 86.4688 111.875C85.8906 110.391 85.6016 108.82 85.6016 107.164V106.273C85.6016 104.414 85.8594 102.695 86.375 101.117C86.8906 99.5234 87.6562 98.1328 88.6719 96.9453C89.6875 95.7578 90.9609 94.8359 92.4922 94.1797C94.0234 93.5078 95.8047 93.1719 97.8359 93.1719C99.6328 93.1719 101.242 93.4609 102.664 94.0391C104.086 94.6172 105.289 95.4453 106.273 96.5234C107.273 97.6016 108.031 98.9062 108.547 100.438C109.078 101.969 109.344 103.688 109.344 105.594V108.805H88.625V103.859H101.633V103.25C101.648 102.406 101.5 101.688 101.188 101.094C100.891 100.5 100.453 100.047 99.875 99.7344C99.2969 99.4219 98.5938 99.2656 97.7656 99.2656C96.9062 99.2656 96.1953 99.4531 95.6328 99.8281C95.0859 100.203 94.6562 100.719 94.3438 101.375C94.0469 102.016 93.8359 102.758 93.7109 103.602C93.5859 104.445 93.5234 105.336 93.5234 106.273V107.164C93.5234 108.102 93.6484 108.953 93.8984 109.719C94.1641 110.484 94.5391 111.141 95.0234 111.688C95.5234 112.219 96.1172 112.633 96.8047 112.93C97.5078 113.227 98.3047 113.375 99.1953 113.375C100.273 113.375 101.336 113.172 102.383 112.766C103.43 112.359 104.328 111.688 105.078 110.75L108.664 115.016C108.148 115.75 107.414 116.461 106.461 117.148C105.523 117.836 104.398 118.398 103.086 118.836C101.773 119.258 100.305 119.469 98.6797 119.469ZM123.266 113.375C124 113.375 124.625 113.242 125.141 112.977C125.672 112.695 126.07 112.305 126.336 111.805C126.617 111.289 126.75 110.672 126.734 109.953H134.164C134.18 111.859 133.711 113.531 132.758 114.969C131.82 116.391 130.539 117.5 128.914 118.297C127.305 119.078 125.484 119.469 123.453 119.469C121.469 119.469 119.734 119.148 118.25 118.508C116.766 117.852 115.523 116.945 114.523 115.789C113.539 114.617 112.797 113.25 112.297 111.688C111.812 110.125 111.57 108.43 111.57 106.602V106.062C111.57 104.234 111.812 102.539 112.297 100.977C112.797 99.3984 113.539 98.0312 114.523 96.875C115.523 95.7031 116.758 94.7969 118.227 94.1562C119.711 93.5 121.438 93.1719 123.406 93.1719C125.516 93.1719 127.375 93.5703 128.984 94.3672C130.609 95.1641 131.883 96.3203 132.805 97.8359C133.727 99.3516 134.18 101.188 134.164 103.344H126.734C126.75 102.578 126.633 101.891 126.383 101.281C126.133 100.672 125.742 100.188 125.211 99.8281C124.695 99.4531 124.031 99.2656 123.219 99.2656C122.406 99.2656 121.75 99.4453 121.25 99.8047C120.75 100.164 120.367 100.664 120.102 101.305C119.852 101.93 119.68 102.648 119.586 103.461C119.508 104.273 119.469 105.141 119.469 106.062V106.602C119.469 107.539 119.508 108.422 119.586 109.25C119.68 110.062 119.859 110.781 120.125 111.406C120.391 112.016 120.773 112.5 121.273 112.859C121.773 113.203 122.438 113.375 123.266 113.375ZM145.273 83V119H137.375V83H145.273ZM144.336 105.453L142.484 105.5C142.484 103.719 142.703 102.078 143.141 100.578C143.578 99.0781 144.203 97.7734 145.016 96.6641C145.828 95.5547 146.805 94.6953 147.945 94.0859C149.086 93.4766 150.352 93.1719 151.742 93.1719C152.992 93.1719 154.133 93.3516 155.164 93.7109C156.211 94.0703 157.109 94.6484 157.859 95.4453C158.625 96.2422 159.211 97.2812 159.617 98.5625C160.039 99.8438 160.25 101.406 160.25 103.25V119H152.305V103.203C152.305 102.172 152.156 101.375 151.859 100.812C151.578 100.234 151.172 99.8359 150.641 99.6172C150.109 99.3828 149.461 99.2656 148.695 99.2656C147.773 99.2656 147.023 99.4219 146.445 99.7344C145.867 100.047 145.422 100.484 145.109 101.047C144.812 101.594 144.609 102.242 144.5 102.992C144.391 103.742 144.336 104.562 144.336 105.453ZM194.539 109.93C194.539 109.398 194.461 108.922 194.305 108.5C194.148 108.062 193.859 107.656 193.438 107.281C193.016 106.906 192.406 106.531 191.609 106.156C190.828 105.766 189.797 105.359 188.516 104.938C187.016 104.438 185.57 103.875 184.18 103.25C182.789 102.609 181.547 101.867 180.453 101.023C179.359 100.164 178.492 99.1641 177.852 98.0234C177.211 96.8672 176.891 95.5234 176.891 93.9922C176.891 92.5234 177.219 91.2031 177.875 90.0312C178.531 88.8438 179.445 87.8359 180.617 87.0078C181.805 86.1641 183.195 85.5234 184.789 85.0859C186.383 84.6328 188.125 84.4062 190.016 84.4062C192.516 84.4062 194.719 84.8438 196.625 85.7188C198.547 86.5781 200.047 87.8047 201.125 89.3984C202.219 90.9766 202.766 92.8438 202.766 95H194.586C194.586 94.1406 194.406 93.3828 194.047 92.7266C193.703 92.0703 193.18 91.5547 192.477 91.1797C191.773 90.8047 190.891 90.6172 189.828 90.6172C188.797 90.6172 187.93 90.7734 187.227 91.0859C186.523 91.3984 185.992 91.8203 185.633 92.3516C185.273 92.8672 185.094 93.4375 185.094 94.0625C185.094 94.5781 185.234 95.0469 185.516 95.4688C185.812 95.875 186.227 96.2578 186.758 96.6172C187.305 96.9766 187.961 97.3203 188.727 97.6484C189.508 97.9766 190.383 98.2969 191.352 98.6094C193.164 99.1875 194.773 99.8359 196.18 100.555C197.602 101.258 198.797 102.062 199.766 102.969C200.75 103.859 201.492 104.875 201.992 106.016C202.508 107.156 202.766 108.445 202.766 109.883C202.766 111.414 202.469 112.773 201.875 113.961C201.281 115.148 200.43 116.156 199.32 116.984C198.211 117.797 196.883 118.414 195.336 118.836C193.789 119.258 192.062 119.469 190.156 119.469C188.406 119.469 186.68 119.25 184.977 118.812C183.289 118.359 181.758 117.672 180.383 116.75C179.008 115.812 177.906 114.617 177.078 113.164C176.266 111.695 175.859 109.953 175.859 107.938H184.109C184.109 108.938 184.242 109.781 184.508 110.469C184.773 111.156 185.164 111.711 185.68 112.133C186.195 112.539 186.828 112.836 187.578 113.023C188.328 113.195 189.188 113.281 190.156 113.281C191.203 113.281 192.047 113.133 192.688 112.836C193.328 112.523 193.797 112.117 194.094 111.617C194.391 111.102 194.539 110.539 194.539 109.93ZM219.992 93.6406V99.125H204.711V93.6406H219.992ZM207.922 87.3359H215.82V110.727C215.82 111.398 215.898 111.922 216.055 112.297C216.211 112.656 216.477 112.914 216.852 113.07C217.242 113.211 217.758 113.281 218.398 113.281C218.852 113.281 219.227 113.273 219.523 113.258C219.82 113.227 220.102 113.188 220.367 113.141V118.789C219.695 119.008 218.992 119.172 218.258 119.281C217.523 119.406 216.742 119.469 215.914 119.469C214.227 119.469 212.781 119.203 211.578 118.672C210.391 118.141 209.484 117.305 208.859 116.164C208.234 115.023 207.922 113.539 207.922 111.711V87.3359ZM236.305 112.625V102.172C236.305 101.453 236.203 100.836 236 100.32C235.797 99.8047 235.477 99.4062 235.039 99.125C234.602 98.8281 234.016 98.6797 233.281 98.6797C232.688 98.6797 232.18 98.7812 231.758 98.9844C231.336 99.1875 231.016 99.4922 230.797 99.8984C230.578 100.305 230.469 100.82 230.469 101.445H222.57C222.57 100.273 222.828 99.1875 223.344 98.1875C223.875 97.1719 224.625 96.2891 225.594 95.5391C226.578 94.7891 227.75 94.2109 229.109 93.8047C230.484 93.3828 232.016 93.1719 233.703 93.1719C235.719 93.1719 237.516 93.5078 239.094 94.1797C240.688 94.8516 241.945 95.8594 242.867 97.2031C243.789 98.5312 244.25 100.203 244.25 102.219V112.602C244.25 114.258 244.344 115.516 244.531 116.375C244.719 117.219 244.984 117.961 245.328 118.602V119H237.406C237.031 118.219 236.75 117.266 236.562 116.141C236.391 115 236.305 113.828 236.305 112.625ZM237.266 103.508L237.312 107.727H233.82C233.086 107.727 232.461 107.828 231.945 108.031C231.445 108.234 231.039 108.516 230.727 108.875C230.43 109.219 230.211 109.609 230.07 110.047C229.945 110.484 229.883 110.945 229.883 111.43C229.883 111.898 229.992 112.32 230.211 112.695C230.445 113.055 230.758 113.336 231.148 113.539C231.539 113.742 231.977 113.844 232.461 113.844C233.336 113.844 234.078 113.68 234.688 113.352C235.312 113.008 235.789 112.594 236.117 112.109C236.445 111.625 236.609 111.172 236.609 110.75L238.344 113.984C238.031 114.609 237.672 115.242 237.266 115.883C236.875 116.523 236.383 117.117 235.789 117.664C235.211 118.195 234.5 118.633 233.656 118.977C232.812 119.305 231.789 119.469 230.586 119.469C229.023 119.469 227.586 119.148 226.273 118.508C224.977 117.867 223.938 116.977 223.156 115.836C222.375 114.68 221.984 113.352 221.984 111.852C221.984 110.539 222.219 109.367 222.688 108.336C223.172 107.305 223.898 106.43 224.867 105.711C225.836 104.992 227.07 104.445 228.57 104.07C230.07 103.695 231.836 103.508 233.867 103.508H237.266ZM259.344 113.375C260.078 113.375 260.703 113.242 261.219 112.977C261.75 112.695 262.148 112.305 262.414 111.805C262.695 111.289 262.828 110.672 262.812 109.953H270.242C270.258 111.859 269.789 113.531 268.836 114.969C267.898 116.391 266.617 117.5 264.992 118.297C263.383 119.078 261.562 119.469 259.531 119.469C257.547 119.469 255.812 119.148 254.328 118.508C252.844 117.852 251.602 116.945 250.602 115.789C249.617 114.617 248.875 113.25 248.375 111.688C247.891 110.125 247.648 108.43 247.648 106.602V106.062C247.648 104.234 247.891 102.539 248.375 100.977C248.875 99.3984 249.617 98.0312 250.602 96.875C251.602 95.7031 252.836 94.7969 254.305 94.1562C255.789 93.5 257.516 93.1719 259.484 93.1719C261.594 93.1719 263.453 93.5703 265.062 94.3672C266.688 95.1641 267.961 96.3203 268.883 97.8359C269.805 99.3516 270.258 101.188 270.242 103.344H262.812C262.828 102.578 262.711 101.891 262.461 101.281C262.211 100.672 261.82 100.188 261.289 99.8281C260.773 99.4531 260.109 99.2656 259.297 99.2656C258.484 99.2656 257.828 99.4453 257.328 99.8047C256.828 100.164 256.445 100.664 256.18 101.305C255.93 101.93 255.758 102.648 255.664 103.461C255.586 104.273 255.547 105.141 255.547 106.062V106.602C255.547 107.539 255.586 108.422 255.664 109.25C255.758 110.062 255.938 110.781 256.203 111.406C256.469 112.016 256.852 112.5 257.352 112.859C257.852 113.203 258.516 113.375 259.344 113.375ZM281.586 82.9766V119H273.688V82.9766H281.586ZM297.805 93.6406L286.789 106.555L281.023 112.32L277.578 107.305L282.383 101.047L288.336 93.6406H297.805ZM289.344 119L282.57 107.445L288.406 103.297L298.391 119H289.344Z" fill="black"/>
<path d="M1134 0H1348C1356.28 0 1363 6.71573 1363 15V148C1363 156.284 1356.28 163 1348 163H1134V0Z" fill="#006624"/>
<path fill-rule="evenodd" clip-rule="evenodd" d="M1218.75 53C1218.62 53 1218.49 53.0527 1218.4 53.1464C1218.3 53.2402 1218.25 53.3674 1218.25 53.5V109.5C1218.25 109.633 1218.3 109.76 1218.4 109.854C1218.49 109.947 1218.62 110 1218.75 110H1278.25C1278.38 110 1278.51 109.947 1278.6 109.854C1278.7 109.76 1278.75 109.633 1278.75 109.5V64C1278.75 63.8674 1278.7 63.7402 1278.6 63.6464C1278.51 63.5527 1278.38 63.5 1278.25 63.5H1248.5C1247.61 63.5 1246.77 63.1045 1246.2 62.4206L1238.34 53H1218.75ZM1214.15 48.9038C1215.37 47.6848 1217.03 47 1218.75 47H1239.75C1240.64 47 1241.48 47.3955 1242.05 48.0794L1249.91 57.5H1278.25C1279.97 57.5 1281.63 58.1848 1282.85 59.4038C1284.07 60.6228 1284.75 62.2761 1284.75 64V109.5C1284.75 111.224 1284.07 112.877 1282.85 114.096C1281.63 115.315 1279.97 116 1278.25 116H1218.75C1217.03 116 1215.37 115.315 1214.15 114.096C1212.93 112.877 1212.25 111.224 1212.25 109.5V53.5C1212.25 51.7761 1212.93 50.1228 1214.15 48.9038Z" fill="white"/>
<path fill-rule="evenodd" clip-rule="evenodd" d="M1243.97 75.5251C1245.34 76.892 1245.34 79.108 1243.97 80.4749L1237.7 86.75L1243.97 93.0251C1245.34 94.392 1245.34 96.608 1243.97 97.9749C1242.61 99.3417 1240.39 99.3417 1239.03 97.9749L1230.28 89.2249C1228.91 87.858 1228.91 85.642 1230.28 84.2751L1239.03 75.5251C1240.39 74.1583 1242.61 74.1583 1243.97 75.5251Z" fill="white"/>
<path fill-rule="evenodd" clip-rule="evenodd" d="M1252.28 97.9749C1250.91 96.608 1250.91 94.392 1252.28 93.0251L1258.55 86.75L1252.28 80.4749C1250.91 79.108 1250.91 76.892 1252.28 75.5251C1253.64 74.1583 1255.86 74.1583 1257.22 75.5251L1265.97 84.2751C1267.34 85.642 1267.34 87.858 1265.97 89.2249L1257.22 97.9749C1255.86 99.3417 1253.64 99.3417 1252.28 97.9749Z" fill="white"/>
</svg>
