<svg width="1363" height="163" viewBox="0 0 1363 163" fill="none" xmlns="http://www.w3.org/2000/svg">
<rect width="1134" height="163" fill="#F0F0F0"/>
<path d="M64.9062 53.9219L57.3945 51.2383V48.0859L67.6016 52.375V54.6367L64.9062 53.9219ZM57.3945 56.1719L64.918 53.4297L67.6016 52.7852V55.0352L57.3945 59.3242V56.1719ZM89.4219 52.082V58.8438C89.1562 59.1641 88.7461 59.5117 88.1914 59.8867C87.6367 60.2539 86.9219 60.5703 86.0469 60.8359C85.1719 61.1016 84.1133 61.2344 82.8711 61.2344C81.7695 61.2344 80.7656 61.0547 79.8594 60.6953C78.9531 60.3281 78.1719 59.793 77.5156 59.0898C76.8672 58.3867 76.3672 57.5273 76.0156 56.5117C75.6641 55.4883 75.4883 54.3203 75.4883 53.0078V51.9414C75.4883 50.6289 75.6562 49.4609 75.9922 48.4375C76.3359 47.4141 76.8242 46.5508 77.457 45.8477C78.0898 45.1445 78.8438 44.6094 79.7188 44.2422C80.5938 43.875 81.5664 43.6914 82.6367 43.6914C84.1211 43.6914 85.3398 43.9336 86.293 44.418C87.2461 44.8945 87.9727 45.5586 88.4727 46.4102C88.9805 47.2539 89.293 48.2227 89.4102 49.3164H86C85.9141 48.7383 85.75 48.2344 85.5078 47.8047C85.2656 47.375 84.918 47.0391 84.4648 46.7969C84.0195 46.5547 83.4414 46.4336 82.7305 46.4336C82.1445 46.4336 81.6211 46.5547 81.1602 46.7969C80.707 47.0312 80.3242 47.3789 80.0117 47.8398C79.6992 48.3008 79.4609 48.8711 79.2969 49.5508C79.1328 50.2305 79.0508 51.0195 79.0508 51.918V53.0078C79.0508 53.8984 79.1367 54.6875 79.3086 55.375C79.4805 56.0547 79.7344 56.6289 80.0703 57.0977C80.4141 57.5586 80.8359 57.9062 81.3359 58.1406C81.8359 58.375 82.418 58.4922 83.082 58.4922C83.6367 58.4922 84.0977 58.4453 84.4648 58.3516C84.8398 58.2578 85.1406 58.1445 85.3672 58.0117C85.6016 57.8711 85.7812 57.7383 85.9062 57.6133V54.5898H82.6953V52.082H89.4219ZM95.4219 51.0859V61H92.0469V48.3203H95.2227L95.4219 51.0859ZM99.2422 48.2383L99.1836 51.3672C99.0195 51.3438 98.8203 51.3242 98.5859 51.3086C98.3594 51.2852 98.1523 51.2734 97.9648 51.2734C97.4883 51.2734 97.0742 51.3359 96.7227 51.4609C96.3789 51.5781 96.0898 51.7539 95.8555 51.9883C95.6289 52.2227 95.457 52.5078 95.3398 52.8438C95.2305 53.1797 95.168 53.5625 95.1523 53.9922L94.4727 53.7812C94.4727 52.9609 94.5547 52.207 94.7188 51.5195C94.8828 50.8242 95.1211 50.2188 95.4336 49.7031C95.7539 49.1875 96.1445 48.7891 96.6055 48.5078C97.0664 48.2266 97.5938 48.0859 98.1875 48.0859C98.375 48.0859 98.5664 48.1016 98.7617 48.1328C98.957 48.1562 99.1172 48.1914 99.2422 48.2383ZM106.438 61.2344C105.453 61.2344 104.57 61.0781 103.789 60.7656C103.008 60.4453 102.344 60.0039 101.797 59.4414C101.258 58.8789 100.844 58.2266 100.555 57.4844C100.266 56.7344 100.121 55.9375 100.121 55.0938V54.625C100.121 53.6641 100.258 52.7852 100.531 51.9883C100.805 51.1914 101.195 50.5 101.703 49.9141C102.219 49.3281 102.844 48.8789 103.578 48.5664C104.312 48.2461 105.141 48.0859 106.062 48.0859C106.961 48.0859 107.758 48.2344 108.453 48.5312C109.148 48.8281 109.73 49.25 110.199 49.7969C110.676 50.3438 111.035 51 111.277 51.7656C111.52 52.5234 111.641 53.3672 111.641 54.2969V55.7031H101.562V53.4531H108.324V53.1953C108.324 52.7266 108.238 52.3086 108.066 51.9414C107.902 51.5664 107.652 51.2695 107.316 51.0508C106.98 50.832 106.551 50.7227 106.027 50.7227C105.582 50.7227 105.199 50.8203 104.879 51.0156C104.559 51.2109 104.297 51.4844 104.094 51.8359C103.898 52.1875 103.75 52.6016 103.648 53.0781C103.555 53.5469 103.508 54.0625 103.508 54.625V55.0938C103.508 55.6016 103.578 56.0703 103.719 56.5C103.867 56.9297 104.074 57.3008 104.34 57.6133C104.613 57.9258 104.941 58.168 105.324 58.3398C105.715 58.5117 106.156 58.5977 106.648 58.5977C107.258 58.5977 107.824 58.4805 108.348 58.2461C108.879 58.0039 109.336 57.6406 109.719 57.1562L111.359 58.9375C111.094 59.3203 110.73 59.6875 110.27 60.0391C109.816 60.3906 109.27 60.6797 108.629 60.9062C107.988 61.125 107.258 61.2344 106.438 61.2344ZM119.398 61.2344C118.414 61.2344 117.531 61.0781 116.75 60.7656C115.969 60.4453 115.305 60.0039 114.758 59.4414C114.219 58.8789 113.805 58.2266 113.516 57.4844C113.227 56.7344 113.082 55.9375 113.082 55.0938V54.625C113.082 53.6641 113.219 52.7852 113.492 51.9883C113.766 51.1914 114.156 50.5 114.664 49.9141C115.18 49.3281 115.805 48.8789 116.539 48.5664C117.273 48.2461 118.102 48.0859 119.023 48.0859C119.922 48.0859 120.719 48.2344 121.414 48.5312C122.109 48.8281 122.691 49.25 123.16 49.7969C123.637 50.3438 123.996 51 124.238 51.7656C124.48 52.5234 124.602 53.3672 124.602 54.2969V55.7031H114.523V53.4531H121.285V53.1953C121.285 52.7266 121.199 52.3086 121.027 51.9414C120.863 51.5664 120.613 51.2695 120.277 51.0508C119.941 50.832 119.512 50.7227 118.988 50.7227C118.543 50.7227 118.16 50.8203 117.84 51.0156C117.52 51.2109 117.258 51.4844 117.055 51.8359C116.859 52.1875 116.711 52.6016 116.609 53.0781C116.516 53.5469 116.469 54.0625 116.469 54.625V55.0938C116.469 55.6016 116.539 56.0703 116.68 56.5C116.828 56.9297 117.035 57.3008 117.301 57.6133C117.574 57.9258 117.902 58.168 118.285 58.3398C118.676 58.5117 119.117 58.5977 119.609 58.5977C120.219 58.5977 120.785 58.4805 121.309 58.2461C121.84 58.0039 122.297 57.6406 122.68 57.1562L124.32 58.9375C124.055 59.3203 123.691 59.6875 123.23 60.0391C122.777 60.3906 122.23 60.6797 121.59 60.9062C120.949 61.125 120.219 61.2344 119.398 61.2344ZM129.828 51.0273V61H126.453V48.3203H129.617L129.828 51.0273ZM129.336 54.2148H128.422C128.422 53.2773 128.543 52.4336 128.785 51.6836C129.027 50.9258 129.367 50.2812 129.805 49.75C130.242 49.2109 130.762 48.8008 131.363 48.5195C131.973 48.2305 132.652 48.0859 133.402 48.0859C133.996 48.0859 134.539 48.1719 135.031 48.3438C135.523 48.5156 135.945 48.7891 136.297 49.1641C136.656 49.5391 136.93 50.0352 137.117 50.6523C137.312 51.2695 137.41 52.0234 137.41 52.9141V61H134.012V52.9023C134.012 52.3398 133.934 51.9023 133.777 51.5898C133.621 51.2773 133.391 51.0586 133.086 50.9336C132.789 50.8008 132.422 50.7344 131.984 50.7344C131.531 50.7344 131.137 50.8242 130.801 51.0039C130.473 51.1836 130.199 51.4336 129.98 51.7539C129.77 52.0664 129.609 52.4336 129.5 52.8555C129.391 53.2773 129.336 53.7305 129.336 54.2148ZM157.543 50.8867V53.6289H148.637V50.8867H157.543ZM149.68 43.9375V61H146.164V43.9375H149.68ZM160.051 43.9375V61H156.547V43.9375H160.051ZM169.742 58.1406V52.4922C169.742 52.0859 169.676 51.7383 169.543 51.4492C169.41 51.1523 169.203 50.9219 168.922 50.7578C168.648 50.5938 168.293 50.5117 167.855 50.5117C167.48 50.5117 167.156 50.5781 166.883 50.7109C166.609 50.8359 166.398 51.0195 166.25 51.2617C166.102 51.4961 166.027 51.7734 166.027 52.0938H162.652C162.652 51.5547 162.777 51.043 163.027 50.5586C163.277 50.0742 163.641 49.6484 164.117 49.2812C164.594 48.9062 165.16 48.6133 165.816 48.4023C166.48 48.1914 167.223 48.0859 168.043 48.0859C169.027 48.0859 169.902 48.25 170.668 48.5781C171.434 48.9062 172.035 49.3984 172.473 50.0547C172.918 50.7109 173.141 51.5312 173.141 52.5156V57.9414C173.141 58.6367 173.184 59.207 173.27 59.6523C173.355 60.0898 173.48 60.4727 173.645 60.8008V61H170.234C170.07 60.6562 169.945 60.2266 169.859 59.7109C169.781 59.1875 169.742 58.6641 169.742 58.1406ZM170.188 53.2773L170.211 55.1875H168.324C167.879 55.1875 167.492 55.2383 167.164 55.3398C166.836 55.4414 166.566 55.5859 166.355 55.7734C166.145 55.9531 165.988 56.1641 165.887 56.4062C165.793 56.6484 165.746 56.9141 165.746 57.2031C165.746 57.4922 165.812 57.7539 165.945 57.9883C166.078 58.2148 166.27 58.3945 166.52 58.5273C166.77 58.6523 167.062 58.7148 167.398 58.7148C167.906 58.7148 168.348 58.6133 168.723 58.4102C169.098 58.207 169.387 57.957 169.59 57.6602C169.801 57.3633 169.91 57.082 169.918 56.8164L170.809 58.2461C170.684 58.5664 170.512 58.8984 170.293 59.2422C170.082 59.5859 169.812 59.9102 169.484 60.2148C169.156 60.5117 168.762 60.7578 168.301 60.9531C167.84 61.1406 167.293 61.2344 166.66 61.2344C165.855 61.2344 165.125 61.0742 164.469 60.7539C163.82 60.4258 163.305 59.9766 162.922 59.4062C162.547 58.8281 162.359 58.1719 162.359 57.4375C162.359 56.7734 162.484 56.1836 162.734 55.668C162.984 55.1523 163.352 54.7188 163.836 54.3672C164.328 54.0078 164.941 53.7383 165.676 53.5586C166.41 53.3711 167.262 53.2773 168.23 53.2773H170.188ZM179.867 58.5391L182.68 48.3203H186.207L181.93 61H179.797L179.867 58.5391ZM177.934 48.3203L180.758 58.5508L180.816 61H178.672L174.395 48.3203H177.934ZM193.391 61.2344C192.406 61.2344 191.523 61.0781 190.742 60.7656C189.961 60.4453 189.297 60.0039 188.75 59.4414C188.211 58.8789 187.797 58.2266 187.508 57.4844C187.219 56.7344 187.074 55.9375 187.074 55.0938V54.625C187.074 53.6641 187.211 52.7852 187.484 51.9883C187.758 51.1914 188.148 50.5 188.656 49.9141C189.172 49.3281 189.797 48.8789 190.531 48.5664C191.266 48.2461 192.094 48.0859 193.016 48.0859C193.914 48.0859 194.711 48.2344 195.406 48.5312C196.102 48.8281 196.684 49.25 197.152 49.7969C197.629 50.3438 197.988 51 198.23 51.7656C198.473 52.5234 198.594 53.3672 198.594 54.2969V55.7031H188.516V53.4531H195.277V53.1953C195.277 52.7266 195.191 52.3086 195.02 51.9414C194.855 51.5664 194.605 51.2695 194.27 51.0508C193.934 50.832 193.504 50.7227 192.98 50.7227C192.535 50.7227 192.152 50.8203 191.832 51.0156C191.512 51.2109 191.25 51.4844 191.047 51.8359C190.852 52.1875 190.703 52.6016 190.602 53.0781C190.508 53.5469 190.461 54.0625 190.461 54.625V55.0938C190.461 55.6016 190.531 56.0703 190.672 56.5C190.82 56.9297 191.027 57.3008 191.293 57.6133C191.566 57.9258 191.895 58.168 192.277 58.3398C192.668 58.5117 193.109 58.5977 193.602 58.5977C194.211 58.5977 194.777 58.4805 195.301 58.2461C195.832 58.0039 196.289 57.6406 196.672 57.1562L198.312 58.9375C198.047 59.3203 197.684 59.6875 197.223 60.0391C196.77 60.3906 196.223 60.6797 195.582 60.9062C194.941 61.125 194.211 61.2344 193.391 61.2344ZM203.82 51.0273V61H200.445V48.3203H203.609L203.82 51.0273ZM203.328 54.2148H202.414C202.414 53.2773 202.535 52.4336 202.777 51.6836C203.02 50.9258 203.359 50.2812 203.797 49.75C204.234 49.2109 204.754 48.8008 205.355 48.5195C205.965 48.2305 206.645 48.0859 207.395 48.0859C207.988 48.0859 208.531 48.1719 209.023 48.3438C209.516 48.5156 209.938 48.7891 210.289 49.1641C210.648 49.5391 210.922 50.0352 211.109 50.6523C211.305 51.2695 211.402 52.0234 211.402 52.9141V61H208.004V52.9023C208.004 52.3398 207.926 51.9023 207.77 51.5898C207.613 51.2773 207.383 51.0586 207.078 50.9336C206.781 50.8008 206.414 50.7344 205.977 50.7344C205.523 50.7344 205.129 50.8242 204.793 51.0039C204.465 51.1836 204.191 51.4336 203.973 51.7539C203.762 52.0664 203.602 52.4336 203.492 52.8555C203.383 53.2773 203.328 53.7305 203.328 54.2148Z" fill="#888888"/>
<path d="M72.2188 107.422H63.7344V101.07H72.2188C73.375 101.07 74.3125 100.875 75.0312 100.484C75.75 100.094 76.2734 99.5547 76.6016 98.8672C76.9453 98.1641 77.1172 97.375 77.1172 96.5C77.1172 95.5625 76.9453 94.6953 76.6016 93.8984C76.2734 93.1016 75.75 92.4609 75.0312 91.9766C74.3125 91.4766 73.375 91.2266 72.2188 91.2266H66.8281V119H58.6016V84.875H72.2188C74.9531 84.875 77.3047 85.375 79.2734 86.375C81.2578 87.375 82.7812 88.75 83.8438 90.5C84.9062 92.2344 85.4375 94.2188 85.4375 96.4531C85.4375 98.6562 84.9062 100.578 83.8438 102.219C82.7812 103.859 81.2578 105.141 79.2734 106.062C77.3047 106.969 74.9531 107.422 72.2188 107.422ZM97.4609 99.9219V119H89.5625V93.6406H96.9453L97.4609 99.9219ZM104.961 93.4531L104.82 100.789C104.508 100.758 104.086 100.719 103.555 100.672C103.023 100.625 102.578 100.602 102.219 100.602C101.297 100.602 100.5 100.711 99.8281 100.93C99.1719 101.133 98.625 101.445 98.1875 101.867C97.7656 102.273 97.4531 102.789 97.25 103.414C97.0625 104.039 96.9766 104.766 96.9922 105.594L95.5625 104.656C95.5625 102.953 95.7266 101.406 96.0547 100.016C96.3984 98.6094 96.8828 97.3984 97.5078 96.3828C98.1328 95.3516 98.8906 94.5625 99.7812 94.0156C100.672 93.4531 101.672 93.1719 102.781 93.1719C103.172 93.1719 103.555 93.1953 103.93 93.2422C104.32 93.2891 104.664 93.3594 104.961 93.4531ZM105.852 106.578V106.086C105.852 104.227 106.117 102.516 106.648 100.953C107.18 99.375 107.961 98.0078 108.992 96.8516C110.023 95.6953 111.297 94.7969 112.812 94.1562C114.328 93.5 116.078 93.1719 118.062 93.1719C120.062 93.1719 121.82 93.5 123.336 94.1562C124.867 94.7969 126.148 95.6953 127.18 96.8516C128.211 98.0078 128.992 99.375 129.523 100.953C130.055 102.516 130.32 104.227 130.32 106.086V106.578C130.32 108.422 130.055 110.133 129.523 111.711C128.992 113.273 128.211 114.641 127.18 115.812C126.148 116.969 124.875 117.867 123.359 118.508C121.844 119.148 120.094 119.469 118.109 119.469C116.125 119.469 114.367 119.148 112.836 118.508C111.305 117.867 110.023 116.969 108.992 115.812C107.961 114.641 107.18 113.273 106.648 111.711C106.117 110.133 105.852 108.422 105.852 106.578ZM113.75 106.086V106.578C113.75 107.531 113.82 108.422 113.961 109.25C114.102 110.078 114.336 110.805 114.664 111.43C114.992 112.039 115.438 112.516 116 112.859C116.562 113.203 117.266 113.375 118.109 113.375C118.938 113.375 119.625 113.203 120.172 112.859C120.734 112.516 121.18 112.039 121.508 111.43C121.836 110.805 122.07 110.078 122.211 109.25C122.352 108.422 122.422 107.531 122.422 106.578V106.086C122.422 105.164 122.352 104.297 122.211 103.484C122.07 102.656 121.836 101.93 121.508 101.305C121.18 100.664 120.734 100.164 120.172 99.8047C119.609 99.4453 118.906 99.2656 118.062 99.2656C117.234 99.2656 116.539 99.4453 115.977 99.8047C115.43 100.164 114.992 100.664 114.664 101.305C114.336 101.93 114.102 102.656 113.961 103.484C113.82 104.297 113.75 105.164 113.75 106.086ZM134.422 93.6406H142.344V119.82C142.344 121.852 141.953 123.562 141.172 124.953C140.391 126.359 139.273 127.422 137.82 128.141C136.367 128.875 134.633 129.242 132.617 129.242C131.945 129.242 131.328 129.211 130.766 129.148C130.188 129.102 129.555 129 128.867 128.844V122.867C129.273 122.93 129.648 122.977 129.992 123.008C130.336 123.055 130.711 123.078 131.117 123.078C131.836 123.078 132.438 122.961 132.922 122.727C133.406 122.492 133.773 122.133 134.023 121.648C134.289 121.164 134.422 120.555 134.422 119.82V93.6406ZM133.836 87.1016C133.836 85.9766 134.242 85.0547 135.055 84.3359C135.867 83.6172 136.922 83.2578 138.219 83.2578C139.516 83.2578 140.57 83.6172 141.383 84.3359C142.195 85.0547 142.602 85.9766 142.602 87.1016C142.602 88.2266 142.195 89.1484 141.383 89.8672C140.57 90.5859 139.516 90.9453 138.219 90.9453C136.922 90.9453 135.867 90.5859 135.055 89.8672C134.242 89.1484 133.836 88.2266 133.836 87.1016ZM159.102 119.469C157.039 119.469 155.195 119.148 153.57 118.508C151.945 117.852 150.57 116.953 149.445 115.812C148.336 114.672 147.484 113.359 146.891 111.875C146.312 110.391 146.023 108.82 146.023 107.164V106.273C146.023 104.414 146.281 102.695 146.797 101.117C147.312 99.5234 148.078 98.1328 149.094 96.9453C150.109 95.7578 151.383 94.8359 152.914 94.1797C154.445 93.5078 156.227 93.1719 158.258 93.1719C160.055 93.1719 161.664 93.4609 163.086 94.0391C164.508 94.6172 165.711 95.4453 166.695 96.5234C167.695 97.6016 168.453 98.9062 168.969 100.438C169.5 101.969 169.766 103.688 169.766 105.594V108.805H149.047V103.859H162.055V103.25C162.07 102.406 161.922 101.688 161.609 101.094C161.312 100.5 160.875 100.047 160.297 99.7344C159.719 99.4219 159.016 99.2656 158.188 99.2656C157.328 99.2656 156.617 99.4531 156.055 99.8281C155.508 100.203 155.078 100.719 154.766 101.375C154.469 102.016 154.258 102.758 154.133 103.602C154.008 104.445 153.945 105.336 153.945 106.273V107.164C153.945 108.102 154.07 108.953 154.32 109.719C154.586 110.484 154.961 111.141 155.445 111.688C155.945 112.219 156.539 112.633 157.227 112.93C157.93 113.227 158.727 113.375 159.617 113.375C160.695 113.375 161.758 113.172 162.805 112.766C163.852 112.359 164.75 111.688 165.5 110.75L169.086 115.016C168.57 115.75 167.836 116.461 166.883 117.148C165.945 117.836 164.82 118.398 163.508 118.836C162.195 119.258 160.727 119.469 159.102 119.469ZM183.688 113.375C184.422 113.375 185.047 113.242 185.562 112.977C186.094 112.695 186.492 112.305 186.758 111.805C187.039 111.289 187.172 110.672 187.156 109.953H194.586C194.602 111.859 194.133 113.531 193.18 114.969C192.242 116.391 190.961 117.5 189.336 118.297C187.727 119.078 185.906 119.469 183.875 119.469C181.891 119.469 180.156 119.148 178.672 118.508C177.188 117.852 175.945 116.945 174.945 115.789C173.961 114.617 173.219 113.25 172.719 111.688C172.234 110.125 171.992 108.43 171.992 106.602V106.062C171.992 104.234 172.234 102.539 172.719 100.977C173.219 99.3984 173.961 98.0312 174.945 96.875C175.945 95.7031 177.18 94.7969 178.648 94.1562C180.133 93.5 181.859 93.1719 183.828 93.1719C185.938 93.1719 187.797 93.5703 189.406 94.3672C191.031 95.1641 192.305 96.3203 193.227 97.8359C194.148 99.3516 194.602 101.188 194.586 103.344H187.156C187.172 102.578 187.055 101.891 186.805 101.281C186.555 100.672 186.164 100.188 185.633 99.8281C185.117 99.4531 184.453 99.2656 183.641 99.2656C182.828 99.2656 182.172 99.4453 181.672 99.8047C181.172 100.164 180.789 100.664 180.523 101.305C180.273 101.93 180.102 102.648 180.008 103.461C179.93 104.273 179.891 105.141 179.891 106.062V106.602C179.891 107.539 179.93 108.422 180.008 109.25C180.102 110.062 180.281 110.781 180.547 111.406C180.812 112.016 181.195 112.5 181.695 112.859C182.195 113.203 182.859 113.375 183.688 113.375ZM211.32 93.6406V99.125H196.039V93.6406H211.32ZM199.25 87.3359H207.148V110.727C207.148 111.398 207.227 111.922 207.383 112.297C207.539 112.656 207.805 112.914 208.18 113.07C208.57 113.211 209.086 113.281 209.727 113.281C210.18 113.281 210.555 113.273 210.852 113.258C211.148 113.227 211.43 113.188 211.695 113.141V118.789C211.023 119.008 210.32 119.172 209.586 119.281C208.852 119.406 208.07 119.469 207.242 119.469C205.555 119.469 204.109 119.203 202.906 118.672C201.719 118.141 200.812 117.305 200.188 116.164C199.562 115.023 199.25 113.539 199.25 111.711V87.3359ZM240.406 107.422H231.922V101.07H240.406C241.562 101.07 242.5 100.875 243.219 100.484C243.938 100.094 244.461 99.5547 244.789 98.8672C245.133 98.1641 245.305 97.375 245.305 96.5C245.305 95.5625 245.133 94.6953 244.789 93.8984C244.461 93.1016 243.938 92.4609 243.219 91.9766C242.5 91.4766 241.562 91.2266 240.406 91.2266H235.016V119H226.789V84.875H240.406C243.141 84.875 245.492 85.375 247.461 86.375C249.445 87.375 250.969 88.75 252.031 90.5C253.094 92.2344 253.625 94.2188 253.625 96.4531C253.625 98.6562 253.094 100.578 252.031 102.219C250.969 103.859 249.445 105.141 247.461 106.062C245.492 106.969 243.141 107.422 240.406 107.422ZM265.414 83V119H257.516V83H265.414ZM264.477 105.453L262.625 105.5C262.625 103.719 262.844 102.078 263.281 100.578C263.719 99.0781 264.344 97.7734 265.156 96.6641C265.969 95.5547 266.945 94.6953 268.086 94.0859C269.227 93.4766 270.492 93.1719 271.883 93.1719C273.133 93.1719 274.273 93.3516 275.305 93.7109C276.352 94.0703 277.25 94.6484 278 95.4453C278.766 96.2422 279.352 97.2812 279.758 98.5625C280.18 99.8438 280.391 101.406 280.391 103.25V119H272.445V103.203C272.445 102.172 272.297 101.375 272 100.812C271.719 100.234 271.312 99.8359 270.781 99.6172C270.25 99.3828 269.602 99.2656 268.836 99.2656C267.914 99.2656 267.164 99.4219 266.586 99.7344C266.008 100.047 265.562 100.484 265.25 101.047C264.953 101.594 264.75 102.242 264.641 102.992C264.531 103.742 264.477 104.562 264.477 105.453ZM293.117 93.6406V119H285.195V93.6406H293.117ZM284.727 87.1016C284.727 85.9766 285.133 85.0547 285.945 84.3359C286.758 83.6172 287.812 83.2578 289.109 83.2578C290.406 83.2578 291.461 83.6172 292.273 84.3359C293.086 85.0547 293.492 85.9766 293.492 87.1016C293.492 88.2266 293.086 89.1484 292.273 89.8672C291.461 90.5859 290.406 90.9453 289.109 90.9453C287.812 90.9453 286.758 90.5859 285.945 89.8672C285.133 89.1484 284.727 88.2266 284.727 87.1016ZM306.336 83V119H298.414V83H306.336ZM310.227 106.578V106.086C310.227 104.227 310.492 102.516 311.023 100.953C311.555 99.375 312.336 98.0078 313.367 96.8516C314.398 95.6953 315.672 94.7969 317.188 94.1562C318.703 93.5 320.453 93.1719 322.438 93.1719C324.438 93.1719 326.195 93.5 327.711 94.1562C329.242 94.7969 330.523 95.6953 331.555 96.8516C332.586 98.0078 333.367 99.375 333.898 100.953C334.43 102.516 334.695 104.227 334.695 106.086V106.578C334.695 108.422 334.43 110.133 333.898 111.711C333.367 113.273 332.586 114.641 331.555 115.812C330.523 116.969 329.25 117.867 327.734 118.508C326.219 119.148 324.469 119.469 322.484 119.469C320.5 119.469 318.742 119.148 317.211 118.508C315.68 117.867 314.398 116.969 313.367 115.812C312.336 114.641 311.555 113.273 311.023 111.711C310.492 110.133 310.227 108.422 310.227 106.578ZM318.125 106.086V106.578C318.125 107.531 318.195 108.422 318.336 109.25C318.477 110.078 318.711 110.805 319.039 111.43C319.367 112.039 319.812 112.516 320.375 112.859C320.938 113.203 321.641 113.375 322.484 113.375C323.312 113.375 324 113.203 324.547 112.859C325.109 112.516 325.555 112.039 325.883 111.43C326.211 110.805 326.445 110.078 326.586 109.25C326.727 108.422 326.797 107.531 326.797 106.578V106.086C326.797 105.164 326.727 104.297 326.586 103.484C326.445 102.656 326.211 101.93 325.883 101.305C325.555 100.664 325.109 100.164 324.547 99.8047C323.984 99.4453 323.281 99.2656 322.438 99.2656C321.609 99.2656 320.914 99.4453 320.352 99.8047C319.805 100.164 319.367 100.664 319.039 101.305C318.711 101.93 318.477 102.656 318.336 103.484C318.195 104.297 318.125 105.164 318.125 106.086ZM351.5 111.875C351.5 111.438 351.352 111.062 351.055 110.75C350.773 110.422 350.273 110.125 349.555 109.859C348.836 109.578 347.828 109.297 346.531 109.016C345.297 108.75 344.133 108.398 343.039 107.961C341.961 107.523 341.016 106.992 340.203 106.367C339.391 105.742 338.75 105 338.281 104.141C337.828 103.281 337.602 102.297 337.602 101.188C337.602 100.109 337.828 99.0938 338.281 98.1406C338.75 97.1719 339.43 96.3203 340.32 95.5859C341.227 94.8359 342.328 94.25 343.625 93.8281C344.922 93.3906 346.398 93.1719 348.055 93.1719C350.336 93.1719 352.305 93.5234 353.961 94.2266C355.617 94.9141 356.891 95.8828 357.781 97.1328C358.688 98.3672 359.141 99.7969 359.141 101.422H351.242C351.242 100.781 351.133 100.234 350.914 99.7812C350.711 99.3281 350.375 98.9844 349.906 98.75C349.438 98.5 348.812 98.375 348.031 98.375C347.484 98.375 346.984 98.4766 346.531 98.6797C346.094 98.8828 345.742 99.1641 345.477 99.5234C345.211 99.8828 345.078 100.305 345.078 100.789C345.078 101.133 345.156 101.445 345.312 101.727C345.484 101.992 345.742 102.242 346.086 102.477C346.43 102.695 346.867 102.898 347.398 103.086C347.93 103.258 348.57 103.414 349.32 103.555C351.023 103.867 352.617 104.312 354.102 104.891C355.586 105.469 356.789 106.289 357.711 107.352C358.648 108.414 359.117 109.844 359.117 111.641C359.117 112.766 358.859 113.805 358.344 114.758C357.828 115.695 357.086 116.523 356.117 117.242C355.148 117.945 353.984 118.492 352.625 118.883C351.266 119.273 349.734 119.469 348.031 119.469C345.609 119.469 343.562 119.039 341.891 118.18C340.219 117.305 338.953 116.211 338.094 114.898C337.25 113.57 336.828 112.227 336.828 110.867H344.188C344.219 111.648 344.406 112.289 344.75 112.789C345.109 113.289 345.586 113.656 346.18 113.891C346.773 114.125 347.461 114.242 348.242 114.242C348.961 114.242 349.555 114.141 350.023 113.938C350.508 113.734 350.875 113.461 351.125 113.117C351.375 112.758 351.5 112.344 351.5 111.875ZM361.836 106.578V106.086C361.836 104.227 362.102 102.516 362.633 100.953C363.164 99.375 363.945 98.0078 364.977 96.8516C366.008 95.6953 367.281 94.7969 368.797 94.1562C370.312 93.5 372.062 93.1719 374.047 93.1719C376.047 93.1719 377.805 93.5 379.32 94.1562C380.852 94.7969 382.133 95.6953 383.164 96.8516C384.195 98.0078 384.977 99.375 385.508 100.953C386.039 102.516 386.305 104.227 386.305 106.086V106.578C386.305 108.422 386.039 110.133 385.508 111.711C384.977 113.273 384.195 114.641 383.164 115.812C382.133 116.969 380.859 117.867 379.344 118.508C377.828 119.148 376.078 119.469 374.094 119.469C372.109 119.469 370.352 119.148 368.82 118.508C367.289 117.867 366.008 116.969 364.977 115.812C363.945 114.641 363.164 113.273 362.633 111.711C362.102 110.133 361.836 108.422 361.836 106.578ZM369.734 106.086V106.578C369.734 107.531 369.805 108.422 369.945 109.25C370.086 110.078 370.32 110.805 370.648 111.43C370.977 112.039 371.422 112.516 371.984 112.859C372.547 113.203 373.25 113.375 374.094 113.375C374.922 113.375 375.609 113.203 376.156 112.859C376.719 112.516 377.164 112.039 377.492 111.43C377.82 110.805 378.055 110.078 378.195 109.25C378.336 108.422 378.406 107.531 378.406 106.578V106.086C378.406 105.164 378.336 104.297 378.195 103.484C378.055 102.656 377.82 101.93 377.492 101.305C377.164 100.664 376.719 100.164 376.156 99.8047C375.594 99.4453 374.891 99.2656 374.047 99.2656C373.219 99.2656 372.523 99.4453 371.961 99.8047C371.414 100.164 370.977 100.664 370.648 101.305C370.32 101.93 370.086 102.656 369.945 103.484C369.805 104.297 369.734 105.164 369.734 106.086ZM397.789 98.5156V128.75H389.891V93.6406H397.25L397.789 98.5156ZM413.352 106.016V106.508C413.352 108.352 413.141 110.062 412.719 111.641C412.297 113.219 411.672 114.594 410.844 115.766C410.016 116.938 408.984 117.852 407.75 118.508C406.531 119.148 405.117 119.469 403.508 119.469C401.992 119.469 400.688 119.133 399.594 118.461C398.5 117.789 397.586 116.859 396.852 115.672C396.117 114.484 395.523 113.125 395.07 111.594C394.617 110.062 394.258 108.445 393.992 106.742V106.109C394.258 104.281 394.617 102.586 395.07 101.023C395.523 99.4453 396.117 98.0703 396.852 96.8984C397.586 95.7266 398.492 94.8125 399.57 94.1562C400.664 93.5 401.969 93.1719 403.484 93.1719C405.094 93.1719 406.508 93.4766 407.727 94.0859C408.961 94.6953 409.992 95.5703 410.82 96.7109C411.664 97.8359 412.297 99.1875 412.719 100.766C413.141 102.344 413.352 104.094 413.352 106.016ZM405.453 106.508V106.016C405.453 105.031 405.383 104.133 405.242 103.32C405.102 102.492 404.875 101.773 404.562 101.164C404.266 100.555 403.867 100.086 403.367 99.7578C402.867 99.4297 402.25 99.2656 401.516 99.2656C400.672 99.2656 399.961 99.3984 399.383 99.6641C398.82 99.9141 398.367 100.305 398.023 100.836C397.695 101.352 397.461 102 397.32 102.781C397.195 103.547 397.141 104.445 397.156 105.477V107.398C397.125 108.586 397.242 109.633 397.508 110.539C397.773 111.43 398.234 112.125 398.891 112.625C399.547 113.125 400.438 113.375 401.562 113.375C402.312 113.375 402.938 113.203 403.438 112.859C403.938 112.5 404.336 112.008 404.633 111.383C404.93 110.742 405.141 110.008 405.266 109.18C405.391 108.352 405.453 107.461 405.453 106.508ZM424.602 83V119H416.703V83H424.602ZM423.664 105.453L421.812 105.5C421.812 103.719 422.031 102.078 422.469 100.578C422.906 99.0781 423.531 97.7734 424.344 96.6641C425.156 95.5547 426.133 94.6953 427.273 94.0859C428.414 93.4766 429.68 93.1719 431.07 93.1719C432.32 93.1719 433.461 93.3516 434.492 93.7109C435.539 94.0703 436.438 94.6484 437.188 95.4453C437.953 96.2422 438.539 97.2812 438.945 98.5625C439.367 99.8438 439.578 101.406 439.578 103.25V119H431.633V103.203C431.633 102.172 431.484 101.375 431.188 100.812C430.906 100.234 430.5 99.8359 429.969 99.6172C429.438 99.3828 428.789 99.2656 428.023 99.2656C427.102 99.2656 426.352 99.4219 425.773 99.7344C425.195 100.047 424.75 100.484 424.438 101.047C424.141 101.594 423.938 102.242 423.828 102.992C423.719 103.742 423.664 104.562 423.664 105.453ZM451.742 116.023L458.305 93.6406H466.789L456.594 122.773C456.375 123.414 456.086 124.102 455.727 124.836C455.367 125.586 454.875 126.297 454.25 126.969C453.625 127.641 452.82 128.188 451.836 128.609C450.867 129.031 449.664 129.242 448.227 129.242C447.461 129.242 446.898 129.203 446.539 129.125C446.195 129.062 445.664 128.945 444.945 128.773V123.125C445.148 123.125 445.32 123.125 445.461 123.125C445.617 123.125 445.789 123.125 445.977 123.125C446.82 123.125 447.492 123.039 447.992 122.867C448.508 122.695 448.898 122.445 449.164 122.117C449.445 121.789 449.664 121.391 449.82 120.922L451.742 116.023ZM450.078 93.6406L455.07 111.383L455.938 119.75H450.641L441.617 93.6406H450.078Z" fill="black"/>
<path d="M1134 0H1348C1356.28 0 1363 6.71573 1363 15V148C1363 156.284 1356.28 163 1348 163H1134V0Z" fill="#006624"/>
<path d="M1234.26 103.786H1262.74V109.357H1234.26V103.786ZM1239.96 114.929H1257.04V120.5H1239.96V114.929ZM1248.5 42.5C1240.95 42.5 1233.71 45.4349 1228.37 50.6592C1223.03 55.8834 1220.03 62.969 1220.03 70.3571C1219.84 74.4057 1220.63 78.4412 1222.34 82.1315C1224.05 85.8219 1226.64 89.0616 1229.88 91.5843C1232.73 94.175 1234.26 95.6514 1234.26 98.2143H1239.96C1239.96 93.0886 1236.8 90.2193 1233.72 87.4614C1231.06 85.4676 1228.94 82.8658 1227.55 79.8838C1226.15 76.9019 1225.53 73.6308 1225.72 70.3571C1225.72 64.4466 1228.12 58.7781 1232.39 54.5988C1236.67 50.4194 1242.46 48.0714 1248.5 48.0714C1254.54 48.0714 1260.33 50.4194 1264.61 54.5988C1268.88 58.7781 1271.28 64.4466 1271.28 70.3571C1271.47 73.6333 1270.84 76.9059 1269.44 79.888C1268.04 82.8701 1265.92 85.4706 1263.25 87.4614C1260.2 90.2471 1257.04 93.0329 1257.04 98.2143H1262.74C1262.74 95.6514 1264.25 94.175 1267.12 91.5564C1270.36 89.0381 1272.94 85.8031 1274.66 82.1176C1276.37 78.4321 1277.16 74.4014 1276.97 70.3571C1276.97 66.6989 1276.24 63.0765 1274.81 59.6967C1273.37 56.3169 1271.28 53.2459 1268.63 50.6592C1265.99 48.0724 1262.85 46.0205 1259.4 44.6205C1255.94 43.2205 1252.24 42.5 1248.5 42.5Z" fill="white"/>
</svg>
