<svg width="1363" height="122" viewBox="0 0 1363 122" fill="none" xmlns="http://www.w3.org/2000/svg">
<rect width="1134" height="122" fill="#F0F0F0"/>
<path d="M67.3438 43.875V78H59.1406V43.875H67.3438ZM80.7266 58.0078V78H72.8281V52.6406H80.2344L80.7266 58.0078ZM79.7656 64.4531L77.9609 64.5C77.9609 62.7188 78.1719 61.0781 78.5938 59.5781C79.0156 58.0781 79.6406 56.7734 80.4688 55.6641C81.2969 54.5547 82.3125 53.6953 83.5156 53.0859C84.7344 52.4766 86.1406 52.1719 87.7344 52.1719C88.8438 52.1719 89.8516 52.3438 90.7578 52.6875C91.6641 53.0156 92.4453 53.5391 93.1016 54.2578C93.7578 54.9609 94.2578 55.8828 94.6016 57.0234C94.9609 58.1484 95.1406 59.5 95.1406 61.0781V78H87.2422V62.0859C87.2422 61.0078 87.1172 60.1953 86.8672 59.6484C86.6328 59.1016 86.2891 58.7344 85.8359 58.5469C85.3828 58.3594 84.8281 58.2656 84.1719 58.2656C83.4844 58.2656 82.8672 58.4219 82.3203 58.7344C81.7734 59.0469 81.3047 59.4844 80.9141 60.0469C80.5391 60.5938 80.25 61.2422 80.0469 61.9922C79.8594 62.7422 79.7656 63.5625 79.7656 64.4531ZM94.25 64.4531L92.0469 64.5C92.0469 62.7188 92.2422 61.0781 92.6328 59.5781C93.0391 58.0781 93.6406 56.7734 94.4375 55.6641C95.25 54.5547 96.2578 53.6953 97.4609 53.0859C98.6641 52.4766 100.062 52.1719 101.656 52.1719C102.812 52.1719 103.875 52.3438 104.844 52.6875C105.812 53.0312 106.648 53.5859 107.352 54.3516C108.055 55.1172 108.602 56.1328 108.992 57.3984C109.383 58.6484 109.578 60.1953 109.578 62.0391V78H101.656V62.0391C101.656 60.9922 101.531 60.2031 101.281 59.6719C101.047 59.125 100.703 58.7578 100.25 58.5703C99.7969 58.3672 99.2578 58.2656 98.6328 58.2656C97.8828 58.2656 97.2344 58.4219 96.6875 58.7344C96.1406 59.0469 95.6797 59.4844 95.3047 60.0469C94.9453 60.5938 94.6797 61.2422 94.5078 61.9922C94.3359 62.7422 94.25 63.5625 94.25 64.4531ZM122.07 57.5156V87.75H114.172V52.6406H121.531L122.07 57.5156ZM137.633 65.0156V65.5078C137.633 67.3516 137.422 69.0625 137 70.6406C136.578 72.2188 135.953 73.5938 135.125 74.7656C134.297 75.9375 133.266 76.8516 132.031 77.5078C130.812 78.1484 129.398 78.4688 127.789 78.4688C126.273 78.4688 124.969 78.1328 123.875 77.4609C122.781 76.7891 121.867 75.8594 121.133 74.6719C120.398 73.4844 119.805 72.125 119.352 70.5938C118.898 69.0625 118.539 67.4453 118.273 65.7422V65.1094C118.539 63.2812 118.898 61.5859 119.352 60.0234C119.805 58.4453 120.398 57.0703 121.133 55.8984C121.867 54.7266 122.773 53.8125 123.852 53.1562C124.945 52.5 126.25 52.1719 127.766 52.1719C129.375 52.1719 130.789 52.4766 132.008 53.0859C133.242 53.6953 134.273 54.5703 135.102 55.7109C135.945 56.8359 136.578 58.1875 137 59.7656C137.422 61.3438 137.633 63.0938 137.633 65.0156ZM129.734 65.5078V65.0156C129.734 64.0312 129.664 63.1328 129.523 62.3203C129.383 61.4922 129.156 60.7734 128.844 60.1641C128.547 59.5547 128.148 59.0859 127.648 58.7578C127.148 58.4297 126.531 58.2656 125.797 58.2656C124.953 58.2656 124.242 58.3984 123.664 58.6641C123.102 58.9141 122.648 59.3047 122.305 59.8359C121.977 60.3516 121.742 61 121.602 61.7812C121.477 62.5469 121.422 63.4453 121.438 64.4766V66.3984C121.406 67.5859 121.523 68.6328 121.789 69.5391C122.055 70.4297 122.516 71.125 123.172 71.625C123.828 72.125 124.719 72.375 125.844 72.375C126.594 72.375 127.219 72.2031 127.719 71.8594C128.219 71.5 128.617 71.0078 128.914 70.3828C129.211 69.7422 129.422 69.0078 129.547 68.1797C129.672 67.3516 129.734 66.4609 129.734 65.5078ZM149.492 42V78H141.57V42H149.492ZM166.648 78.4688C164.586 78.4688 162.742 78.1484 161.117 77.5078C159.492 76.8516 158.117 75.9531 156.992 74.8125C155.883 73.6719 155.031 72.3594 154.438 70.875C153.859 69.3906 153.57 67.8203 153.57 66.1641V65.2734C153.57 63.4141 153.828 61.6953 154.344 60.1172C154.859 58.5234 155.625 57.1328 156.641 55.9453C157.656 54.7578 158.93 53.8359 160.461 53.1797C161.992 52.5078 163.773 52.1719 165.805 52.1719C167.602 52.1719 169.211 52.4609 170.633 53.0391C172.055 53.6172 173.258 54.4453 174.242 55.5234C175.242 56.6016 176 57.9062 176.516 59.4375C177.047 60.9688 177.312 62.6875 177.312 64.5938V67.8047H156.594V62.8594H169.602V62.25C169.617 61.4062 169.469 60.6875 169.156 60.0938C168.859 59.5 168.422 59.0469 167.844 58.7344C167.266 58.4219 166.562 58.2656 165.734 58.2656C164.875 58.2656 164.164 58.4531 163.602 58.8281C163.055 59.2031 162.625 59.7188 162.312 60.375C162.016 61.0156 161.805 61.7578 161.68 62.6016C161.555 63.4453 161.492 64.3359 161.492 65.2734V66.1641C161.492 67.1016 161.617 67.9531 161.867 68.7188C162.133 69.4844 162.508 70.1406 162.992 70.6875C163.492 71.2188 164.086 71.6328 164.773 71.9297C165.477 72.2266 166.273 72.375 167.164 72.375C168.242 72.375 169.305 72.1719 170.352 71.7656C171.398 71.3594 172.297 70.6875 173.047 69.75L176.633 74.0156C176.117 74.75 175.383 75.4609 174.43 76.1484C173.492 76.8359 172.367 77.3984 171.055 77.8359C169.742 78.2578 168.273 78.4688 166.648 78.4688ZM188.492 58.0078V78H180.594V52.6406H188L188.492 58.0078ZM187.531 64.4531L185.727 64.5C185.727 62.7188 185.938 61.0781 186.359 59.5781C186.781 58.0781 187.406 56.7734 188.234 55.6641C189.062 54.5547 190.078 53.6953 191.281 53.0859C192.5 52.4766 193.906 52.1719 195.5 52.1719C196.609 52.1719 197.617 52.3438 198.523 52.6875C199.43 53.0156 200.211 53.5391 200.867 54.2578C201.523 54.9609 202.023 55.8828 202.367 57.0234C202.727 58.1484 202.906 59.5 202.906 61.0781V78H195.008V62.0859C195.008 61.0078 194.883 60.1953 194.633 59.6484C194.398 59.1016 194.055 58.7344 193.602 58.5469C193.148 58.3594 192.594 58.2656 191.938 58.2656C191.25 58.2656 190.633 58.4219 190.086 58.7344C189.539 59.0469 189.07 59.4844 188.68 60.0469C188.305 60.5938 188.016 61.2422 187.812 61.9922C187.625 62.7422 187.531 63.5625 187.531 64.4531ZM202.016 64.4531L199.812 64.5C199.812 62.7188 200.008 61.0781 200.398 59.5781C200.805 58.0781 201.406 56.7734 202.203 55.6641C203.016 54.5547 204.023 53.6953 205.227 53.0859C206.43 52.4766 207.828 52.1719 209.422 52.1719C210.578 52.1719 211.641 52.3438 212.609 52.6875C213.578 53.0312 214.414 53.5859 215.117 54.3516C215.82 55.1172 216.367 56.1328 216.758 57.3984C217.148 58.6484 217.344 60.1953 217.344 62.0391V78H209.422V62.0391C209.422 60.9922 209.297 60.2031 209.047 59.6719C208.812 59.125 208.469 58.7578 208.016 58.5703C207.562 58.3672 207.023 58.2656 206.398 58.2656C205.648 58.2656 205 58.4219 204.453 58.7344C203.906 59.0469 203.445 59.4844 203.07 60.0469C202.711 60.5938 202.445 61.2422 202.273 61.9922C202.102 62.7422 202.016 63.5625 202.016 64.4531ZM234.148 78.4688C232.086 78.4688 230.242 78.1484 228.617 77.5078C226.992 76.8516 225.617 75.9531 224.492 74.8125C223.383 73.6719 222.531 72.3594 221.938 70.875C221.359 69.3906 221.07 67.8203 221.07 66.1641V65.2734C221.07 63.4141 221.328 61.6953 221.844 60.1172C222.359 58.5234 223.125 57.1328 224.141 55.9453C225.156 54.7578 226.43 53.8359 227.961 53.1797C229.492 52.5078 231.273 52.1719 233.305 52.1719C235.102 52.1719 236.711 52.4609 238.133 53.0391C239.555 53.6172 240.758 54.4453 241.742 55.5234C242.742 56.6016 243.5 57.9062 244.016 59.4375C244.547 60.9688 244.812 62.6875 244.812 64.5938V67.8047H224.094V62.8594H237.102V62.25C237.117 61.4062 236.969 60.6875 236.656 60.0938C236.359 59.5 235.922 59.0469 235.344 58.7344C234.766 58.4219 234.062 58.2656 233.234 58.2656C232.375 58.2656 231.664 58.4531 231.102 58.8281C230.555 59.2031 230.125 59.7188 229.812 60.375C229.516 61.0156 229.305 61.7578 229.18 62.6016C229.055 63.4453 228.992 64.3359 228.992 65.2734V66.1641C228.992 67.1016 229.117 67.9531 229.367 68.7188C229.633 69.4844 230.008 70.1406 230.492 70.6875C230.992 71.2188 231.586 71.6328 232.273 71.9297C232.977 72.2266 233.773 72.375 234.664 72.375C235.742 72.375 236.805 72.1719 237.852 71.7656C238.898 71.3594 239.797 70.6875 240.547 69.75L244.133 74.0156C243.617 74.75 242.883 75.4609 241.93 76.1484C240.992 76.8359 239.867 77.3984 238.555 77.8359C237.242 78.2578 235.773 78.4688 234.148 78.4688ZM255.781 58.0547V78H247.883V52.6406H255.289L255.781 58.0547ZM254.844 64.4531L252.992 64.5C252.992 62.5625 253.227 60.8359 253.695 59.3203C254.164 57.7891 254.828 56.4922 255.688 55.4297C256.547 54.3672 257.57 53.5625 258.758 53.0156C259.961 52.4531 261.297 52.1719 262.766 52.1719C263.938 52.1719 265.008 52.3438 265.977 52.6875C266.961 53.0312 267.805 53.5859 268.508 54.3516C269.227 55.1172 269.773 56.1328 270.148 57.3984C270.539 58.6484 270.734 60.1953 270.734 62.0391V78H262.789V62.0156C262.789 61 262.648 60.2266 262.367 59.6953C262.086 59.1484 261.68 58.7734 261.148 58.5703C260.617 58.3672 259.969 58.2656 259.203 58.2656C258.391 58.2656 257.703 58.4219 257.141 58.7344C256.578 59.0469 256.125 59.4844 255.781 60.0469C255.453 60.5938 255.211 61.2422 255.055 61.9922C254.914 62.7422 254.844 63.5625 254.844 64.4531ZM288.477 52.6406V58.125H273.195V52.6406H288.477ZM276.406 46.3359H284.305V69.7266C284.305 70.3984 284.383 70.9219 284.539 71.2969C284.695 71.6562 284.961 71.9141 285.336 72.0703C285.727 72.2109 286.242 72.2812 286.883 72.2812C287.336 72.2812 287.711 72.2734 288.008 72.2578C288.305 72.2266 288.586 72.1875 288.852 72.1406V77.7891C288.18 78.0078 287.477 78.1719 286.742 78.2812C286.008 78.4062 285.227 78.4688 284.398 78.4688C282.711 78.4688 281.266 78.2031 280.062 77.6719C278.875 77.1406 277.969 76.3047 277.344 75.1641C276.719 74.0234 276.406 72.5391 276.406 70.7109V46.3359ZM304.789 71.625V61.1719C304.789 60.4531 304.688 59.8359 304.484 59.3203C304.281 58.8047 303.961 58.4062 303.523 58.125C303.086 57.8281 302.5 57.6797 301.766 57.6797C301.172 57.6797 300.664 57.7812 300.242 57.9844C299.82 58.1875 299.5 58.4922 299.281 58.8984C299.062 59.3047 298.953 59.8203 298.953 60.4453H291.055C291.055 59.2734 291.312 58.1875 291.828 57.1875C292.359 56.1719 293.109 55.2891 294.078 54.5391C295.062 53.7891 296.234 53.2109 297.594 52.8047C298.969 52.3828 300.5 52.1719 302.188 52.1719C304.203 52.1719 306 52.5078 307.578 53.1797C309.172 53.8516 310.43 54.8594 311.352 56.2031C312.273 57.5312 312.734 59.2031 312.734 61.2188V71.6016C312.734 73.2578 312.828 74.5156 313.016 75.375C313.203 76.2188 313.469 76.9609 313.812 77.6016V78H305.891C305.516 77.2188 305.234 76.2656 305.047 75.1406C304.875 74 304.789 72.8281 304.789 71.625ZM305.75 62.5078L305.797 66.7266H302.305C301.57 66.7266 300.945 66.8281 300.43 67.0312C299.93 67.2344 299.523 67.5156 299.211 67.875C298.914 68.2188 298.695 68.6094 298.555 69.0469C298.43 69.4844 298.367 69.9453 298.367 70.4297C298.367 70.8984 298.477 71.3203 298.695 71.6953C298.93 72.0547 299.242 72.3359 299.633 72.5391C300.023 72.7422 300.461 72.8438 300.945 72.8438C301.82 72.8438 302.562 72.6797 303.172 72.3516C303.797 72.0078 304.273 71.5938 304.602 71.1094C304.93 70.625 305.094 70.1719 305.094 69.75L306.828 72.9844C306.516 73.6094 306.156 74.2422 305.75 74.8828C305.359 75.5234 304.867 76.1172 304.273 76.6641C303.695 77.1953 302.984 77.6328 302.141 77.9766C301.297 78.3047 300.273 78.4688 299.07 78.4688C297.508 78.4688 296.07 78.1484 294.758 77.5078C293.461 76.8672 292.422 75.9766 291.641 74.8359C290.859 73.6797 290.469 72.3516 290.469 70.8516C290.469 69.5391 290.703 68.3672 291.172 67.3359C291.656 66.3047 292.383 65.4297 293.352 64.7109C294.32 63.9922 295.555 63.4453 297.055 63.0703C298.555 62.6953 300.32 62.5078 302.352 62.5078H305.75ZM330.477 52.6406V58.125H315.195V52.6406H330.477ZM318.406 46.3359H326.305V69.7266C326.305 70.3984 326.383 70.9219 326.539 71.2969C326.695 71.6562 326.961 71.9141 327.336 72.0703C327.727 72.2109 328.242 72.2812 328.883 72.2812C329.336 72.2812 329.711 72.2734 330.008 72.2578C330.305 72.2266 330.586 72.1875 330.852 72.1406V77.7891C330.18 78.0078 329.477 78.1719 328.742 78.2812C328.008 78.4062 327.227 78.4688 326.398 78.4688C324.711 78.4688 323.266 78.2031 322.062 77.6719C320.875 77.1406 319.969 76.3047 319.344 75.1641C318.719 74.0234 318.406 72.5391 318.406 70.7109V46.3359ZM341.961 52.6406V78H334.039V52.6406H341.961ZM333.57 46.1016C333.57 44.9766 333.977 44.0547 334.789 43.3359C335.602 42.6172 336.656 42.2578 337.953 42.2578C339.25 42.2578 340.305 42.6172 341.117 43.3359C341.93 44.0547 342.336 44.9766 342.336 46.1016C342.336 47.2266 341.93 48.1484 341.117 48.8672C340.305 49.5859 339.25 49.9453 337.953 49.9453C336.656 49.9453 335.602 49.5859 334.789 48.8672C333.977 48.1484 333.57 47.2266 333.57 46.1016ZM345.852 65.5781V65.0859C345.852 63.2266 346.117 61.5156 346.648 59.9531C347.18 58.375 347.961 57.0078 348.992 55.8516C350.023 54.6953 351.297 53.7969 352.812 53.1562C354.328 52.5 356.078 52.1719 358.062 52.1719C360.062 52.1719 361.82 52.5 363.336 53.1562C364.867 53.7969 366.148 54.6953 367.18 55.8516C368.211 57.0078 368.992 58.375 369.523 59.9531C370.055 61.5156 370.32 63.2266 370.32 65.0859V65.5781C370.32 67.4219 370.055 69.1328 369.523 70.7109C368.992 72.2734 368.211 73.6406 367.18 74.8125C366.148 75.9688 364.875 76.8672 363.359 77.5078C361.844 78.1484 360.094 78.4688 358.109 78.4688C356.125 78.4688 354.367 78.1484 352.836 77.5078C351.305 76.8672 350.023 75.9688 348.992 74.8125C347.961 73.6406 347.18 72.2734 346.648 70.7109C346.117 69.1328 345.852 67.4219 345.852 65.5781ZM353.75 65.0859V65.5781C353.75 66.5312 353.82 67.4219 353.961 68.25C354.102 69.0781 354.336 69.8047 354.664 70.4297C354.992 71.0391 355.438 71.5156 356 71.8594C356.562 72.2031 357.266 72.375 358.109 72.375C358.938 72.375 359.625 72.2031 360.172 71.8594C360.734 71.5156 361.18 71.0391 361.508 70.4297C361.836 69.8047 362.07 69.0781 362.211 68.25C362.352 67.4219 362.422 66.5312 362.422 65.5781V65.0859C362.422 64.1641 362.352 63.2969 362.211 62.4844C362.07 61.6562 361.836 60.9297 361.508 60.3047C361.18 59.6641 360.734 59.1641 360.172 58.8047C359.609 58.4453 358.906 58.2656 358.062 58.2656C357.234 58.2656 356.539 58.4453 355.977 58.8047C355.43 59.1641 354.992 59.6641 354.664 60.3047C354.336 60.9297 354.102 61.6562 353.961 62.4844C353.82 63.2969 353.75 64.1641 353.75 65.0859ZM381.594 58.0547V78H373.695V52.6406H381.102L381.594 58.0547ZM380.656 64.4531L378.805 64.5C378.805 62.5625 379.039 60.8359 379.508 59.3203C379.977 57.7891 380.641 56.4922 381.5 55.4297C382.359 54.3672 383.383 53.5625 384.57 53.0156C385.773 52.4531 387.109 52.1719 388.578 52.1719C389.75 52.1719 390.82 52.3438 391.789 52.6875C392.773 53.0312 393.617 53.5859 394.32 54.3516C395.039 55.1172 395.586 56.1328 395.961 57.3984C396.352 58.6484 396.547 60.1953 396.547 62.0391V78H388.602V62.0156C388.602 61 388.461 60.2266 388.18 59.6953C387.898 59.1484 387.492 58.7734 386.961 58.5703C386.43 58.3672 385.781 58.2656 385.016 58.2656C384.203 58.2656 383.516 58.4219 382.953 58.7344C382.391 59.0469 381.938 59.4844 381.594 60.0469C381.266 60.5938 381.023 61.2422 380.867 61.9922C380.727 62.7422 380.656 63.5625 380.656 64.4531Z" fill="black"/>
<path d="M1134 0H1348C1356.28 0 1363 6.71573 1363 15V107C1363 115.284 1356.28 122 1348 122H1134V0Z" fill="#006624"/>
<path d="M1281 26H1216L1213.5 28.5V93.5L1216 96H1281L1283.5 93.5V28.5L1281 26ZM1278.5 91H1233.5V81H1245C1246.5 84 1250 86 1253.5 86C1259 86 1263.5 81.5 1263.5 76C1263.5 70.5 1259 66 1253.5 66C1248 66 1243.5 70.5 1243.5 76H1228.5V91H1218.5V31H1228.5V42.5C1225.5 44 1223.5 47.5 1223.5 51C1223.5 56.5 1228 61 1233.5 61C1239 61 1243.5 56.5 1243.5 51H1253.5C1253.5 56.5 1258 61 1263.5 61C1269 61 1273.5 56.5 1273.5 51C1273.5 45.5 1269 41 1263.5 41C1260 41 1256.5 43 1255 46H1242C1240.5 43 1237 41 1233.5 41V31H1278.5V91ZM1248.5 76C1248.5 73 1250.5 71 1253.5 71C1256.5 71 1258.5 73 1258.5 76C1258.5 79 1256.5 81 1253.5 81C1250.5 81 1248.5 79 1248.5 76ZM1233.5 46C1236.5 46 1238.5 48 1238.5 51C1238.5 54 1236.5 56 1233.5 56C1230.5 56 1228.5 54 1228.5 51C1228.5 48 1230.5 46 1233.5 46ZM1263.5 46C1266.5 46 1268.5 48 1268.5 51C1268.5 54 1266.5 56 1263.5 56C1260.5 56 1258.5 54 1258.5 51C1258.5 48 1260.5 46 1263.5 46Z" fill="white"/>
</svg>
