<svg width="1363" height="163" viewBox="0 0 1363 163" fill="none" xmlns="http://www.w3.org/2000/svg">
<path d="M0 15C0 6.71573 6.71573 0 15 0H37V163H15C6.71573 163 0 156.284 0 148V15Z" fill="#424242"/>
<rect width="1097" height="163" transform="translate(37)" fill="#F0F0F0"/>
<path d="M101.906 53.9219L94.3945 51.2383V48.0859L104.602 52.375V54.6367L101.906 53.9219ZM94.3945 56.1719L101.918 53.4297L104.602 52.7852V55.0352L94.3945 59.3242V56.1719ZM126.422 52.082V58.8438C126.156 59.1641 125.746 59.5117 125.191 59.8867C124.637 60.2539 123.922 60.5703 123.047 60.8359C122.172 61.1016 121.113 61.2344 119.871 61.2344C118.77 61.2344 117.766 61.0547 116.859 60.6953C115.953 60.3281 115.172 59.793 114.516 59.0898C113.867 58.3867 113.367 57.5273 113.016 56.5117C112.664 55.4883 112.488 54.3203 112.488 53.0078V51.9414C112.488 50.6289 112.656 49.4609 112.992 48.4375C113.336 47.4141 113.824 46.5508 114.457 45.8477C115.09 45.1445 115.844 44.6094 116.719 44.2422C117.594 43.875 118.566 43.6914 119.637 43.6914C121.121 43.6914 122.34 43.9336 123.293 44.418C124.246 44.8945 124.973 45.5586 125.473 46.4102C125.98 47.2539 126.293 48.2227 126.41 49.3164H123C122.914 48.7383 122.75 48.2344 122.508 47.8047C122.266 47.375 121.918 47.0391 121.465 46.7969C121.02 46.5547 120.441 46.4336 119.73 46.4336C119.145 46.4336 118.621 46.5547 118.16 46.7969C117.707 47.0312 117.324 47.3789 117.012 47.8398C116.699 48.3008 116.461 48.8711 116.297 49.5508C116.133 50.2305 116.051 51.0195 116.051 51.918V53.0078C116.051 53.8984 116.137 54.6875 116.309 55.375C116.48 56.0547 116.734 56.6289 117.07 57.0977C117.414 57.5586 117.836 57.9062 118.336 58.1406C118.836 58.375 119.418 58.4922 120.082 58.4922C120.637 58.4922 121.098 58.4453 121.465 58.3516C121.84 58.2578 122.141 58.1445 122.367 58.0117C122.602 57.8711 122.781 57.7383 122.906 57.6133V54.5898H119.695V52.082H126.422ZM132.422 51.0859V61H129.047V48.3203H132.223L132.422 51.0859ZM136.242 48.2383L136.184 51.3672C136.02 51.3438 135.82 51.3242 135.586 51.3086C135.359 51.2852 135.152 51.2734 134.965 51.2734C134.488 51.2734 134.074 51.3359 133.723 51.4609C133.379 51.5781 133.09 51.7539 132.855 51.9883C132.629 52.2227 132.457 52.5078 132.34 52.8438C132.23 53.1797 132.168 53.5625 132.152 53.9922L131.473 53.7812C131.473 52.9609 131.555 52.207 131.719 51.5195C131.883 50.8242 132.121 50.2188 132.434 49.7031C132.754 49.1875 133.145 48.7891 133.605 48.5078C134.066 48.2266 134.594 48.0859 135.188 48.0859C135.375 48.0859 135.566 48.1016 135.762 48.1328C135.957 48.1562 136.117 48.1914 136.242 48.2383ZM143.438 61.2344C142.453 61.2344 141.57 61.0781 140.789 60.7656C140.008 60.4453 139.344 60.0039 138.797 59.4414C138.258 58.8789 137.844 58.2266 137.555 57.4844C137.266 56.7344 137.121 55.9375 137.121 55.0938V54.625C137.121 53.6641 137.258 52.7852 137.531 51.9883C137.805 51.1914 138.195 50.5 138.703 49.9141C139.219 49.3281 139.844 48.8789 140.578 48.5664C141.312 48.2461 142.141 48.0859 143.062 48.0859C143.961 48.0859 144.758 48.2344 145.453 48.5312C146.148 48.8281 146.73 49.25 147.199 49.7969C147.676 50.3438 148.035 51 148.277 51.7656C148.52 52.5234 148.641 53.3672 148.641 54.2969V55.7031H138.562V53.4531H145.324V53.1953C145.324 52.7266 145.238 52.3086 145.066 51.9414C144.902 51.5664 144.652 51.2695 144.316 51.0508C143.98 50.832 143.551 50.7227 143.027 50.7227C142.582 50.7227 142.199 50.8203 141.879 51.0156C141.559 51.2109 141.297 51.4844 141.094 51.8359C140.898 52.1875 140.75 52.6016 140.648 53.0781C140.555 53.5469 140.508 54.0625 140.508 54.625V55.0938C140.508 55.6016 140.578 56.0703 140.719 56.5C140.867 56.9297 141.074 57.3008 141.34 57.6133C141.613 57.9258 141.941 58.168 142.324 58.3398C142.715 58.5117 143.156 58.5977 143.648 58.5977C144.258 58.5977 144.824 58.4805 145.348 58.2461C145.879 58.0039 146.336 57.6406 146.719 57.1562L148.359 58.9375C148.094 59.3203 147.73 59.6875 147.27 60.0391C146.816 60.3906 146.27 60.6797 145.629 60.9062C144.988 61.125 144.258 61.2344 143.438 61.2344ZM156.398 61.2344C155.414 61.2344 154.531 61.0781 153.75 60.7656C152.969 60.4453 152.305 60.0039 151.758 59.4414C151.219 58.8789 150.805 58.2266 150.516 57.4844C150.227 56.7344 150.082 55.9375 150.082 55.0938V54.625C150.082 53.6641 150.219 52.7852 150.492 51.9883C150.766 51.1914 151.156 50.5 151.664 49.9141C152.18 49.3281 152.805 48.8789 153.539 48.5664C154.273 48.2461 155.102 48.0859 156.023 48.0859C156.922 48.0859 157.719 48.2344 158.414 48.5312C159.109 48.8281 159.691 49.25 160.16 49.7969C160.637 50.3438 160.996 51 161.238 51.7656C161.48 52.5234 161.602 53.3672 161.602 54.2969V55.7031H151.523V53.4531H158.285V53.1953C158.285 52.7266 158.199 52.3086 158.027 51.9414C157.863 51.5664 157.613 51.2695 157.277 51.0508C156.941 50.832 156.512 50.7227 155.988 50.7227C155.543 50.7227 155.16 50.8203 154.84 51.0156C154.52 51.2109 154.258 51.4844 154.055 51.8359C153.859 52.1875 153.711 52.6016 153.609 53.0781C153.516 53.5469 153.469 54.0625 153.469 54.625V55.0938C153.469 55.6016 153.539 56.0703 153.68 56.5C153.828 56.9297 154.035 57.3008 154.301 57.6133C154.574 57.9258 154.902 58.168 155.285 58.3398C155.676 58.5117 156.117 58.5977 156.609 58.5977C157.219 58.5977 157.785 58.4805 158.309 58.2461C158.84 58.0039 159.297 57.6406 159.68 57.1562L161.32 58.9375C161.055 59.3203 160.691 59.6875 160.23 60.0391C159.777 60.3906 159.23 60.6797 158.59 60.9062C157.949 61.125 157.219 61.2344 156.398 61.2344ZM166.828 51.0273V61H163.453V48.3203H166.617L166.828 51.0273ZM166.336 54.2148H165.422C165.422 53.2773 165.543 52.4336 165.785 51.6836C166.027 50.9258 166.367 50.2812 166.805 49.75C167.242 49.2109 167.762 48.8008 168.363 48.5195C168.973 48.2305 169.652 48.0859 170.402 48.0859C170.996 48.0859 171.539 48.1719 172.031 48.3438C172.523 48.5156 172.945 48.7891 173.297 49.1641C173.656 49.5391 173.93 50.0352 174.117 50.6523C174.312 51.2695 174.41 52.0234 174.41 52.9141V61H171.012V52.9023C171.012 52.3398 170.934 51.9023 170.777 51.5898C170.621 51.2773 170.391 51.0586 170.086 50.9336C169.789 50.8008 169.422 50.7344 168.984 50.7344C168.531 50.7344 168.137 50.8242 167.801 51.0039C167.473 51.1836 167.199 51.4336 166.98 51.7539C166.77 52.0664 166.609 52.4336 166.5 52.8555C166.391 53.2773 166.336 53.7305 166.336 54.2148ZM194.543 50.8867V53.6289H185.637V50.8867H194.543ZM186.68 43.9375V61H183.164V43.9375H186.68ZM197.051 43.9375V61H193.547V43.9375H197.051ZM206.742 58.1406V52.4922C206.742 52.0859 206.676 51.7383 206.543 51.4492C206.41 51.1523 206.203 50.9219 205.922 50.7578C205.648 50.5938 205.293 50.5117 204.855 50.5117C204.48 50.5117 204.156 50.5781 203.883 50.7109C203.609 50.8359 203.398 51.0195 203.25 51.2617C203.102 51.4961 203.027 51.7734 203.027 52.0938H199.652C199.652 51.5547 199.777 51.043 200.027 50.5586C200.277 50.0742 200.641 49.6484 201.117 49.2812C201.594 48.9062 202.16 48.6133 202.816 48.4023C203.48 48.1914 204.223 48.0859 205.043 48.0859C206.027 48.0859 206.902 48.25 207.668 48.5781C208.434 48.9062 209.035 49.3984 209.473 50.0547C209.918 50.7109 210.141 51.5312 210.141 52.5156V57.9414C210.141 58.6367 210.184 59.207 210.27 59.6523C210.355 60.0898 210.48 60.4727 210.645 60.8008V61H207.234C207.07 60.6562 206.945 60.2266 206.859 59.7109C206.781 59.1875 206.742 58.6641 206.742 58.1406ZM207.188 53.2773L207.211 55.1875H205.324C204.879 55.1875 204.492 55.2383 204.164 55.3398C203.836 55.4414 203.566 55.5859 203.355 55.7734C203.145 55.9531 202.988 56.1641 202.887 56.4062C202.793 56.6484 202.746 56.9141 202.746 57.2031C202.746 57.4922 202.812 57.7539 202.945 57.9883C203.078 58.2148 203.27 58.3945 203.52 58.5273C203.77 58.6523 204.062 58.7148 204.398 58.7148C204.906 58.7148 205.348 58.6133 205.723 58.4102C206.098 58.207 206.387 57.957 206.59 57.6602C206.801 57.3633 206.91 57.082 206.918 56.8164L207.809 58.2461C207.684 58.5664 207.512 58.8984 207.293 59.2422C207.082 59.5859 206.812 59.9102 206.484 60.2148C206.156 60.5117 205.762 60.7578 205.301 60.9531C204.84 61.1406 204.293 61.2344 203.66 61.2344C202.855 61.2344 202.125 61.0742 201.469 60.7539C200.82 60.4258 200.305 59.9766 199.922 59.4062C199.547 58.8281 199.359 58.1719 199.359 57.4375C199.359 56.7734 199.484 56.1836 199.734 55.668C199.984 55.1523 200.352 54.7188 200.836 54.3672C201.328 54.0078 201.941 53.7383 202.676 53.5586C203.41 53.3711 204.262 53.2773 205.23 53.2773H207.188ZM216.867 58.5391L219.68 48.3203H223.207L218.93 61H216.797L216.867 58.5391ZM214.934 48.3203L217.758 58.5508L217.816 61H215.672L211.395 48.3203H214.934ZM230.391 61.2344C229.406 61.2344 228.523 61.0781 227.742 60.7656C226.961 60.4453 226.297 60.0039 225.75 59.4414C225.211 58.8789 224.797 58.2266 224.508 57.4844C224.219 56.7344 224.074 55.9375 224.074 55.0938V54.625C224.074 53.6641 224.211 52.7852 224.484 51.9883C224.758 51.1914 225.148 50.5 225.656 49.9141C226.172 49.3281 226.797 48.8789 227.531 48.5664C228.266 48.2461 229.094 48.0859 230.016 48.0859C230.914 48.0859 231.711 48.2344 232.406 48.5312C233.102 48.8281 233.684 49.25 234.152 49.7969C234.629 50.3438 234.988 51 235.23 51.7656C235.473 52.5234 235.594 53.3672 235.594 54.2969V55.7031H225.516V53.4531H232.277V53.1953C232.277 52.7266 232.191 52.3086 232.02 51.9414C231.855 51.5664 231.605 51.2695 231.27 51.0508C230.934 50.832 230.504 50.7227 229.98 50.7227C229.535 50.7227 229.152 50.8203 228.832 51.0156C228.512 51.2109 228.25 51.4844 228.047 51.8359C227.852 52.1875 227.703 52.6016 227.602 53.0781C227.508 53.5469 227.461 54.0625 227.461 54.625V55.0938C227.461 55.6016 227.531 56.0703 227.672 56.5C227.82 56.9297 228.027 57.3008 228.293 57.6133C228.566 57.9258 228.895 58.168 229.277 58.3398C229.668 58.5117 230.109 58.5977 230.602 58.5977C231.211 58.5977 231.777 58.4805 232.301 58.2461C232.832 58.0039 233.289 57.6406 233.672 57.1562L235.312 58.9375C235.047 59.3203 234.684 59.6875 234.223 60.0391C233.77 60.3906 233.223 60.6797 232.582 60.9062C231.941 61.125 231.211 61.2344 230.391 61.2344ZM240.82 51.0273V61H237.445V48.3203H240.609L240.82 51.0273ZM240.328 54.2148H239.414C239.414 53.2773 239.535 52.4336 239.777 51.6836C240.02 50.9258 240.359 50.2812 240.797 49.75C241.234 49.2109 241.754 48.8008 242.355 48.5195C242.965 48.2305 243.645 48.0859 244.395 48.0859C244.988 48.0859 245.531 48.1719 246.023 48.3438C246.516 48.5156 246.938 48.7891 247.289 49.1641C247.648 49.5391 247.922 50.0352 248.109 50.6523C248.305 51.2695 248.402 52.0234 248.402 52.9141V61H245.004V52.9023C245.004 52.3398 244.926 51.9023 244.77 51.5898C244.613 51.2773 244.383 51.0586 244.078 50.9336C243.781 50.8008 243.414 50.7344 242.977 50.7344C242.523 50.7344 242.129 50.8242 241.793 51.0039C241.465 51.1836 241.191 51.4336 240.973 51.7539C240.762 52.0664 240.602 52.4336 240.492 52.8555C240.383 53.2773 240.328 53.7305 240.328 54.2148Z" fill="#888888"/>
<path d="M114.117 84.875H122.344V107.164C122.344 109.82 121.789 112.07 120.68 113.914C119.57 115.742 118.016 117.125 116.016 118.062C114.016 119 111.664 119.469 108.961 119.469C106.289 119.469 103.938 119 101.906 118.062C99.8906 117.125 98.3125 115.742 97.1719 113.914C96.0469 112.07 95.4844 109.82 95.4844 107.164V84.875H103.734V107.164C103.734 108.57 103.938 109.719 104.344 110.609C104.75 111.484 105.344 112.125 106.125 112.531C106.906 112.938 107.852 113.141 108.961 113.141C110.086 113.141 111.031 112.938 111.797 112.531C112.562 112.125 113.141 111.484 113.531 110.609C113.922 109.719 114.117 108.57 114.117 107.164V84.875ZM134.906 99.0547V119H127.008V93.6406H134.414L134.906 99.0547ZM133.969 105.453L132.117 105.5C132.117 103.562 132.352 101.836 132.82 100.32C133.289 98.7891 133.953 97.4922 134.812 96.4297C135.672 95.3672 136.695 94.5625 137.883 94.0156C139.086 93.4531 140.422 93.1719 141.891 93.1719C143.062 93.1719 144.133 93.3438 145.102 93.6875C146.086 94.0312 146.93 94.5859 147.633 95.3516C148.352 96.1172 148.898 97.1328 149.273 98.3984C149.664 99.6484 149.859 101.195 149.859 103.039V119H141.914V103.016C141.914 102 141.773 101.227 141.492 100.695C141.211 100.148 140.805 99.7734 140.273 99.5703C139.742 99.3672 139.094 99.2656 138.328 99.2656C137.516 99.2656 136.828 99.4219 136.266 99.7344C135.703 100.047 135.25 100.484 134.906 101.047C134.578 101.594 134.336 102.242 134.18 102.992C134.039 103.742 133.969 104.562 133.969 105.453ZM162.586 93.6406V119H154.664V93.6406H162.586ZM154.195 87.1016C154.195 85.9766 154.602 85.0547 155.414 84.3359C156.227 83.6172 157.281 83.2578 158.578 83.2578C159.875 83.2578 160.93 83.6172 161.742 84.3359C162.555 85.0547 162.961 85.9766 162.961 87.1016C162.961 88.2266 162.555 89.1484 161.742 89.8672C160.93 90.5859 159.875 90.9453 158.578 90.9453C157.281 90.9453 156.227 90.5859 155.414 89.8672C154.602 89.1484 154.195 88.2266 154.195 87.1016ZM180.82 93.6406V99.125H165.539V93.6406H180.82ZM168.75 87.3359H176.648V110.727C176.648 111.398 176.727 111.922 176.883 112.297C177.039 112.656 177.305 112.914 177.68 113.07C178.07 113.211 178.586 113.281 179.227 113.281C179.68 113.281 180.055 113.273 180.352 113.258C180.648 113.227 180.93 113.188 181.195 113.141V118.789C180.523 119.008 179.82 119.172 179.086 119.281C178.352 119.406 177.57 119.469 176.742 119.469C175.055 119.469 173.609 119.203 172.406 118.672C171.219 118.141 170.312 117.305 169.688 116.164C169.062 115.023 168.75 113.539 168.75 111.711V87.3359ZM211.406 84.875V119H203.18V84.875H211.406ZM221.672 84.875V91.2266H193.148V84.875H221.672ZM234.961 119.469C232.898 119.469 231.055 119.148 229.43 118.508C227.805 117.852 226.43 116.953 225.305 115.812C224.195 114.672 223.344 113.359 222.75 111.875C222.172 110.391 221.883 108.82 221.883 107.164V106.273C221.883 104.414 222.141 102.695 222.656 101.117C223.172 99.5234 223.938 98.1328 224.953 96.9453C225.969 95.7578 227.242 94.8359 228.773 94.1797C230.305 93.5078 232.086 93.1719 234.117 93.1719C235.914 93.1719 237.523 93.4609 238.945 94.0391C240.367 94.6172 241.57 95.4453 242.555 96.5234C243.555 97.6016 244.312 98.9062 244.828 100.438C245.359 101.969 245.625 103.688 245.625 105.594V108.805H224.906V103.859H237.914V103.25C237.93 102.406 237.781 101.688 237.469 101.094C237.172 100.5 236.734 100.047 236.156 99.7344C235.578 99.4219 234.875 99.2656 234.047 99.2656C233.188 99.2656 232.477 99.4531 231.914 99.8281C231.367 100.203 230.938 100.719 230.625 101.375C230.328 102.016 230.117 102.758 229.992 103.602C229.867 104.445 229.805 105.336 229.805 106.273V107.164C229.805 108.102 229.93 108.953 230.18 109.719C230.445 110.484 230.82 111.141 231.305 111.688C231.805 112.219 232.398 112.633 233.086 112.93C233.789 113.227 234.586 113.375 235.477 113.375C236.555 113.375 237.617 113.172 238.664 112.766C239.711 112.359 240.609 111.688 241.359 110.75L244.945 115.016C244.43 115.75 243.695 116.461 242.742 117.148C241.805 117.836 240.68 118.398 239.367 118.836C238.055 119.258 236.586 119.469 234.961 119.469ZM262.125 111.875C262.125 111.438 261.977 111.062 261.68 110.75C261.398 110.422 260.898 110.125 260.18 109.859C259.461 109.578 258.453 109.297 257.156 109.016C255.922 108.75 254.758 108.398 253.664 107.961C252.586 107.523 251.641 106.992 250.828 106.367C250.016 105.742 249.375 105 248.906 104.141C248.453 103.281 248.227 102.297 248.227 101.188C248.227 100.109 248.453 99.0938 248.906 98.1406C249.375 97.1719 250.055 96.3203 250.945 95.5859C251.852 94.8359 252.953 94.25 254.25 93.8281C255.547 93.3906 257.023 93.1719 258.68 93.1719C260.961 93.1719 262.93 93.5234 264.586 94.2266C266.242 94.9141 267.516 95.8828 268.406 97.1328C269.312 98.3672 269.766 99.7969 269.766 101.422H261.867C261.867 100.781 261.758 100.234 261.539 99.7812C261.336 99.3281 261 98.9844 260.531 98.75C260.062 98.5 259.438 98.375 258.656 98.375C258.109 98.375 257.609 98.4766 257.156 98.6797C256.719 98.8828 256.367 99.1641 256.102 99.5234C255.836 99.8828 255.703 100.305 255.703 100.789C255.703 101.133 255.781 101.445 255.938 101.727C256.109 101.992 256.367 102.242 256.711 102.477C257.055 102.695 257.492 102.898 258.023 103.086C258.555 103.258 259.195 103.414 259.945 103.555C261.648 103.867 263.242 104.312 264.727 104.891C266.211 105.469 267.414 106.289 268.336 107.352C269.273 108.414 269.742 109.844 269.742 111.641C269.742 112.766 269.484 113.805 268.969 114.758C268.453 115.695 267.711 116.523 266.742 117.242C265.773 117.945 264.609 118.492 263.25 118.883C261.891 119.273 260.359 119.469 258.656 119.469C256.234 119.469 254.188 119.039 252.516 118.18C250.844 117.305 249.578 116.211 248.719 114.898C247.875 113.57 247.453 112.227 247.453 110.867H254.812C254.844 111.648 255.031 112.289 255.375 112.789C255.734 113.289 256.211 113.656 256.805 113.891C257.398 114.125 258.086 114.242 258.867 114.242C259.586 114.242 260.18 114.141 260.648 113.938C261.133 113.734 261.5 113.461 261.75 113.117C262 112.758 262.125 112.344 262.125 111.875ZM286.805 93.6406V99.125H271.523V93.6406H286.805ZM274.734 87.3359H282.633V110.727C282.633 111.398 282.711 111.922 282.867 112.297C283.023 112.656 283.289 112.914 283.664 113.07C284.055 113.211 284.57 113.281 285.211 113.281C285.664 113.281 286.039 113.273 286.336 113.258C286.633 113.227 286.914 113.188 287.18 113.141V118.789C286.508 119.008 285.805 119.172 285.07 119.281C284.336 119.406 283.555 119.469 282.727 119.469C281.039 119.469 279.594 119.203 278.391 118.672C277.203 118.141 276.297 117.305 275.672 116.164C275.047 115.023 274.734 113.539 274.734 111.711V87.3359ZM298.289 93.6406V119H290.367V93.6406H298.289ZM289.898 87.1016C289.898 85.9766 290.305 85.0547 291.117 84.3359C291.93 83.6172 292.984 83.2578 294.281 83.2578C295.578 83.2578 296.633 83.6172 297.445 84.3359C298.258 85.0547 298.664 85.9766 298.664 87.1016C298.664 88.2266 298.258 89.1484 297.445 89.8672C296.633 90.5859 295.578 90.9453 294.281 90.9453C292.984 90.9453 291.93 90.5859 291.117 89.8672C290.305 89.1484 289.898 88.2266 289.898 87.1016ZM310.922 99.0547V119H303.023V93.6406H310.43L310.922 99.0547ZM309.984 105.453L308.133 105.5C308.133 103.562 308.367 101.836 308.836 100.32C309.305 98.7891 309.969 97.4922 310.828 96.4297C311.688 95.3672 312.711 94.5625 313.898 94.0156C315.102 93.4531 316.438 93.1719 317.906 93.1719C319.078 93.1719 320.148 93.3438 321.117 93.6875C322.102 94.0312 322.945 94.5859 323.648 95.3516C324.367 96.1172 324.914 97.1328 325.289 98.3984C325.68 99.6484 325.875 101.195 325.875 103.039V119H317.93V103.016C317.93 102 317.789 101.227 317.508 100.695C317.227 100.148 316.82 99.7734 316.289 99.5703C315.758 99.3672 315.109 99.2656 314.344 99.2656C313.531 99.2656 312.844 99.4219 312.281 99.7344C311.719 100.047 311.266 100.484 310.922 101.047C310.594 101.594 310.352 102.242 310.195 102.992C310.055 103.742 309.984 104.562 309.984 105.453ZM346.195 93.6406H353.367V118.016C353.367 120.359 352.828 122.344 351.75 123.969C350.672 125.609 349.164 126.852 347.227 127.695C345.305 128.555 343.055 128.984 340.477 128.984C339.336 128.984 338.172 128.836 336.984 128.539C335.797 128.258 334.688 127.836 333.656 127.273C332.625 126.711 331.758 126.016 331.055 125.188L334.359 120.547C335 121.266 335.805 121.875 336.773 122.375C337.742 122.891 338.883 123.148 340.195 123.148C341.336 123.148 342.289 122.945 343.055 122.539C343.836 122.133 344.43 121.539 344.836 120.758C345.242 119.992 345.445 119.062 345.445 117.969V99.6406L346.195 93.6406ZM329.344 106.625V106.133C329.344 104.211 329.578 102.461 330.047 100.883C330.531 99.2891 331.219 97.9219 332.109 96.7812C333.016 95.625 334.109 94.7344 335.391 94.1094C336.672 93.4844 338.117 93.1719 339.727 93.1719C341.461 93.1719 342.883 93.5078 343.992 94.1797C345.117 94.8359 346.016 95.7578 346.688 96.9453C347.375 98.1328 347.906 99.5234 348.281 101.117C348.672 102.695 349 104.398 349.266 106.227V106.812C349 108.531 348.633 110.156 348.164 111.688C347.711 113.203 347.117 114.547 346.383 115.719C345.648 116.891 344.727 117.812 343.617 118.484C342.523 119.141 341.211 119.469 339.68 119.469C338.086 119.469 336.648 119.148 335.367 118.508C334.102 117.867 333.016 116.969 332.109 115.812C331.219 114.656 330.531 113.297 330.047 111.734C329.578 110.172 329.344 108.469 329.344 106.625ZM337.242 106.133V106.625C337.242 107.578 337.328 108.461 337.5 109.273C337.688 110.086 337.969 110.805 338.344 111.43C338.719 112.039 339.18 112.516 339.727 112.859C340.289 113.203 340.945 113.375 341.695 113.375C342.836 113.375 343.758 113.133 344.461 112.648C345.164 112.164 345.672 111.477 345.984 110.586C346.297 109.695 346.43 108.648 346.383 107.445V105.594C346.414 104.562 346.344 103.656 346.172 102.875C346 102.078 345.727 101.414 345.352 100.883C344.992 100.352 344.508 99.9531 343.898 99.6875C343.305 99.4062 342.586 99.2656 341.742 99.2656C341.008 99.2656 340.359 99.4375 339.797 99.7812C339.234 100.125 338.766 100.609 338.391 101.234C338.016 101.844 337.727 102.57 337.523 103.414C337.336 104.242 337.242 105.148 337.242 106.133Z" fill="black"/>
<path d="M1134 0H1348C1356.28 0 1363 6.71573 1363 15V148C1363 156.284 1356.28 163 1348 163H1134V0Z" fill="#008F32"/>
<path d="M1210.62 43.625H1286.38V119.375H1210.62V43.625Z" fill="white" fill-opacity="0.01"/>
<path d="M1276.91 72.0312V105.172C1276.91 107.787 1274.79 109.906 1272.17 109.906H1224.83C1222.21 109.906 1220.09 107.787 1220.09 105.172V57.8281C1220.09 55.2134 1222.21 53.0938 1224.83 53.0938H1261.12" stroke="white" stroke-width="7.24" stroke-linecap="round" stroke-linejoin="round"/>
<path d="M1232.72 75.1875L1248.5 87.8125L1276.91 53.0938" stroke="white" stroke-width="7.24" stroke-linecap="round" stroke-linejoin="round"/>
</svg>
