<svg width="1363" height="163" viewBox="0 0 1363 163" fill="none" xmlns="http://www.w3.org/2000/svg">
<path d="M0 15C0 6.71573 6.71573 0 15 0H37V163H15C6.71573 163 0 156.284 0 148V15Z" fill="#424242"/>
<rect width="1097" height="163" transform="translate(37)" fill="#F0F0F0"/>
<path d="M101.906 53.9219L94.3945 51.2383V48.0859L104.602 52.375V54.6367L101.906 53.9219ZM94.3945 56.1719L101.918 53.4297L104.602 52.7852V55.0352L94.3945 59.3242V56.1719ZM126.422 52.082V58.8438C126.156 59.1641 125.746 59.5117 125.191 59.8867C124.637 60.2539 123.922 60.5703 123.047 60.8359C122.172 61.1016 121.113 61.2344 119.871 61.2344C118.77 61.2344 117.766 61.0547 116.859 60.6953C115.953 60.3281 115.172 59.793 114.516 59.0898C113.867 58.3867 113.367 57.5273 113.016 56.5117C112.664 55.4883 112.488 54.3203 112.488 53.0078V51.9414C112.488 50.6289 112.656 49.4609 112.992 48.4375C113.336 47.4141 113.824 46.5508 114.457 45.8477C115.09 45.1445 115.844 44.6094 116.719 44.2422C117.594 43.875 118.566 43.6914 119.637 43.6914C121.121 43.6914 122.34 43.9336 123.293 44.418C124.246 44.8945 124.973 45.5586 125.473 46.4102C125.98 47.2539 126.293 48.2227 126.41 49.3164H123C122.914 48.7383 122.75 48.2344 122.508 47.8047C122.266 47.375 121.918 47.0391 121.465 46.7969C121.02 46.5547 120.441 46.4336 119.73 46.4336C119.145 46.4336 118.621 46.5547 118.16 46.7969C117.707 47.0312 117.324 47.3789 117.012 47.8398C116.699 48.3008 116.461 48.8711 116.297 49.5508C116.133 50.2305 116.051 51.0195 116.051 51.918V53.0078C116.051 53.8984 116.137 54.6875 116.309 55.375C116.48 56.0547 116.734 56.6289 117.07 57.0977C117.414 57.5586 117.836 57.9062 118.336 58.1406C118.836 58.375 119.418 58.4922 120.082 58.4922C120.637 58.4922 121.098 58.4453 121.465 58.3516C121.84 58.2578 122.141 58.1445 122.367 58.0117C122.602 57.8711 122.781 57.7383 122.906 57.6133V54.5898H119.695V52.082H126.422ZM132.422 51.0859V61H129.047V48.3203H132.223L132.422 51.0859ZM136.242 48.2383L136.184 51.3672C136.02 51.3438 135.82 51.3242 135.586 51.3086C135.359 51.2852 135.152 51.2734 134.965 51.2734C134.488 51.2734 134.074 51.3359 133.723 51.4609C133.379 51.5781 133.09 51.7539 132.855 51.9883C132.629 52.2227 132.457 52.5078 132.34 52.8438C132.23 53.1797 132.168 53.5625 132.152 53.9922L131.473 53.7812C131.473 52.9609 131.555 52.207 131.719 51.5195C131.883 50.8242 132.121 50.2188 132.434 49.7031C132.754 49.1875 133.145 48.7891 133.605 48.5078C134.066 48.2266 134.594 48.0859 135.188 48.0859C135.375 48.0859 135.566 48.1016 135.762 48.1328C135.957 48.1562 136.117 48.1914 136.242 48.2383ZM143.438 61.2344C142.453 61.2344 141.57 61.0781 140.789 60.7656C140.008 60.4453 139.344 60.0039 138.797 59.4414C138.258 58.8789 137.844 58.2266 137.555 57.4844C137.266 56.7344 137.121 55.9375 137.121 55.0938V54.625C137.121 53.6641 137.258 52.7852 137.531 51.9883C137.805 51.1914 138.195 50.5 138.703 49.9141C139.219 49.3281 139.844 48.8789 140.578 48.5664C141.312 48.2461 142.141 48.0859 143.062 48.0859C143.961 48.0859 144.758 48.2344 145.453 48.5312C146.148 48.8281 146.73 49.25 147.199 49.7969C147.676 50.3438 148.035 51 148.277 51.7656C148.52 52.5234 148.641 53.3672 148.641 54.2969V55.7031H138.562V53.4531H145.324V53.1953C145.324 52.7266 145.238 52.3086 145.066 51.9414C144.902 51.5664 144.652 51.2695 144.316 51.0508C143.98 50.832 143.551 50.7227 143.027 50.7227C142.582 50.7227 142.199 50.8203 141.879 51.0156C141.559 51.2109 141.297 51.4844 141.094 51.8359C140.898 52.1875 140.75 52.6016 140.648 53.0781C140.555 53.5469 140.508 54.0625 140.508 54.625V55.0938C140.508 55.6016 140.578 56.0703 140.719 56.5C140.867 56.9297 141.074 57.3008 141.34 57.6133C141.613 57.9258 141.941 58.168 142.324 58.3398C142.715 58.5117 143.156 58.5977 143.648 58.5977C144.258 58.5977 144.824 58.4805 145.348 58.2461C145.879 58.0039 146.336 57.6406 146.719 57.1562L148.359 58.9375C148.094 59.3203 147.73 59.6875 147.27 60.0391C146.816 60.3906 146.27 60.6797 145.629 60.9062C144.988 61.125 144.258 61.2344 143.438 61.2344ZM156.398 61.2344C155.414 61.2344 154.531 61.0781 153.75 60.7656C152.969 60.4453 152.305 60.0039 151.758 59.4414C151.219 58.8789 150.805 58.2266 150.516 57.4844C150.227 56.7344 150.082 55.9375 150.082 55.0938V54.625C150.082 53.6641 150.219 52.7852 150.492 51.9883C150.766 51.1914 151.156 50.5 151.664 49.9141C152.18 49.3281 152.805 48.8789 153.539 48.5664C154.273 48.2461 155.102 48.0859 156.023 48.0859C156.922 48.0859 157.719 48.2344 158.414 48.5312C159.109 48.8281 159.691 49.25 160.16 49.7969C160.637 50.3438 160.996 51 161.238 51.7656C161.48 52.5234 161.602 53.3672 161.602 54.2969V55.7031H151.523V53.4531H158.285V53.1953C158.285 52.7266 158.199 52.3086 158.027 51.9414C157.863 51.5664 157.613 51.2695 157.277 51.0508C156.941 50.832 156.512 50.7227 155.988 50.7227C155.543 50.7227 155.16 50.8203 154.84 51.0156C154.52 51.2109 154.258 51.4844 154.055 51.8359C153.859 52.1875 153.711 52.6016 153.609 53.0781C153.516 53.5469 153.469 54.0625 153.469 54.625V55.0938C153.469 55.6016 153.539 56.0703 153.68 56.5C153.828 56.9297 154.035 57.3008 154.301 57.6133C154.574 57.9258 154.902 58.168 155.285 58.3398C155.676 58.5117 156.117 58.5977 156.609 58.5977C157.219 58.5977 157.785 58.4805 158.309 58.2461C158.84 58.0039 159.297 57.6406 159.68 57.1562L161.32 58.9375C161.055 59.3203 160.691 59.6875 160.23 60.0391C159.777 60.3906 159.23 60.6797 158.59 60.9062C157.949 61.125 157.219 61.2344 156.398 61.2344ZM166.828 51.0273V61H163.453V48.3203H166.617L166.828 51.0273ZM166.336 54.2148H165.422C165.422 53.2773 165.543 52.4336 165.785 51.6836C166.027 50.9258 166.367 50.2812 166.805 49.75C167.242 49.2109 167.762 48.8008 168.363 48.5195C168.973 48.2305 169.652 48.0859 170.402 48.0859C170.996 48.0859 171.539 48.1719 172.031 48.3438C172.523 48.5156 172.945 48.7891 173.297 49.1641C173.656 49.5391 173.93 50.0352 174.117 50.6523C174.312 51.2695 174.41 52.0234 174.41 52.9141V61H171.012V52.9023C171.012 52.3398 170.934 51.9023 170.777 51.5898C170.621 51.2773 170.391 51.0586 170.086 50.9336C169.789 50.8008 169.422 50.7344 168.984 50.7344C168.531 50.7344 168.137 50.8242 167.801 51.0039C167.473 51.1836 167.199 51.4336 166.98 51.7539C166.77 52.0664 166.609 52.4336 166.5 52.8555C166.391 53.2773 166.336 53.7305 166.336 54.2148ZM194.543 50.8867V53.6289H185.637V50.8867H194.543ZM186.68 43.9375V61H183.164V43.9375H186.68ZM197.051 43.9375V61H193.547V43.9375H197.051ZM206.742 58.1406V52.4922C206.742 52.0859 206.676 51.7383 206.543 51.4492C206.41 51.1523 206.203 50.9219 205.922 50.7578C205.648 50.5938 205.293 50.5117 204.855 50.5117C204.48 50.5117 204.156 50.5781 203.883 50.7109C203.609 50.8359 203.398 51.0195 203.25 51.2617C203.102 51.4961 203.027 51.7734 203.027 52.0938H199.652C199.652 51.5547 199.777 51.043 200.027 50.5586C200.277 50.0742 200.641 49.6484 201.117 49.2812C201.594 48.9062 202.16 48.6133 202.816 48.4023C203.48 48.1914 204.223 48.0859 205.043 48.0859C206.027 48.0859 206.902 48.25 207.668 48.5781C208.434 48.9062 209.035 49.3984 209.473 50.0547C209.918 50.7109 210.141 51.5312 210.141 52.5156V57.9414C210.141 58.6367 210.184 59.207 210.27 59.6523C210.355 60.0898 210.48 60.4727 210.645 60.8008V61H207.234C207.07 60.6562 206.945 60.2266 206.859 59.7109C206.781 59.1875 206.742 58.6641 206.742 58.1406ZM207.188 53.2773L207.211 55.1875H205.324C204.879 55.1875 204.492 55.2383 204.164 55.3398C203.836 55.4414 203.566 55.5859 203.355 55.7734C203.145 55.9531 202.988 56.1641 202.887 56.4062C202.793 56.6484 202.746 56.9141 202.746 57.2031C202.746 57.4922 202.812 57.7539 202.945 57.9883C203.078 58.2148 203.27 58.3945 203.52 58.5273C203.77 58.6523 204.062 58.7148 204.398 58.7148C204.906 58.7148 205.348 58.6133 205.723 58.4102C206.098 58.207 206.387 57.957 206.59 57.6602C206.801 57.3633 206.91 57.082 206.918 56.8164L207.809 58.2461C207.684 58.5664 207.512 58.8984 207.293 59.2422C207.082 59.5859 206.812 59.9102 206.484 60.2148C206.156 60.5117 205.762 60.7578 205.301 60.9531C204.84 61.1406 204.293 61.2344 203.66 61.2344C202.855 61.2344 202.125 61.0742 201.469 60.7539C200.82 60.4258 200.305 59.9766 199.922 59.4062C199.547 58.8281 199.359 58.1719 199.359 57.4375C199.359 56.7734 199.484 56.1836 199.734 55.668C199.984 55.1523 200.352 54.7188 200.836 54.3672C201.328 54.0078 201.941 53.7383 202.676 53.5586C203.41 53.3711 204.262 53.2773 205.23 53.2773H207.188ZM216.867 58.5391L219.68 48.3203H223.207L218.93 61H216.797L216.867 58.5391ZM214.934 48.3203L217.758 58.5508L217.816 61H215.672L211.395 48.3203H214.934ZM230.391 61.2344C229.406 61.2344 228.523 61.0781 227.742 60.7656C226.961 60.4453 226.297 60.0039 225.75 59.4414C225.211 58.8789 224.797 58.2266 224.508 57.4844C224.219 56.7344 224.074 55.9375 224.074 55.0938V54.625C224.074 53.6641 224.211 52.7852 224.484 51.9883C224.758 51.1914 225.148 50.5 225.656 49.9141C226.172 49.3281 226.797 48.8789 227.531 48.5664C228.266 48.2461 229.094 48.0859 230.016 48.0859C230.914 48.0859 231.711 48.2344 232.406 48.5312C233.102 48.8281 233.684 49.25 234.152 49.7969C234.629 50.3438 234.988 51 235.23 51.7656C235.473 52.5234 235.594 53.3672 235.594 54.2969V55.7031H225.516V53.4531H232.277V53.1953C232.277 52.7266 232.191 52.3086 232.02 51.9414C231.855 51.5664 231.605 51.2695 231.27 51.0508C230.934 50.832 230.504 50.7227 229.98 50.7227C229.535 50.7227 229.152 50.8203 228.832 51.0156C228.512 51.2109 228.25 51.4844 228.047 51.8359C227.852 52.1875 227.703 52.6016 227.602 53.0781C227.508 53.5469 227.461 54.0625 227.461 54.625V55.0938C227.461 55.6016 227.531 56.0703 227.672 56.5C227.82 56.9297 228.027 57.3008 228.293 57.6133C228.566 57.9258 228.895 58.168 229.277 58.3398C229.668 58.5117 230.109 58.5977 230.602 58.5977C231.211 58.5977 231.777 58.4805 232.301 58.2461C232.832 58.0039 233.289 57.6406 233.672 57.1562L235.312 58.9375C235.047 59.3203 234.684 59.6875 234.223 60.0391C233.77 60.3906 233.223 60.6797 232.582 60.9062C231.941 61.125 231.211 61.2344 230.391 61.2344ZM240.82 51.0273V61H237.445V48.3203H240.609L240.82 51.0273ZM240.328 54.2148H239.414C239.414 53.2773 239.535 52.4336 239.777 51.6836C240.02 50.9258 240.359 50.2812 240.797 49.75C241.234 49.2109 241.754 48.8008 242.355 48.5195C242.965 48.2305 243.645 48.0859 244.395 48.0859C244.988 48.0859 245.531 48.1719 246.023 48.3438C246.516 48.5156 246.938 48.7891 247.289 49.1641C247.648 49.5391 247.922 50.0352 248.109 50.6523C248.305 51.2695 248.402 52.0234 248.402 52.9141V61H245.004V52.9023C245.004 52.3398 244.926 51.9023 244.77 51.5898C244.613 51.2773 244.383 51.0586 244.078 50.9336C243.781 50.8008 243.414 50.7344 242.977 50.7344C242.523 50.7344 242.129 50.8242 241.793 51.0039C241.465 51.1836 241.191 51.4336 240.973 51.7539C240.762 52.0664 240.602 52.4336 240.492 52.8555C240.383 53.2773 240.328 53.7305 240.328 54.2148Z" fill="#888888"/>
<path d="M112.125 84.875V119H103.898V84.875H112.125ZM122.391 84.875V91.2266H93.8672V84.875H122.391ZM135.68 119.469C133.617 119.469 131.773 119.148 130.148 118.508C128.523 117.852 127.148 116.953 126.023 115.812C124.914 114.672 124.062 113.359 123.469 111.875C122.891 110.391 122.602 108.82 122.602 107.164V106.273C122.602 104.414 122.859 102.695 123.375 101.117C123.891 99.5234 124.656 98.1328 125.672 96.9453C126.688 95.7578 127.961 94.8359 129.492 94.1797C131.023 93.5078 132.805 93.1719 134.836 93.1719C136.633 93.1719 138.242 93.4609 139.664 94.0391C141.086 94.6172 142.289 95.4453 143.273 96.5234C144.273 97.6016 145.031 98.9062 145.547 100.438C146.078 101.969 146.344 103.688 146.344 105.594V108.805H125.625V103.859H138.633V103.25C138.648 102.406 138.5 101.688 138.188 101.094C137.891 100.5 137.453 100.047 136.875 99.7344C136.297 99.4219 135.594 99.2656 134.766 99.2656C133.906 99.2656 133.195 99.4531 132.633 99.8281C132.086 100.203 131.656 100.719 131.344 101.375C131.047 102.016 130.836 102.758 130.711 103.602C130.586 104.445 130.523 105.336 130.523 106.273V107.164C130.523 108.102 130.648 108.953 130.898 109.719C131.164 110.484 131.539 111.141 132.023 111.688C132.523 112.219 133.117 112.633 133.805 112.93C134.508 113.227 135.305 113.375 136.195 113.375C137.273 113.375 138.336 113.172 139.383 112.766C140.43 112.359 141.328 111.688 142.078 110.75L145.664 115.016C145.148 115.75 144.414 116.461 143.461 117.148C142.523 117.836 141.398 118.398 140.086 118.836C138.773 119.258 137.305 119.469 135.68 119.469ZM160.266 113.375C161 113.375 161.625 113.242 162.141 112.977C162.672 112.695 163.07 112.305 163.336 111.805C163.617 111.289 163.75 110.672 163.734 109.953H171.164C171.18 111.859 170.711 113.531 169.758 114.969C168.82 116.391 167.539 117.5 165.914 118.297C164.305 119.078 162.484 119.469 160.453 119.469C158.469 119.469 156.734 119.148 155.25 118.508C153.766 117.852 152.523 116.945 151.523 115.789C150.539 114.617 149.797 113.25 149.297 111.688C148.812 110.125 148.57 108.43 148.57 106.602V106.062C148.57 104.234 148.812 102.539 149.297 100.977C149.797 99.3984 150.539 98.0312 151.523 96.875C152.523 95.7031 153.758 94.7969 155.227 94.1562C156.711 93.5 158.438 93.1719 160.406 93.1719C162.516 93.1719 164.375 93.5703 165.984 94.3672C167.609 95.1641 168.883 96.3203 169.805 97.8359C170.727 99.3516 171.18 101.188 171.164 103.344H163.734C163.75 102.578 163.633 101.891 163.383 101.281C163.133 100.672 162.742 100.188 162.211 99.8281C161.695 99.4531 161.031 99.2656 160.219 99.2656C159.406 99.2656 158.75 99.4453 158.25 99.8047C157.75 100.164 157.367 100.664 157.102 101.305C156.852 101.93 156.68 102.648 156.586 103.461C156.508 104.273 156.469 105.141 156.469 106.062V106.602C156.469 107.539 156.508 108.422 156.586 109.25C156.68 110.062 156.859 110.781 157.125 111.406C157.391 112.016 157.773 112.5 158.273 112.859C158.773 113.203 159.438 113.375 160.266 113.375ZM182.273 83V119H174.375V83H182.273ZM181.336 105.453L179.484 105.5C179.484 103.719 179.703 102.078 180.141 100.578C180.578 99.0781 181.203 97.7734 182.016 96.6641C182.828 95.5547 183.805 94.6953 184.945 94.0859C186.086 93.4766 187.352 93.1719 188.742 93.1719C189.992 93.1719 191.133 93.3516 192.164 93.7109C193.211 94.0703 194.109 94.6484 194.859 95.4453C195.625 96.2422 196.211 97.2812 196.617 98.5625C197.039 99.8438 197.25 101.406 197.25 103.25V119H189.305V103.203C189.305 102.172 189.156 101.375 188.859 100.812C188.578 100.234 188.172 99.8359 187.641 99.6172C187.109 99.3828 186.461 99.2656 185.695 99.2656C184.773 99.2656 184.023 99.4219 183.445 99.7344C182.867 100.047 182.422 100.484 182.109 101.047C181.812 101.594 181.609 102.242 181.5 102.992C181.391 103.742 181.336 104.562 181.336 105.453ZM231.539 109.93C231.539 109.398 231.461 108.922 231.305 108.5C231.148 108.062 230.859 107.656 230.438 107.281C230.016 106.906 229.406 106.531 228.609 106.156C227.828 105.766 226.797 105.359 225.516 104.938C224.016 104.438 222.57 103.875 221.18 103.25C219.789 102.609 218.547 101.867 217.453 101.023C216.359 100.164 215.492 99.1641 214.852 98.0234C214.211 96.8672 213.891 95.5234 213.891 93.9922C213.891 92.5234 214.219 91.2031 214.875 90.0312C215.531 88.8438 216.445 87.8359 217.617 87.0078C218.805 86.1641 220.195 85.5234 221.789 85.0859C223.383 84.6328 225.125 84.4062 227.016 84.4062C229.516 84.4062 231.719 84.8438 233.625 85.7188C235.547 86.5781 237.047 87.8047 238.125 89.3984C239.219 90.9766 239.766 92.8438 239.766 95H231.586C231.586 94.1406 231.406 93.3828 231.047 92.7266C230.703 92.0703 230.18 91.5547 229.477 91.1797C228.773 90.8047 227.891 90.6172 226.828 90.6172C225.797 90.6172 224.93 90.7734 224.227 91.0859C223.523 91.3984 222.992 91.8203 222.633 92.3516C222.273 92.8672 222.094 93.4375 222.094 94.0625C222.094 94.5781 222.234 95.0469 222.516 95.4688C222.812 95.875 223.227 96.2578 223.758 96.6172C224.305 96.9766 224.961 97.3203 225.727 97.6484C226.508 97.9766 227.383 98.2969 228.352 98.6094C230.164 99.1875 231.773 99.8359 233.18 100.555C234.602 101.258 235.797 102.062 236.766 102.969C237.75 103.859 238.492 104.875 238.992 106.016C239.508 107.156 239.766 108.445 239.766 109.883C239.766 111.414 239.469 112.773 238.875 113.961C238.281 115.148 237.43 116.156 236.32 116.984C235.211 117.797 233.883 118.414 232.336 118.836C230.789 119.258 229.062 119.469 227.156 119.469C225.406 119.469 223.68 119.25 221.977 118.812C220.289 118.359 218.758 117.672 217.383 116.75C216.008 115.812 214.906 114.617 214.078 113.164C213.266 111.695 212.859 109.953 212.859 107.938H221.109C221.109 108.938 221.242 109.781 221.508 110.469C221.773 111.156 222.164 111.711 222.68 112.133C223.195 112.539 223.828 112.836 224.578 113.023C225.328 113.195 226.188 113.281 227.156 113.281C228.203 113.281 229.047 113.133 229.688 112.836C230.328 112.523 230.797 112.117 231.094 111.617C231.391 111.102 231.539 110.539 231.539 109.93ZM256.992 93.6406V99.125H241.711V93.6406H256.992ZM244.922 87.3359H252.82V110.727C252.82 111.398 252.898 111.922 253.055 112.297C253.211 112.656 253.477 112.914 253.852 113.07C254.242 113.211 254.758 113.281 255.398 113.281C255.852 113.281 256.227 113.273 256.523 113.258C256.82 113.227 257.102 113.188 257.367 113.141V118.789C256.695 119.008 255.992 119.172 255.258 119.281C254.523 119.406 253.742 119.469 252.914 119.469C251.227 119.469 249.781 119.203 248.578 118.672C247.391 118.141 246.484 117.305 245.859 116.164C245.234 115.023 244.922 113.539 244.922 111.711V87.3359ZM273.305 112.625V102.172C273.305 101.453 273.203 100.836 273 100.32C272.797 99.8047 272.477 99.4062 272.039 99.125C271.602 98.8281 271.016 98.6797 270.281 98.6797C269.688 98.6797 269.18 98.7812 268.758 98.9844C268.336 99.1875 268.016 99.4922 267.797 99.8984C267.578 100.305 267.469 100.82 267.469 101.445H259.57C259.57 100.273 259.828 99.1875 260.344 98.1875C260.875 97.1719 261.625 96.2891 262.594 95.5391C263.578 94.7891 264.75 94.2109 266.109 93.8047C267.484 93.3828 269.016 93.1719 270.703 93.1719C272.719 93.1719 274.516 93.5078 276.094 94.1797C277.688 94.8516 278.945 95.8594 279.867 97.2031C280.789 98.5312 281.25 100.203 281.25 102.219V112.602C281.25 114.258 281.344 115.516 281.531 116.375C281.719 117.219 281.984 117.961 282.328 118.602V119H274.406C274.031 118.219 273.75 117.266 273.562 116.141C273.391 115 273.305 113.828 273.305 112.625ZM274.266 103.508L274.312 107.727H270.82C270.086 107.727 269.461 107.828 268.945 108.031C268.445 108.234 268.039 108.516 267.727 108.875C267.43 109.219 267.211 109.609 267.07 110.047C266.945 110.484 266.883 110.945 266.883 111.43C266.883 111.898 266.992 112.32 267.211 112.695C267.445 113.055 267.758 113.336 268.148 113.539C268.539 113.742 268.977 113.844 269.461 113.844C270.336 113.844 271.078 113.68 271.688 113.352C272.312 113.008 272.789 112.594 273.117 112.109C273.445 111.625 273.609 111.172 273.609 110.75L275.344 113.984C275.031 114.609 274.672 115.242 274.266 115.883C273.875 116.523 273.383 117.117 272.789 117.664C272.211 118.195 271.5 118.633 270.656 118.977C269.812 119.305 268.789 119.469 267.586 119.469C266.023 119.469 264.586 119.148 263.273 118.508C261.977 117.867 260.938 116.977 260.156 115.836C259.375 114.68 258.984 113.352 258.984 111.852C258.984 110.539 259.219 109.367 259.688 108.336C260.172 107.305 260.898 106.43 261.867 105.711C262.836 104.992 264.07 104.445 265.57 104.07C267.07 103.695 268.836 103.508 270.867 103.508H274.266ZM296.344 113.375C297.078 113.375 297.703 113.242 298.219 112.977C298.75 112.695 299.148 112.305 299.414 111.805C299.695 111.289 299.828 110.672 299.812 109.953H307.242C307.258 111.859 306.789 113.531 305.836 114.969C304.898 116.391 303.617 117.5 301.992 118.297C300.383 119.078 298.562 119.469 296.531 119.469C294.547 119.469 292.812 119.148 291.328 118.508C289.844 117.852 288.602 116.945 287.602 115.789C286.617 114.617 285.875 113.25 285.375 111.688C284.891 110.125 284.648 108.43 284.648 106.602V106.062C284.648 104.234 284.891 102.539 285.375 100.977C285.875 99.3984 286.617 98.0312 287.602 96.875C288.602 95.7031 289.836 94.7969 291.305 94.1562C292.789 93.5 294.516 93.1719 296.484 93.1719C298.594 93.1719 300.453 93.5703 302.062 94.3672C303.688 95.1641 304.961 96.3203 305.883 97.8359C306.805 99.3516 307.258 101.188 307.242 103.344H299.812C299.828 102.578 299.711 101.891 299.461 101.281C299.211 100.672 298.82 100.188 298.289 99.8281C297.773 99.4531 297.109 99.2656 296.297 99.2656C295.484 99.2656 294.828 99.4453 294.328 99.8047C293.828 100.164 293.445 100.664 293.18 101.305C292.93 101.93 292.758 102.648 292.664 103.461C292.586 104.273 292.547 105.141 292.547 106.062V106.602C292.547 107.539 292.586 108.422 292.664 109.25C292.758 110.062 292.938 110.781 293.203 111.406C293.469 112.016 293.852 112.5 294.352 112.859C294.852 113.203 295.516 113.375 296.344 113.375ZM318.586 82.9766V119H310.688V82.9766H318.586ZM334.805 93.6406L323.789 106.555L318.023 112.32L314.578 107.305L319.383 101.047L325.336 93.6406H334.805ZM326.344 119L319.57 107.445L325.406 103.297L335.391 119H326.344ZM350.156 111.875C350.156 111.438 350.008 111.062 349.711 110.75C349.43 110.422 348.93 110.125 348.211 109.859C347.492 109.578 346.484 109.297 345.188 109.016C343.953 108.75 342.789 108.398 341.695 107.961C340.617 107.523 339.672 106.992 338.859 106.367C338.047 105.742 337.406 105 336.938 104.141C336.484 103.281 336.258 102.297 336.258 101.188C336.258 100.109 336.484 99.0938 336.938 98.1406C337.406 97.1719 338.086 96.3203 338.977 95.5859C339.883 94.8359 340.984 94.25 342.281 93.8281C343.578 93.3906 345.055 93.1719 346.711 93.1719C348.992 93.1719 350.961 93.5234 352.617 94.2266C354.273 94.9141 355.547 95.8828 356.438 97.1328C357.344 98.3672 357.797 99.7969 357.797 101.422H349.898C349.898 100.781 349.789 100.234 349.57 99.7812C349.367 99.3281 349.031 98.9844 348.562 98.75C348.094 98.5 347.469 98.375 346.688 98.375C346.141 98.375 345.641 98.4766 345.188 98.6797C344.75 98.8828 344.398 99.1641 344.133 99.5234C343.867 99.8828 343.734 100.305 343.734 100.789C343.734 101.133 343.812 101.445 343.969 101.727C344.141 101.992 344.398 102.242 344.742 102.477C345.086 102.695 345.523 102.898 346.055 103.086C346.586 103.258 347.227 103.414 347.977 103.555C349.68 103.867 351.273 104.312 352.758 104.891C354.242 105.469 355.445 106.289 356.367 107.352C357.305 108.414 357.773 109.844 357.773 111.641C357.773 112.766 357.516 113.805 357 114.758C356.484 115.695 355.742 116.523 354.773 117.242C353.805 117.945 352.641 118.492 351.281 118.883C349.922 119.273 348.391 119.469 346.688 119.469C344.266 119.469 342.219 119.039 340.547 118.18C338.875 117.305 337.609 116.211 336.75 114.898C335.906 113.57 335.484 112.227 335.484 110.867H342.844C342.875 111.648 343.062 112.289 343.406 112.789C343.766 113.289 344.242 113.656 344.836 113.891C345.43 114.125 346.117 114.242 346.898 114.242C347.617 114.242 348.211 114.141 348.68 113.938C349.164 113.734 349.531 113.461 349.781 113.117C350.031 112.758 350.156 112.344 350.156 111.875Z" fill="black"/>
<path d="M1134 0H1348C1356.28 0 1363 6.71573 1363 15V148C1363 156.284 1356.28 163 1348 163H1134V0Z" fill="#008F32"/>
<path fill-rule="evenodd" clip-rule="evenodd" d="M1219.98 53C1219.85 53 1219.73 53.0527 1219.64 53.1464C1219.55 53.2402 1219.5 53.3674 1219.5 53.5V109.5C1219.5 109.633 1219.55 109.76 1219.64 109.854C1219.73 109.947 1219.85 110 1219.98 110H1277.02C1277.15 110 1277.27 109.947 1277.36 109.854C1277.45 109.76 1277.5 109.633 1277.5 109.5V64C1277.5 63.8674 1277.45 63.7402 1277.36 63.6464C1277.27 63.5527 1277.15 63.5 1277.02 63.5H1248.5C1247.65 63.5 1246.84 63.1045 1246.29 62.4206L1238.77 53H1219.98ZM1215.58 48.9038C1216.74 47.6848 1218.33 47 1219.98 47H1240.11C1240.97 47 1241.77 47.3955 1242.32 48.0794L1249.85 57.5H1277.02C1278.67 57.5 1280.26 58.1848 1281.42 59.4038C1282.59 60.6228 1283.25 62.2761 1283.25 64V109.5C1283.25 111.224 1282.59 112.877 1281.42 114.096C1280.26 115.315 1278.67 116 1277.02 116H1219.98C1218.33 116 1216.74 115.315 1215.58 114.096C1214.41 112.877 1213.75 111.224 1213.75 109.5V53.5C1213.75 51.7761 1214.41 50.1228 1215.58 48.9038Z" fill="white"/>
<path fill-rule="evenodd" clip-rule="evenodd" d="M1244.16 75.5251C1245.47 76.892 1245.47 79.108 1244.16 80.4749L1238.15 86.75L1244.16 93.0251C1245.47 94.392 1245.47 96.608 1244.16 97.9749C1242.85 99.3417 1240.73 99.3417 1239.42 97.9749L1231.03 89.2249C1229.72 87.858 1229.72 85.642 1231.03 84.2751L1239.42 75.5251C1240.73 74.1583 1242.85 74.1583 1244.16 75.5251Z" fill="white"/>
<path fill-rule="evenodd" clip-rule="evenodd" d="M1252.12 97.9749C1250.81 96.608 1250.81 94.392 1252.12 93.0251L1258.13 86.75L1252.12 80.4749C1250.81 79.108 1250.81 76.892 1252.12 75.5251C1253.43 74.1583 1255.55 74.1583 1256.86 75.5251L1265.25 84.2751C1266.56 85.642 1266.56 87.858 1265.25 89.2249L1256.86 97.9749C1255.55 99.3417 1253.43 99.3417 1252.12 97.9749Z" fill="white"/>
</svg>
