<svg width="1363" height="122" viewBox="0 0 1363 122" fill="none" xmlns="http://www.w3.org/2000/svg">
<rect width="1134" height="122" fill="#F0F0F0"/>
<path d="M81.5938 57.4219V63.75H64.0859V57.4219H81.5938ZM66.8281 43.875V78H58.6016V43.875H66.8281ZM87.125 43.875V78H78.9219V43.875H87.125ZM90.9922 65.5781V65.0859C90.9922 63.2266 91.2578 61.5156 91.7891 59.9531C92.3203 58.375 93.1016 57.0078 94.1328 55.8516C95.1641 54.6953 96.4375 53.7969 97.9531 53.1562C99.4688 52.5 101.219 52.1719 103.203 52.1719C105.203 52.1719 106.961 52.5 108.477 53.1562C110.008 53.7969 111.289 54.6953 112.32 55.8516C113.352 57.0078 114.133 58.375 114.664 59.9531C115.195 61.5156 115.461 63.2266 115.461 65.0859V65.5781C115.461 67.4219 115.195 69.1328 114.664 70.7109C114.133 72.2734 113.352 73.6406 112.32 74.8125C111.289 75.9688 110.016 76.8672 108.5 77.5078C106.984 78.1484 105.234 78.4688 103.25 78.4688C101.266 78.4688 99.5078 78.1484 97.9766 77.5078C96.4453 76.8672 95.1641 75.9688 94.1328 74.8125C93.1016 73.6406 92.3203 72.2734 91.7891 70.7109C91.2578 69.1328 90.9922 67.4219 90.9922 65.5781ZM98.8906 65.0859V65.5781C98.8906 66.5312 98.9609 67.4219 99.1016 68.25C99.2422 69.0781 99.4766 69.8047 99.8047 70.4297C100.133 71.0391 100.578 71.5156 101.141 71.8594C101.703 72.2031 102.406 72.375 103.25 72.375C104.078 72.375 104.766 72.2031 105.312 71.8594C105.875 71.5156 106.32 71.0391 106.648 70.4297C106.977 69.8047 107.211 69.0781 107.352 68.25C107.492 67.4219 107.562 66.5312 107.562 65.5781V65.0859C107.562 64.1641 107.492 63.2969 107.352 62.4844C107.211 61.6562 106.977 60.9297 106.648 60.3047C106.32 59.6641 105.875 59.1641 105.312 58.8047C104.75 58.4453 104.047 58.2656 103.203 58.2656C102.375 58.2656 101.68 58.4453 101.117 58.8047C100.57 59.1641 100.133 59.6641 99.8047 60.3047C99.4766 60.9297 99.2422 61.6562 99.1016 62.4844C98.9609 63.2969 98.8906 64.1641 98.8906 65.0859ZM126.688 70.4531L131.375 52.6406H136.32L134.562 61.5703L129.922 78H125.961L126.688 70.4531ZM124.836 52.6406L127.742 70.3125L128.07 78H123.266L117.266 52.6406H124.836ZM140.492 69.9375L143.422 52.6406H150.992L145.039 78H140.234L140.492 69.9375ZM136.883 52.6406L141.617 70.4062L142.344 78H138.336L133.789 61.6172L132.102 52.6406H136.883ZM181.297 43.875V78H173.07V43.875H181.297ZM191.562 43.875V50.2266H163.039V43.875H191.562ZM188.773 65.5781V65.0859C188.773 63.2266 189.039 61.5156 189.57 59.9531C190.102 58.375 190.883 57.0078 191.914 55.8516C192.945 54.6953 194.219 53.7969 195.734 53.1562C197.25 52.5 199 52.1719 200.984 52.1719C202.984 52.1719 204.742 52.5 206.258 53.1562C207.789 53.7969 209.07 54.6953 210.102 55.8516C211.133 57.0078 211.914 58.375 212.445 59.9531C212.977 61.5156 213.242 63.2266 213.242 65.0859V65.5781C213.242 67.4219 212.977 69.1328 212.445 70.7109C211.914 72.2734 211.133 73.6406 210.102 74.8125C209.07 75.9688 207.797 76.8672 206.281 77.5078C204.766 78.1484 203.016 78.4688 201.031 78.4688C199.047 78.4688 197.289 78.1484 195.758 77.5078C194.227 76.8672 192.945 75.9688 191.914 74.8125C190.883 73.6406 190.102 72.2734 189.57 70.7109C189.039 69.1328 188.773 67.4219 188.773 65.5781ZM196.672 65.0859V65.5781C196.672 66.5312 196.742 67.4219 196.883 68.25C197.023 69.0781 197.258 69.8047 197.586 70.4297C197.914 71.0391 198.359 71.5156 198.922 71.8594C199.484 72.2031 200.188 72.375 201.031 72.375C201.859 72.375 202.547 72.2031 203.094 71.8594C203.656 71.5156 204.102 71.0391 204.43 70.4297C204.758 69.8047 204.992 69.0781 205.133 68.25C205.273 67.4219 205.344 66.5312 205.344 65.5781V65.0859C205.344 64.1641 205.273 63.2969 205.133 62.4844C204.992 61.6562 204.758 60.9297 204.43 60.3047C204.102 59.6641 203.656 59.1641 203.094 58.8047C202.531 58.4453 201.828 58.2656 200.984 58.2656C200.156 58.2656 199.461 58.4453 198.898 58.8047C198.352 59.1641 197.914 59.6641 197.586 60.3047C197.258 60.9297 197.023 61.6562 196.883 62.4844C196.742 63.2969 196.672 64.1641 196.672 65.0859ZM229.086 43.875H242.516C245.141 43.875 247.422 44.2656 249.359 45.0469C251.297 45.8281 252.789 46.9844 253.836 48.5156C254.898 50.0469 255.43 51.9375 255.43 54.1875C255.43 56.1406 255.125 57.7734 254.516 59.0859C253.906 60.3984 253.055 61.4844 251.961 62.3438C250.883 63.1875 249.625 63.8828 248.188 64.4297L245.492 65.9531H234.219L234.172 59.6016H242.516C243.562 59.6016 244.43 59.4141 245.117 59.0391C245.805 58.6641 246.32 58.1328 246.664 57.4453C247.023 56.7422 247.203 55.9062 247.203 54.9375C247.203 53.9531 247.023 53.1094 246.664 52.4062C246.305 51.7031 245.773 51.1641 245.07 50.7891C244.383 50.4141 243.531 50.2266 242.516 50.2266H237.312V78H229.086V43.875ZM247.766 78L240.219 62.9062L248.938 62.8594L256.578 77.6484V78H247.766ZM274.836 71.8359V52.6406H282.758V78H275.352L274.836 71.8359ZM275.586 66.6797L277.648 66.6328C277.648 68.3359 277.445 69.9141 277.039 71.3672C276.633 72.8047 276.031 74.0547 275.234 75.1172C274.453 76.1797 273.484 77.0078 272.328 77.6016C271.188 78.1797 269.867 78.4688 268.367 78.4688C267.117 78.4688 265.969 78.2969 264.922 77.9531C263.891 77.5938 263 77.0391 262.25 76.2891C261.5 75.5234 260.914 74.5469 260.492 73.3594C260.086 72.1562 259.883 70.7188 259.883 69.0469V52.6406H267.781V69.0938C267.781 69.6562 267.852 70.1406 267.992 70.5469C268.133 70.9531 268.336 71.2969 268.602 71.5781C268.867 71.8438 269.195 72.0469 269.586 72.1875C269.992 72.3125 270.453 72.375 270.969 72.375C272.156 72.375 273.086 72.125 273.758 71.625C274.43 71.125 274.898 70.4453 275.164 69.5859C275.445 68.7266 275.586 67.7578 275.586 66.6797ZM294.875 58.0547V78H286.977V52.6406H294.383L294.875 58.0547ZM293.938 64.4531L292.086 64.5C292.086 62.5625 292.32 60.8359 292.789 59.3203C293.258 57.7891 293.922 56.4922 294.781 55.4297C295.641 54.3672 296.664 53.5625 297.852 53.0156C299.055 52.4531 300.391 52.1719 301.859 52.1719C303.031 52.1719 304.102 52.3438 305.07 52.6875C306.055 53.0312 306.898 53.5859 307.602 54.3516C308.32 55.1172 308.867 56.1328 309.242 57.3984C309.633 58.6484 309.828 60.1953 309.828 62.0391V78H301.883V62.0156C301.883 61 301.742 60.2266 301.461 59.6953C301.18 59.1484 300.773 58.7734 300.242 58.5703C299.711 58.3672 299.062 58.2656 298.297 58.2656C297.484 58.2656 296.797 58.4219 296.234 58.7344C295.672 59.0469 295.219 59.4844 294.875 60.0469C294.547 60.5938 294.305 61.2422 294.148 61.9922C294.008 62.7422 293.938 63.5625 293.938 64.4531ZM326.773 67.1953H320.047C320.047 65.8203 320.141 64.6094 320.328 63.5625C320.531 62.5 320.875 61.5469 321.359 60.7031C321.844 59.8594 322.5 59.0781 323.328 58.3594C324.062 57.75 324.695 57.1641 325.227 56.6016C325.758 56.0391 326.164 55.4688 326.445 54.8906C326.727 54.3125 326.867 53.6953 326.867 53.0391C326.867 52.2266 326.75 51.5625 326.516 51.0469C326.297 50.5312 325.961 50.1484 325.508 49.8984C325.07 49.6328 324.516 49.5 323.844 49.5C323.297 49.5 322.781 49.6328 322.297 49.8984C321.828 50.1641 321.445 50.5781 321.148 51.1406C320.852 51.6875 320.688 52.4141 320.656 53.3203H312.711C312.758 50.9922 313.273 49.1016 314.258 47.6484C315.258 46.1797 316.586 45.1094 318.242 44.4375C319.914 43.75 321.781 43.4062 323.844 43.4062C326.125 43.4062 328.086 43.7578 329.727 44.4609C331.367 45.1641 332.625 46.2109 333.5 47.6016C334.375 48.9766 334.812 50.6719 334.812 52.6875C334.812 54.0312 334.555 55.2031 334.039 56.2031C333.539 57.1875 332.859 58.1094 332 58.9688C331.156 59.8125 330.211 60.7188 329.164 61.6875C328.258 62.4844 327.641 63.2969 327.312 64.125C326.984 64.9375 326.805 65.9609 326.773 67.1953ZM319.086 74.3203C319.086 73.1953 319.492 72.2578 320.305 71.5078C321.117 70.7422 322.172 70.3594 323.469 70.3594C324.766 70.3594 325.82 70.7422 326.633 71.5078C327.445 72.2578 327.852 73.1953 327.852 74.3203C327.852 75.4453 327.445 76.3906 326.633 77.1562C325.82 77.9062 324.766 78.2812 323.469 78.2812C322.172 78.2812 321.117 77.9062 320.305 77.1562C319.492 76.3906 319.086 75.4453 319.086 74.3203Z" fill="black"/>
<path d="M1134 0H1348C1356.28 0 1363 6.71573 1363 15V107C1363 115.284 1356.28 122 1348 122H1134V0Z" fill="#006624"/>
<path d="M1260.62 58.3078C1263.81 58.3078 1266.93 59.2552 1269.59 61.0302C1272.25 62.8052 1274.32 65.3281 1275.54 68.2798C1276.76 71.2315 1277.08 74.4795 1276.46 77.6131C1275.84 80.7466 1274.3 83.6249 1272.04 85.8841C1269.78 88.1432 1266.9 89.6817 1263.77 90.305C1260.63 90.9283 1257.39 90.6084 1254.43 89.3858C1251.48 88.1631 1248.96 86.0927 1247.18 83.4362C1245.41 80.7797 1244.46 77.6565 1244.46 74.4616C1244.46 70.1774 1246.16 66.0686 1249.19 63.0392C1252.22 60.0097 1256.33 58.3078 1260.62 58.3078ZM1260.62 52.9232C1256.36 52.9232 1252.19 54.1864 1248.65 56.5531C1245.11 58.9198 1242.35 62.2836 1240.72 66.2192C1239.09 70.1549 1238.66 74.4855 1239.49 78.6636C1240.32 82.8416 1242.37 86.6794 1245.39 89.6916C1248.4 92.7038 1252.24 94.7551 1256.41 95.5862C1260.59 96.4172 1264.92 95.9907 1268.86 94.3605C1272.79 92.7303 1276.16 89.9697 1278.52 86.4277C1280.89 82.8857 1282.15 78.7215 1282.15 74.4616C1282.15 68.7493 1279.88 63.2709 1275.85 59.2317C1271.81 55.1924 1266.33 52.9232 1260.62 52.9232Z" fill="white"/>
<path d="M1274.08 25.9999H1220.23C1218.8 25.9999 1217.43 26.5672 1216.42 27.5771C1215.41 28.5869 1214.85 29.9565 1214.85 31.3845V85.2306C1214.85 86.6586 1215.41 88.0282 1216.42 89.038C1217.43 90.0478 1218.8 90.6152 1220.23 90.6152H1231V85.2306H1220.23V47.5383H1279.46V31.3845C1279.46 29.9565 1278.89 28.5869 1277.88 27.5771C1276.87 26.5672 1275.5 25.9999 1274.08 25.9999ZM1220.23 42.1537V31.3845H1274.08V42.1537H1220.23Z" fill="white"/>
<path d="M1255.23 66.3848V82.5386L1268.69 74.4617L1255.23 66.3848Z" fill="white"/>
</svg>
