<svg width="1363" height="163" viewBox="0 0 1363 163" fill="none" xmlns="http://www.w3.org/2000/svg">
<rect width="1134" height="163" fill="#F0F0F0"/>
<path d="M64.9062 53.9219L57.3945 51.2383V48.0859L67.6016 52.375V54.6367L64.9062 53.9219ZM57.3945 56.1719L64.918 53.4297L67.6016 52.7852V55.0352L57.3945 59.3242V56.1719ZM89.4219 52.082V58.8438C89.1562 59.1641 88.7461 59.5117 88.1914 59.8867C87.6367 60.2539 86.9219 60.5703 86.0469 60.8359C85.1719 61.1016 84.1133 61.2344 82.8711 61.2344C81.7695 61.2344 80.7656 61.0547 79.8594 60.6953C78.9531 60.3281 78.1719 59.793 77.5156 59.0898C76.8672 58.3867 76.3672 57.5273 76.0156 56.5117C75.6641 55.4883 75.4883 54.3203 75.4883 53.0078V51.9414C75.4883 50.6289 75.6562 49.4609 75.9922 48.4375C76.3359 47.4141 76.8242 46.5508 77.457 45.8477C78.0898 45.1445 78.8438 44.6094 79.7188 44.2422C80.5938 43.875 81.5664 43.6914 82.6367 43.6914C84.1211 43.6914 85.3398 43.9336 86.293 44.418C87.2461 44.8945 87.9727 45.5586 88.4727 46.4102C88.9805 47.2539 89.293 48.2227 89.4102 49.3164H86C85.9141 48.7383 85.75 48.2344 85.5078 47.8047C85.2656 47.375 84.918 47.0391 84.4648 46.7969C84.0195 46.5547 83.4414 46.4336 82.7305 46.4336C82.1445 46.4336 81.6211 46.5547 81.1602 46.7969C80.707 47.0312 80.3242 47.3789 80.0117 47.8398C79.6992 48.3008 79.4609 48.8711 79.2969 49.5508C79.1328 50.2305 79.0508 51.0195 79.0508 51.918V53.0078C79.0508 53.8984 79.1367 54.6875 79.3086 55.375C79.4805 56.0547 79.7344 56.6289 80.0703 57.0977C80.4141 57.5586 80.8359 57.9062 81.3359 58.1406C81.8359 58.375 82.418 58.4922 83.082 58.4922C83.6367 58.4922 84.0977 58.4453 84.4648 58.3516C84.8398 58.2578 85.1406 58.1445 85.3672 58.0117C85.6016 57.8711 85.7812 57.7383 85.9062 57.6133V54.5898H82.6953V52.082H89.4219ZM95.4219 51.0859V61H92.0469V48.3203H95.2227L95.4219 51.0859ZM99.2422 48.2383L99.1836 51.3672C99.0195 51.3438 98.8203 51.3242 98.5859 51.3086C98.3594 51.2852 98.1523 51.2734 97.9648 51.2734C97.4883 51.2734 97.0742 51.3359 96.7227 51.4609C96.3789 51.5781 96.0898 51.7539 95.8555 51.9883C95.6289 52.2227 95.457 52.5078 95.3398 52.8438C95.2305 53.1797 95.168 53.5625 95.1523 53.9922L94.4727 53.7812C94.4727 52.9609 94.5547 52.207 94.7188 51.5195C94.8828 50.8242 95.1211 50.2188 95.4336 49.7031C95.7539 49.1875 96.1445 48.7891 96.6055 48.5078C97.0664 48.2266 97.5938 48.0859 98.1875 48.0859C98.375 48.0859 98.5664 48.1016 98.7617 48.1328C98.957 48.1562 99.1172 48.1914 99.2422 48.2383ZM106.438 61.2344C105.453 61.2344 104.57 61.0781 103.789 60.7656C103.008 60.4453 102.344 60.0039 101.797 59.4414C101.258 58.8789 100.844 58.2266 100.555 57.4844C100.266 56.7344 100.121 55.9375 100.121 55.0938V54.625C100.121 53.6641 100.258 52.7852 100.531 51.9883C100.805 51.1914 101.195 50.5 101.703 49.9141C102.219 49.3281 102.844 48.8789 103.578 48.5664C104.312 48.2461 105.141 48.0859 106.062 48.0859C106.961 48.0859 107.758 48.2344 108.453 48.5312C109.148 48.8281 109.73 49.25 110.199 49.7969C110.676 50.3438 111.035 51 111.277 51.7656C111.52 52.5234 111.641 53.3672 111.641 54.2969V55.7031H101.562V53.4531H108.324V53.1953C108.324 52.7266 108.238 52.3086 108.066 51.9414C107.902 51.5664 107.652 51.2695 107.316 51.0508C106.98 50.832 106.551 50.7227 106.027 50.7227C105.582 50.7227 105.199 50.8203 104.879 51.0156C104.559 51.2109 104.297 51.4844 104.094 51.8359C103.898 52.1875 103.75 52.6016 103.648 53.0781C103.555 53.5469 103.508 54.0625 103.508 54.625V55.0938C103.508 55.6016 103.578 56.0703 103.719 56.5C103.867 56.9297 104.074 57.3008 104.34 57.6133C104.613 57.9258 104.941 58.168 105.324 58.3398C105.715 58.5117 106.156 58.5977 106.648 58.5977C107.258 58.5977 107.824 58.4805 108.348 58.2461C108.879 58.0039 109.336 57.6406 109.719 57.1562L111.359 58.9375C111.094 59.3203 110.73 59.6875 110.27 60.0391C109.816 60.3906 109.27 60.6797 108.629 60.9062C107.988 61.125 107.258 61.2344 106.438 61.2344ZM119.398 61.2344C118.414 61.2344 117.531 61.0781 116.75 60.7656C115.969 60.4453 115.305 60.0039 114.758 59.4414C114.219 58.8789 113.805 58.2266 113.516 57.4844C113.227 56.7344 113.082 55.9375 113.082 55.0938V54.625C113.082 53.6641 113.219 52.7852 113.492 51.9883C113.766 51.1914 114.156 50.5 114.664 49.9141C115.18 49.3281 115.805 48.8789 116.539 48.5664C117.273 48.2461 118.102 48.0859 119.023 48.0859C119.922 48.0859 120.719 48.2344 121.414 48.5312C122.109 48.8281 122.691 49.25 123.16 49.7969C123.637 50.3438 123.996 51 124.238 51.7656C124.48 52.5234 124.602 53.3672 124.602 54.2969V55.7031H114.523V53.4531H121.285V53.1953C121.285 52.7266 121.199 52.3086 121.027 51.9414C120.863 51.5664 120.613 51.2695 120.277 51.0508C119.941 50.832 119.512 50.7227 118.988 50.7227C118.543 50.7227 118.16 50.8203 117.84 51.0156C117.52 51.2109 117.258 51.4844 117.055 51.8359C116.859 52.1875 116.711 52.6016 116.609 53.0781C116.516 53.5469 116.469 54.0625 116.469 54.625V55.0938C116.469 55.6016 116.539 56.0703 116.68 56.5C116.828 56.9297 117.035 57.3008 117.301 57.6133C117.574 57.9258 117.902 58.168 118.285 58.3398C118.676 58.5117 119.117 58.5977 119.609 58.5977C120.219 58.5977 120.785 58.4805 121.309 58.2461C121.84 58.0039 122.297 57.6406 122.68 57.1562L124.32 58.9375C124.055 59.3203 123.691 59.6875 123.23 60.0391C122.777 60.3906 122.23 60.6797 121.59 60.9062C120.949 61.125 120.219 61.2344 119.398 61.2344ZM129.828 51.0273V61H126.453V48.3203H129.617L129.828 51.0273ZM129.336 54.2148H128.422C128.422 53.2773 128.543 52.4336 128.785 51.6836C129.027 50.9258 129.367 50.2812 129.805 49.75C130.242 49.2109 130.762 48.8008 131.363 48.5195C131.973 48.2305 132.652 48.0859 133.402 48.0859C133.996 48.0859 134.539 48.1719 135.031 48.3438C135.523 48.5156 135.945 48.7891 136.297 49.1641C136.656 49.5391 136.93 50.0352 137.117 50.6523C137.312 51.2695 137.41 52.0234 137.41 52.9141V61H134.012V52.9023C134.012 52.3398 133.934 51.9023 133.777 51.5898C133.621 51.2773 133.391 51.0586 133.086 50.9336C132.789 50.8008 132.422 50.7344 131.984 50.7344C131.531 50.7344 131.137 50.8242 130.801 51.0039C130.473 51.1836 130.199 51.4336 129.98 51.7539C129.77 52.0664 129.609 52.4336 129.5 52.8555C129.391 53.2773 129.336 53.7305 129.336 54.2148ZM157.543 50.8867V53.6289H148.637V50.8867H157.543ZM149.68 43.9375V61H146.164V43.9375H149.68ZM160.051 43.9375V61H156.547V43.9375H160.051ZM169.742 58.1406V52.4922C169.742 52.0859 169.676 51.7383 169.543 51.4492C169.41 51.1523 169.203 50.9219 168.922 50.7578C168.648 50.5938 168.293 50.5117 167.855 50.5117C167.48 50.5117 167.156 50.5781 166.883 50.7109C166.609 50.8359 166.398 51.0195 166.25 51.2617C166.102 51.4961 166.027 51.7734 166.027 52.0938H162.652C162.652 51.5547 162.777 51.043 163.027 50.5586C163.277 50.0742 163.641 49.6484 164.117 49.2812C164.594 48.9062 165.16 48.6133 165.816 48.4023C166.48 48.1914 167.223 48.0859 168.043 48.0859C169.027 48.0859 169.902 48.25 170.668 48.5781C171.434 48.9062 172.035 49.3984 172.473 50.0547C172.918 50.7109 173.141 51.5312 173.141 52.5156V57.9414C173.141 58.6367 173.184 59.207 173.27 59.6523C173.355 60.0898 173.48 60.4727 173.645 60.8008V61H170.234C170.07 60.6562 169.945 60.2266 169.859 59.7109C169.781 59.1875 169.742 58.6641 169.742 58.1406ZM170.188 53.2773L170.211 55.1875H168.324C167.879 55.1875 167.492 55.2383 167.164 55.3398C166.836 55.4414 166.566 55.5859 166.355 55.7734C166.145 55.9531 165.988 56.1641 165.887 56.4062C165.793 56.6484 165.746 56.9141 165.746 57.2031C165.746 57.4922 165.812 57.7539 165.945 57.9883C166.078 58.2148 166.27 58.3945 166.52 58.5273C166.77 58.6523 167.062 58.7148 167.398 58.7148C167.906 58.7148 168.348 58.6133 168.723 58.4102C169.098 58.207 169.387 57.957 169.59 57.6602C169.801 57.3633 169.91 57.082 169.918 56.8164L170.809 58.2461C170.684 58.5664 170.512 58.8984 170.293 59.2422C170.082 59.5859 169.812 59.9102 169.484 60.2148C169.156 60.5117 168.762 60.7578 168.301 60.9531C167.84 61.1406 167.293 61.2344 166.66 61.2344C165.855 61.2344 165.125 61.0742 164.469 60.7539C163.82 60.4258 163.305 59.9766 162.922 59.4062C162.547 58.8281 162.359 58.1719 162.359 57.4375C162.359 56.7734 162.484 56.1836 162.734 55.668C162.984 55.1523 163.352 54.7188 163.836 54.3672C164.328 54.0078 164.941 53.7383 165.676 53.5586C166.41 53.3711 167.262 53.2773 168.23 53.2773H170.188ZM179.867 58.5391L182.68 48.3203H186.207L181.93 61H179.797L179.867 58.5391ZM177.934 48.3203L180.758 58.5508L180.816 61H178.672L174.395 48.3203H177.934ZM193.391 61.2344C192.406 61.2344 191.523 61.0781 190.742 60.7656C189.961 60.4453 189.297 60.0039 188.75 59.4414C188.211 58.8789 187.797 58.2266 187.508 57.4844C187.219 56.7344 187.074 55.9375 187.074 55.0938V54.625C187.074 53.6641 187.211 52.7852 187.484 51.9883C187.758 51.1914 188.148 50.5 188.656 49.9141C189.172 49.3281 189.797 48.8789 190.531 48.5664C191.266 48.2461 192.094 48.0859 193.016 48.0859C193.914 48.0859 194.711 48.2344 195.406 48.5312C196.102 48.8281 196.684 49.25 197.152 49.7969C197.629 50.3438 197.988 51 198.23 51.7656C198.473 52.5234 198.594 53.3672 198.594 54.2969V55.7031H188.516V53.4531H195.277V53.1953C195.277 52.7266 195.191 52.3086 195.02 51.9414C194.855 51.5664 194.605 51.2695 194.27 51.0508C193.934 50.832 193.504 50.7227 192.98 50.7227C192.535 50.7227 192.152 50.8203 191.832 51.0156C191.512 51.2109 191.25 51.4844 191.047 51.8359C190.852 52.1875 190.703 52.6016 190.602 53.0781C190.508 53.5469 190.461 54.0625 190.461 54.625V55.0938C190.461 55.6016 190.531 56.0703 190.672 56.5C190.82 56.9297 191.027 57.3008 191.293 57.6133C191.566 57.9258 191.895 58.168 192.277 58.3398C192.668 58.5117 193.109 58.5977 193.602 58.5977C194.211 58.5977 194.777 58.4805 195.301 58.2461C195.832 58.0039 196.289 57.6406 196.672 57.1562L198.312 58.9375C198.047 59.3203 197.684 59.6875 197.223 60.0391C196.77 60.3906 196.223 60.6797 195.582 60.9062C194.941 61.125 194.211 61.2344 193.391 61.2344ZM203.82 51.0273V61H200.445V48.3203H203.609L203.82 51.0273ZM203.328 54.2148H202.414C202.414 53.2773 202.535 52.4336 202.777 51.6836C203.02 50.9258 203.359 50.2812 203.797 49.75C204.234 49.2109 204.754 48.8008 205.355 48.5195C205.965 48.2305 206.645 48.0859 207.395 48.0859C207.988 48.0859 208.531 48.1719 209.023 48.3438C209.516 48.5156 209.938 48.7891 210.289 49.1641C210.648 49.5391 210.922 50.0352 211.109 50.6523C211.305 51.2695 211.402 52.0234 211.402 52.9141V61H208.004V52.9023C208.004 52.3398 207.926 51.9023 207.77 51.5898C207.613 51.2773 207.383 51.0586 207.078 50.9336C206.781 50.8008 206.414 50.7344 205.977 50.7344C205.523 50.7344 205.129 50.8242 204.793 51.0039C204.465 51.1836 204.191 51.4336 203.973 51.7539C203.762 52.0664 203.602 52.4336 203.492 52.8555C203.383 53.2773 203.328 53.7305 203.328 54.2148Z" fill="#888888"/>
<path d="M67.3438 84.875V119H59.1406V84.875H67.3438ZM80.7266 99.0078V119H72.8281V93.6406H80.2344L80.7266 99.0078ZM79.7656 105.453L77.9609 105.5C77.9609 103.719 78.1719 102.078 78.5938 100.578C79.0156 99.0781 79.6406 97.7734 80.4688 96.6641C81.2969 95.5547 82.3125 94.6953 83.5156 94.0859C84.7344 93.4766 86.1406 93.1719 87.7344 93.1719C88.8438 93.1719 89.8516 93.3438 90.7578 93.6875C91.6641 94.0156 92.4453 94.5391 93.1016 95.2578C93.7578 95.9609 94.2578 96.8828 94.6016 98.0234C94.9609 99.1484 95.1406 100.5 95.1406 102.078V119H87.2422V103.086C87.2422 102.008 87.1172 101.195 86.8672 100.648C86.6328 100.102 86.2891 99.7344 85.8359 99.5469C85.3828 99.3594 84.8281 99.2656 84.1719 99.2656C83.4844 99.2656 82.8672 99.4219 82.3203 99.7344C81.7734 100.047 81.3047 100.484 80.9141 101.047C80.5391 101.594 80.25 102.242 80.0469 102.992C79.8594 103.742 79.7656 104.562 79.7656 105.453ZM94.25 105.453L92.0469 105.5C92.0469 103.719 92.2422 102.078 92.6328 100.578C93.0391 99.0781 93.6406 97.7734 94.4375 96.6641C95.25 95.5547 96.2578 94.6953 97.4609 94.0859C98.6641 93.4766 100.062 93.1719 101.656 93.1719C102.812 93.1719 103.875 93.3438 104.844 93.6875C105.812 94.0312 106.648 94.5859 107.352 95.3516C108.055 96.1172 108.602 97.1328 108.992 98.3984C109.383 99.6484 109.578 101.195 109.578 103.039V119H101.656V103.039C101.656 101.992 101.531 101.203 101.281 100.672C101.047 100.125 100.703 99.7578 100.25 99.5703C99.7969 99.3672 99.2578 99.2656 98.6328 99.2656C97.8828 99.2656 97.2344 99.4219 96.6875 99.7344C96.1406 100.047 95.6797 100.484 95.3047 101.047C94.9453 101.594 94.6797 102.242 94.5078 102.992C94.3359 103.742 94.25 104.562 94.25 105.453ZM122.07 98.5156V128.75H114.172V93.6406H121.531L122.07 98.5156ZM137.633 106.016V106.508C137.633 108.352 137.422 110.062 137 111.641C136.578 113.219 135.953 114.594 135.125 115.766C134.297 116.938 133.266 117.852 132.031 118.508C130.812 119.148 129.398 119.469 127.789 119.469C126.273 119.469 124.969 119.133 123.875 118.461C122.781 117.789 121.867 116.859 121.133 115.672C120.398 114.484 119.805 113.125 119.352 111.594C118.898 110.062 118.539 108.445 118.273 106.742V106.109C118.539 104.281 118.898 102.586 119.352 101.023C119.805 99.4453 120.398 98.0703 121.133 96.8984C121.867 95.7266 122.773 94.8125 123.852 94.1562C124.945 93.5 126.25 93.1719 127.766 93.1719C129.375 93.1719 130.789 93.4766 132.008 94.0859C133.242 94.6953 134.273 95.5703 135.102 96.7109C135.945 97.8359 136.578 99.1875 137 100.766C137.422 102.344 137.633 104.094 137.633 106.016ZM129.734 106.508V106.016C129.734 105.031 129.664 104.133 129.523 103.32C129.383 102.492 129.156 101.773 128.844 101.164C128.547 100.555 128.148 100.086 127.648 99.7578C127.148 99.4297 126.531 99.2656 125.797 99.2656C124.953 99.2656 124.242 99.3984 123.664 99.6641C123.102 99.9141 122.648 100.305 122.305 100.836C121.977 101.352 121.742 102 121.602 102.781C121.477 103.547 121.422 104.445 121.438 105.477V107.398C121.406 108.586 121.523 109.633 121.789 110.539C122.055 111.43 122.516 112.125 123.172 112.625C123.828 113.125 124.719 113.375 125.844 113.375C126.594 113.375 127.219 113.203 127.719 112.859C128.219 112.5 128.617 112.008 128.914 111.383C129.211 110.742 129.422 110.008 129.547 109.18C129.672 108.352 129.734 107.461 129.734 106.508ZM149.492 83V119H141.57V83H149.492ZM166.648 119.469C164.586 119.469 162.742 119.148 161.117 118.508C159.492 117.852 158.117 116.953 156.992 115.812C155.883 114.672 155.031 113.359 154.438 111.875C153.859 110.391 153.57 108.82 153.57 107.164V106.273C153.57 104.414 153.828 102.695 154.344 101.117C154.859 99.5234 155.625 98.1328 156.641 96.9453C157.656 95.7578 158.93 94.8359 160.461 94.1797C161.992 93.5078 163.773 93.1719 165.805 93.1719C167.602 93.1719 169.211 93.4609 170.633 94.0391C172.055 94.6172 173.258 95.4453 174.242 96.5234C175.242 97.6016 176 98.9062 176.516 100.438C177.047 101.969 177.312 103.688 177.312 105.594V108.805H156.594V103.859H169.602V103.25C169.617 102.406 169.469 101.688 169.156 101.094C168.859 100.5 168.422 100.047 167.844 99.7344C167.266 99.4219 166.562 99.2656 165.734 99.2656C164.875 99.2656 164.164 99.4531 163.602 99.8281C163.055 100.203 162.625 100.719 162.312 101.375C162.016 102.016 161.805 102.758 161.68 103.602C161.555 104.445 161.492 105.336 161.492 106.273V107.164C161.492 108.102 161.617 108.953 161.867 109.719C162.133 110.484 162.508 111.141 162.992 111.688C163.492 112.219 164.086 112.633 164.773 112.93C165.477 113.227 166.273 113.375 167.164 113.375C168.242 113.375 169.305 113.172 170.352 112.766C171.398 112.359 172.297 111.688 173.047 110.75L176.633 115.016C176.117 115.75 175.383 116.461 174.43 117.148C173.492 117.836 172.367 118.398 171.055 118.836C169.742 119.258 168.273 119.469 166.648 119.469ZM188.492 99.0078V119H180.594V93.6406H188L188.492 99.0078ZM187.531 105.453L185.727 105.5C185.727 103.719 185.938 102.078 186.359 100.578C186.781 99.0781 187.406 97.7734 188.234 96.6641C189.062 95.5547 190.078 94.6953 191.281 94.0859C192.5 93.4766 193.906 93.1719 195.5 93.1719C196.609 93.1719 197.617 93.3438 198.523 93.6875C199.43 94.0156 200.211 94.5391 200.867 95.2578C201.523 95.9609 202.023 96.8828 202.367 98.0234C202.727 99.1484 202.906 100.5 202.906 102.078V119H195.008V103.086C195.008 102.008 194.883 101.195 194.633 100.648C194.398 100.102 194.055 99.7344 193.602 99.5469C193.148 99.3594 192.594 99.2656 191.938 99.2656C191.25 99.2656 190.633 99.4219 190.086 99.7344C189.539 100.047 189.07 100.484 188.68 101.047C188.305 101.594 188.016 102.242 187.812 102.992C187.625 103.742 187.531 104.562 187.531 105.453ZM202.016 105.453L199.812 105.5C199.812 103.719 200.008 102.078 200.398 100.578C200.805 99.0781 201.406 97.7734 202.203 96.6641C203.016 95.5547 204.023 94.6953 205.227 94.0859C206.43 93.4766 207.828 93.1719 209.422 93.1719C210.578 93.1719 211.641 93.3438 212.609 93.6875C213.578 94.0312 214.414 94.5859 215.117 95.3516C215.82 96.1172 216.367 97.1328 216.758 98.3984C217.148 99.6484 217.344 101.195 217.344 103.039V119H209.422V103.039C209.422 101.992 209.297 101.203 209.047 100.672C208.812 100.125 208.469 99.7578 208.016 99.5703C207.562 99.3672 207.023 99.2656 206.398 99.2656C205.648 99.2656 205 99.4219 204.453 99.7344C203.906 100.047 203.445 100.484 203.07 101.047C202.711 101.594 202.445 102.242 202.273 102.992C202.102 103.742 202.016 104.562 202.016 105.453ZM234.148 119.469C232.086 119.469 230.242 119.148 228.617 118.508C226.992 117.852 225.617 116.953 224.492 115.812C223.383 114.672 222.531 113.359 221.938 111.875C221.359 110.391 221.07 108.82 221.07 107.164V106.273C221.07 104.414 221.328 102.695 221.844 101.117C222.359 99.5234 223.125 98.1328 224.141 96.9453C225.156 95.7578 226.43 94.8359 227.961 94.1797C229.492 93.5078 231.273 93.1719 233.305 93.1719C235.102 93.1719 236.711 93.4609 238.133 94.0391C239.555 94.6172 240.758 95.4453 241.742 96.5234C242.742 97.6016 243.5 98.9062 244.016 100.438C244.547 101.969 244.812 103.688 244.812 105.594V108.805H224.094V103.859H237.102V103.25C237.117 102.406 236.969 101.688 236.656 101.094C236.359 100.5 235.922 100.047 235.344 99.7344C234.766 99.4219 234.062 99.2656 233.234 99.2656C232.375 99.2656 231.664 99.4531 231.102 99.8281C230.555 100.203 230.125 100.719 229.812 101.375C229.516 102.016 229.305 102.758 229.18 103.602C229.055 104.445 228.992 105.336 228.992 106.273V107.164C228.992 108.102 229.117 108.953 229.367 109.719C229.633 110.484 230.008 111.141 230.492 111.688C230.992 112.219 231.586 112.633 232.273 112.93C232.977 113.227 233.773 113.375 234.664 113.375C235.742 113.375 236.805 113.172 237.852 112.766C238.898 112.359 239.797 111.688 240.547 110.75L244.133 115.016C243.617 115.75 242.883 116.461 241.93 117.148C240.992 117.836 239.867 118.398 238.555 118.836C237.242 119.258 235.773 119.469 234.148 119.469ZM255.781 99.0547V119H247.883V93.6406H255.289L255.781 99.0547ZM254.844 105.453L252.992 105.5C252.992 103.562 253.227 101.836 253.695 100.32C254.164 98.7891 254.828 97.4922 255.688 96.4297C256.547 95.3672 257.57 94.5625 258.758 94.0156C259.961 93.4531 261.297 93.1719 262.766 93.1719C263.938 93.1719 265.008 93.3438 265.977 93.6875C266.961 94.0312 267.805 94.5859 268.508 95.3516C269.227 96.1172 269.773 97.1328 270.148 98.3984C270.539 99.6484 270.734 101.195 270.734 103.039V119H262.789V103.016C262.789 102 262.648 101.227 262.367 100.695C262.086 100.148 261.68 99.7734 261.148 99.5703C260.617 99.3672 259.969 99.2656 259.203 99.2656C258.391 99.2656 257.703 99.4219 257.141 99.7344C256.578 100.047 256.125 100.484 255.781 101.047C255.453 101.594 255.211 102.242 255.055 102.992C254.914 103.742 254.844 104.562 254.844 105.453ZM288.477 93.6406V99.125H273.195V93.6406H288.477ZM276.406 87.3359H284.305V110.727C284.305 111.398 284.383 111.922 284.539 112.297C284.695 112.656 284.961 112.914 285.336 113.07C285.727 113.211 286.242 113.281 286.883 113.281C287.336 113.281 287.711 113.273 288.008 113.258C288.305 113.227 288.586 113.188 288.852 113.141V118.789C288.18 119.008 287.477 119.172 286.742 119.281C286.008 119.406 285.227 119.469 284.398 119.469C282.711 119.469 281.266 119.203 280.062 118.672C278.875 118.141 277.969 117.305 277.344 116.164C276.719 115.023 276.406 113.539 276.406 111.711V87.3359ZM304.789 112.625V102.172C304.789 101.453 304.688 100.836 304.484 100.32C304.281 99.8047 303.961 99.4062 303.523 99.125C303.086 98.8281 302.5 98.6797 301.766 98.6797C301.172 98.6797 300.664 98.7812 300.242 98.9844C299.82 99.1875 299.5 99.4922 299.281 99.8984C299.062 100.305 298.953 100.82 298.953 101.445H291.055C291.055 100.273 291.312 99.1875 291.828 98.1875C292.359 97.1719 293.109 96.2891 294.078 95.5391C295.062 94.7891 296.234 94.2109 297.594 93.8047C298.969 93.3828 300.5 93.1719 302.188 93.1719C304.203 93.1719 306 93.5078 307.578 94.1797C309.172 94.8516 310.43 95.8594 311.352 97.2031C312.273 98.5312 312.734 100.203 312.734 102.219V112.602C312.734 114.258 312.828 115.516 313.016 116.375C313.203 117.219 313.469 117.961 313.812 118.602V119H305.891C305.516 118.219 305.234 117.266 305.047 116.141C304.875 115 304.789 113.828 304.789 112.625ZM305.75 103.508L305.797 107.727H302.305C301.57 107.727 300.945 107.828 300.43 108.031C299.93 108.234 299.523 108.516 299.211 108.875C298.914 109.219 298.695 109.609 298.555 110.047C298.43 110.484 298.367 110.945 298.367 111.43C298.367 111.898 298.477 112.32 298.695 112.695C298.93 113.055 299.242 113.336 299.633 113.539C300.023 113.742 300.461 113.844 300.945 113.844C301.82 113.844 302.562 113.68 303.172 113.352C303.797 113.008 304.273 112.594 304.602 112.109C304.93 111.625 305.094 111.172 305.094 110.75L306.828 113.984C306.516 114.609 306.156 115.242 305.75 115.883C305.359 116.523 304.867 117.117 304.273 117.664C303.695 118.195 302.984 118.633 302.141 118.977C301.297 119.305 300.273 119.469 299.07 119.469C297.508 119.469 296.07 119.148 294.758 118.508C293.461 117.867 292.422 116.977 291.641 115.836C290.859 114.68 290.469 113.352 290.469 111.852C290.469 110.539 290.703 109.367 291.172 108.336C291.656 107.305 292.383 106.43 293.352 105.711C294.32 104.992 295.555 104.445 297.055 104.07C298.555 103.695 300.32 103.508 302.352 103.508H305.75ZM330.477 93.6406V99.125H315.195V93.6406H330.477ZM318.406 87.3359H326.305V110.727C326.305 111.398 326.383 111.922 326.539 112.297C326.695 112.656 326.961 112.914 327.336 113.07C327.727 113.211 328.242 113.281 328.883 113.281C329.336 113.281 329.711 113.273 330.008 113.258C330.305 113.227 330.586 113.188 330.852 113.141V118.789C330.18 119.008 329.477 119.172 328.742 119.281C328.008 119.406 327.227 119.469 326.398 119.469C324.711 119.469 323.266 119.203 322.062 118.672C320.875 118.141 319.969 117.305 319.344 116.164C318.719 115.023 318.406 113.539 318.406 111.711V87.3359ZM341.961 93.6406V119H334.039V93.6406H341.961ZM333.57 87.1016C333.57 85.9766 333.977 85.0547 334.789 84.3359C335.602 83.6172 336.656 83.2578 337.953 83.2578C339.25 83.2578 340.305 83.6172 341.117 84.3359C341.93 85.0547 342.336 85.9766 342.336 87.1016C342.336 88.2266 341.93 89.1484 341.117 89.8672C340.305 90.5859 339.25 90.9453 337.953 90.9453C336.656 90.9453 335.602 90.5859 334.789 89.8672C333.977 89.1484 333.57 88.2266 333.57 87.1016ZM345.852 106.578V106.086C345.852 104.227 346.117 102.516 346.648 100.953C347.18 99.375 347.961 98.0078 348.992 96.8516C350.023 95.6953 351.297 94.7969 352.812 94.1562C354.328 93.5 356.078 93.1719 358.062 93.1719C360.062 93.1719 361.82 93.5 363.336 94.1562C364.867 94.7969 366.148 95.6953 367.18 96.8516C368.211 98.0078 368.992 99.375 369.523 100.953C370.055 102.516 370.32 104.227 370.32 106.086V106.578C370.32 108.422 370.055 110.133 369.523 111.711C368.992 113.273 368.211 114.641 367.18 115.812C366.148 116.969 364.875 117.867 363.359 118.508C361.844 119.148 360.094 119.469 358.109 119.469C356.125 119.469 354.367 119.148 352.836 118.508C351.305 117.867 350.023 116.969 348.992 115.812C347.961 114.641 347.18 113.273 346.648 111.711C346.117 110.133 345.852 108.422 345.852 106.578ZM353.75 106.086V106.578C353.75 107.531 353.82 108.422 353.961 109.25C354.102 110.078 354.336 110.805 354.664 111.43C354.992 112.039 355.438 112.516 356 112.859C356.562 113.203 357.266 113.375 358.109 113.375C358.938 113.375 359.625 113.203 360.172 112.859C360.734 112.516 361.18 112.039 361.508 111.43C361.836 110.805 362.07 110.078 362.211 109.25C362.352 108.422 362.422 107.531 362.422 106.578V106.086C362.422 105.164 362.352 104.297 362.211 103.484C362.07 102.656 361.836 101.93 361.508 101.305C361.18 100.664 360.734 100.164 360.172 99.8047C359.609 99.4453 358.906 99.2656 358.062 99.2656C357.234 99.2656 356.539 99.4453 355.977 99.8047C355.43 100.164 354.992 100.664 354.664 101.305C354.336 101.93 354.102 102.656 353.961 103.484C353.82 104.297 353.75 105.164 353.75 106.086ZM381.594 99.0547V119H373.695V93.6406H381.102L381.594 99.0547ZM380.656 105.453L378.805 105.5C378.805 103.562 379.039 101.836 379.508 100.32C379.977 98.7891 380.641 97.4922 381.5 96.4297C382.359 95.3672 383.383 94.5625 384.57 94.0156C385.773 93.4531 387.109 93.1719 388.578 93.1719C389.75 93.1719 390.82 93.3438 391.789 93.6875C392.773 94.0312 393.617 94.5859 394.32 95.3516C395.039 96.1172 395.586 97.1328 395.961 98.3984C396.352 99.6484 396.547 101.195 396.547 103.039V119H388.602V103.016C388.602 102 388.461 101.227 388.18 100.695C387.898 100.148 387.492 99.7734 386.961 99.5703C386.43 99.3672 385.781 99.2656 385.016 99.2656C384.203 99.2656 383.516 99.4219 382.953 99.7344C382.391 100.047 381.938 100.484 381.594 101.047C381.266 101.594 381.023 102.242 380.867 102.992C380.727 103.742 380.656 104.562 380.656 105.453Z" fill="black"/>
<path d="M1134 0H1348C1356.28 0 1363 6.71573 1363 15V148C1363 156.284 1356.28 163 1348 163H1134V0Z" fill="#006624"/>
<path d="M1281 46.5H1216L1213.5 49V114L1216 116.5H1281L1283.5 114V49L1281 46.5ZM1278.5 111.5H1233.5V101.5H1245C1246.5 104.5 1250 106.5 1253.5 106.5C1259 106.5 1263.5 102 1263.5 96.5C1263.5 91 1259 86.5 1253.5 86.5C1248 86.5 1243.5 91 1243.5 96.5H1228.5V111.5H1218.5V51.5H1228.5V63C1225.5 64.5 1223.5 68 1223.5 71.5C1223.5 77 1228 81.5 1233.5 81.5C1239 81.5 1243.5 77 1243.5 71.5H1253.5C1253.5 77 1258 81.5 1263.5 81.5C1269 81.5 1273.5 77 1273.5 71.5C1273.5 66 1269 61.5 1263.5 61.5C1260 61.5 1256.5 63.5 1255 66.5H1242C1240.5 63.5 1237 61.5 1233.5 61.5V51.5H1278.5V111.5ZM1248.5 96.5C1248.5 93.5 1250.5 91.5 1253.5 91.5C1256.5 91.5 1258.5 93.5 1258.5 96.5C1258.5 99.5 1256.5 101.5 1253.5 101.5C1250.5 101.5 1248.5 99.5 1248.5 96.5ZM1233.5 66.5C1236.5 66.5 1238.5 68.5 1238.5 71.5C1238.5 74.5 1236.5 76.5 1233.5 76.5C1230.5 76.5 1228.5 74.5 1228.5 71.5C1228.5 68.5 1230.5 66.5 1233.5 66.5ZM1263.5 66.5C1266.5 66.5 1268.5 68.5 1268.5 71.5C1268.5 74.5 1266.5 76.5 1263.5 76.5C1260.5 76.5 1258.5 74.5 1258.5 71.5C1258.5 68.5 1260.5 66.5 1263.5 66.5Z" fill="white"/>
</svg>
