<svg width="1363" height="122" viewBox="0 0 1363 122" fill="none" xmlns="http://www.w3.org/2000/svg">
<rect width="1134" height="122" fill="#F0F0F0"/>
<path d="M72.2188 66.4219H63.7344V60.0703H72.2188C73.375 60.0703 74.3125 59.875 75.0312 59.4844C75.75 59.0938 76.2734 58.5547 76.6016 57.8672C76.9453 57.1641 77.1172 56.375 77.1172 55.5C77.1172 54.5625 76.9453 53.6953 76.6016 52.8984C76.2734 52.1016 75.75 51.4609 75.0312 50.9766C74.3125 50.4766 73.375 50.2266 72.2188 50.2266H66.8281V78H58.6016V43.875H72.2188C74.9531 43.875 77.3047 44.375 79.2734 45.375C81.2578 46.375 82.7812 47.75 83.8438 49.5C84.9062 51.2344 85.4375 53.2188 85.4375 55.4531C85.4375 57.6562 84.9062 59.5781 83.8438 61.2188C82.7812 62.8594 81.2578 64.1406 79.2734 65.0625C77.3047 65.9688 74.9531 66.4219 72.2188 66.4219ZM97.4609 58.9219V78H89.5625V52.6406H96.9453L97.4609 58.9219ZM104.961 52.4531L104.82 59.7891C104.508 59.7578 104.086 59.7188 103.555 59.6719C103.023 59.625 102.578 59.6016 102.219 59.6016C101.297 59.6016 100.5 59.7109 99.8281 59.9297C99.1719 60.1328 98.625 60.4453 98.1875 60.8672C97.7656 61.2734 97.4531 61.7891 97.25 62.4141C97.0625 63.0391 96.9766 63.7656 96.9922 64.5938L95.5625 63.6562C95.5625 61.9531 95.7266 60.4062 96.0547 59.0156C96.3984 57.6094 96.8828 56.3984 97.5078 55.3828C98.1328 54.3516 98.8906 53.5625 99.7812 53.0156C100.672 52.4531 101.672 52.1719 102.781 52.1719C103.172 52.1719 103.555 52.1953 103.93 52.2422C104.32 52.2891 104.664 52.3594 104.961 52.4531ZM105.852 65.5781V65.0859C105.852 63.2266 106.117 61.5156 106.648 59.9531C107.18 58.375 107.961 57.0078 108.992 55.8516C110.023 54.6953 111.297 53.7969 112.812 53.1562C114.328 52.5 116.078 52.1719 118.062 52.1719C120.062 52.1719 121.82 52.5 123.336 53.1562C124.867 53.7969 126.148 54.6953 127.18 55.8516C128.211 57.0078 128.992 58.375 129.523 59.9531C130.055 61.5156 130.32 63.2266 130.32 65.0859V65.5781C130.32 67.4219 130.055 69.1328 129.523 70.7109C128.992 72.2734 128.211 73.6406 127.18 74.8125C126.148 75.9688 124.875 76.8672 123.359 77.5078C121.844 78.1484 120.094 78.4688 118.109 78.4688C116.125 78.4688 114.367 78.1484 112.836 77.5078C111.305 76.8672 110.023 75.9688 108.992 74.8125C107.961 73.6406 107.18 72.2734 106.648 70.7109C106.117 69.1328 105.852 67.4219 105.852 65.5781ZM113.75 65.0859V65.5781C113.75 66.5312 113.82 67.4219 113.961 68.25C114.102 69.0781 114.336 69.8047 114.664 70.4297C114.992 71.0391 115.438 71.5156 116 71.8594C116.562 72.2031 117.266 72.375 118.109 72.375C118.938 72.375 119.625 72.2031 120.172 71.8594C120.734 71.5156 121.18 71.0391 121.508 70.4297C121.836 69.8047 122.07 69.0781 122.211 68.25C122.352 67.4219 122.422 66.5312 122.422 65.5781V65.0859C122.422 64.1641 122.352 63.2969 122.211 62.4844C122.07 61.6562 121.836 60.9297 121.508 60.3047C121.18 59.6641 120.734 59.1641 120.172 58.8047C119.609 58.4453 118.906 58.2656 118.062 58.2656C117.234 58.2656 116.539 58.4453 115.977 58.8047C115.43 59.1641 114.992 59.6641 114.664 60.3047C114.336 60.9297 114.102 61.6562 113.961 62.4844C113.82 63.2969 113.75 64.1641 113.75 65.0859ZM147.195 52.6406V58.125H131.914V52.6406H147.195ZM135.125 46.3359H143.023V69.7266C143.023 70.3984 143.102 70.9219 143.258 71.2969C143.414 71.6562 143.68 71.9141 144.055 72.0703C144.445 72.2109 144.961 72.2812 145.602 72.2812C146.055 72.2812 146.43 72.2734 146.727 72.2578C147.023 72.2266 147.305 72.1875 147.57 72.1406V77.7891C146.898 78.0078 146.195 78.1719 145.461 78.2812C144.727 78.4062 143.945 78.4688 143.117 78.4688C141.43 78.4688 139.984 78.2031 138.781 77.6719C137.594 77.1406 136.688 76.3047 136.062 75.1641C135.438 74.0234 135.125 72.5391 135.125 70.7109V46.3359ZM148.648 65.5781V65.0859C148.648 63.2266 148.914 61.5156 149.445 59.9531C149.977 58.375 150.758 57.0078 151.789 55.8516C152.82 54.6953 154.094 53.7969 155.609 53.1562C157.125 52.5 158.875 52.1719 160.859 52.1719C162.859 52.1719 164.617 52.5 166.133 53.1562C167.664 53.7969 168.945 54.6953 169.977 55.8516C171.008 57.0078 171.789 58.375 172.32 59.9531C172.852 61.5156 173.117 63.2266 173.117 65.0859V65.5781C173.117 67.4219 172.852 69.1328 172.32 70.7109C171.789 72.2734 171.008 73.6406 169.977 74.8125C168.945 75.9688 167.672 76.8672 166.156 77.5078C164.641 78.1484 162.891 78.4688 160.906 78.4688C158.922 78.4688 157.164 78.1484 155.633 77.5078C154.102 76.8672 152.82 75.9688 151.789 74.8125C150.758 73.6406 149.977 72.2734 149.445 70.7109C148.914 69.1328 148.648 67.4219 148.648 65.5781ZM156.547 65.0859V65.5781C156.547 66.5312 156.617 67.4219 156.758 68.25C156.898 69.0781 157.133 69.8047 157.461 70.4297C157.789 71.0391 158.234 71.5156 158.797 71.8594C159.359 72.2031 160.062 72.375 160.906 72.375C161.734 72.375 162.422 72.2031 162.969 71.8594C163.531 71.5156 163.977 71.0391 164.305 70.4297C164.633 69.8047 164.867 69.0781 165.008 68.25C165.148 67.4219 165.219 66.5312 165.219 65.5781V65.0859C165.219 64.1641 165.148 63.2969 165.008 62.4844C164.867 61.6562 164.633 60.9297 164.305 60.3047C163.977 59.6641 163.531 59.1641 162.969 58.8047C162.406 58.4453 161.703 58.2656 160.859 58.2656C160.031 58.2656 159.336 58.4453 158.773 58.8047C158.227 59.1641 157.789 59.6641 157.461 60.3047C157.133 60.9297 156.898 61.6562 156.758 62.4844C156.617 63.2969 156.547 64.1641 156.547 65.0859ZM189.992 52.6406V58.125H174.711V52.6406H189.992ZM177.922 46.3359H185.82V69.7266C185.82 70.3984 185.898 70.9219 186.055 71.2969C186.211 71.6562 186.477 71.9141 186.852 72.0703C187.242 72.2109 187.758 72.2812 188.398 72.2812C188.852 72.2812 189.227 72.2734 189.523 72.2578C189.82 72.2266 190.102 72.1875 190.367 72.1406V77.7891C189.695 78.0078 188.992 78.1719 188.258 78.2812C187.523 78.4062 186.742 78.4688 185.914 78.4688C184.227 78.4688 182.781 78.2031 181.578 77.6719C180.391 77.1406 179.484 76.3047 178.859 75.1641C178.234 74.0234 177.922 72.5391 177.922 70.7109V46.3359ZM200.914 75.0234L207.477 52.6406H215.961L205.766 81.7734C205.547 82.4141 205.258 83.1016 204.898 83.8359C204.539 84.5859 204.047 85.2969 203.422 85.9688C202.797 86.6406 201.992 87.1875 201.008 87.6094C200.039 88.0312 198.836 88.2422 197.398 88.2422C196.633 88.2422 196.07 88.2031 195.711 88.125C195.367 88.0625 194.836 87.9453 194.117 87.7734V82.125C194.32 82.125 194.492 82.125 194.633 82.125C194.789 82.125 194.961 82.125 195.148 82.125C195.992 82.125 196.664 82.0391 197.164 81.8672C197.68 81.6953 198.07 81.4453 198.336 81.1172C198.617 80.7891 198.836 80.3906 198.992 79.9219L200.914 75.0234ZM199.25 52.6406L204.242 70.3828L205.109 78.75H199.812L190.789 52.6406H199.25ZM225.992 57.5156V87.75H218.094V52.6406H225.453L225.992 57.5156ZM241.555 65.0156V65.5078C241.555 67.3516 241.344 69.0625 240.922 70.6406C240.5 72.2188 239.875 73.5938 239.047 74.7656C238.219 75.9375 237.188 76.8516 235.953 77.5078C234.734 78.1484 233.32 78.4688 231.711 78.4688C230.195 78.4688 228.891 78.1328 227.797 77.4609C226.703 76.7891 225.789 75.8594 225.055 74.6719C224.32 73.4844 223.727 72.125 223.273 70.5938C222.82 69.0625 222.461 67.4453 222.195 65.7422V65.1094C222.461 63.2812 222.82 61.5859 223.273 60.0234C223.727 58.4453 224.32 57.0703 225.055 55.8984C225.789 54.7266 226.695 53.8125 227.773 53.1562C228.867 52.5 230.172 52.1719 231.688 52.1719C233.297 52.1719 234.711 52.4766 235.93 53.0859C237.164 53.6953 238.195 54.5703 239.023 55.7109C239.867 56.8359 240.5 58.1875 240.922 59.7656C241.344 61.3438 241.555 63.0938 241.555 65.0156ZM233.656 65.5078V65.0156C233.656 64.0312 233.586 63.1328 233.445 62.3203C233.305 61.4922 233.078 60.7734 232.766 60.1641C232.469 59.5547 232.07 59.0859 231.57 58.7578C231.07 58.4297 230.453 58.2656 229.719 58.2656C228.875 58.2656 228.164 58.3984 227.586 58.6641C227.023 58.9141 226.57 59.3047 226.227 59.8359C225.898 60.3516 225.664 61 225.523 61.7812C225.398 62.5469 225.344 63.4453 225.359 64.4766V66.3984C225.328 67.5859 225.445 68.6328 225.711 69.5391C225.977 70.4297 226.438 71.125 227.094 71.625C227.75 72.125 228.641 72.375 229.766 72.375C230.516 72.375 231.141 72.2031 231.641 71.8594C232.141 71.5 232.539 71.0078 232.836 70.3828C233.133 69.7422 233.344 69.0078 233.469 68.1797C233.594 67.3516 233.656 66.4609 233.656 65.5078ZM253.414 52.6406V78H245.492V52.6406H253.414ZM245.023 46.1016C245.023 44.9766 245.43 44.0547 246.242 43.3359C247.055 42.6172 248.109 42.2578 249.406 42.2578C250.703 42.2578 251.758 42.6172 252.57 43.3359C253.383 44.0547 253.789 44.9766 253.789 46.1016C253.789 47.2266 253.383 48.1484 252.57 48.8672C251.758 49.5859 250.703 49.9453 249.406 49.9453C248.109 49.9453 247.055 49.5859 246.242 48.8672C245.43 48.1484 245.023 47.2266 245.023 46.1016ZM266.047 58.0547V78H258.148V52.6406H265.555L266.047 58.0547ZM265.109 64.4531L263.258 64.5C263.258 62.5625 263.492 60.8359 263.961 59.3203C264.43 57.7891 265.094 56.4922 265.953 55.4297C266.812 54.3672 267.836 53.5625 269.023 53.0156C270.227 52.4531 271.562 52.1719 273.031 52.1719C274.203 52.1719 275.273 52.3438 276.242 52.6875C277.227 53.0312 278.07 53.5859 278.773 54.3516C279.492 55.1172 280.039 56.1328 280.414 57.3984C280.805 58.6484 281 60.1953 281 62.0391V78H273.055V62.0156C273.055 61 272.914 60.2266 272.633 59.6953C272.352 59.1484 271.945 58.7734 271.414 58.5703C270.883 58.3672 270.234 58.2656 269.469 58.2656C268.656 58.2656 267.969 58.4219 267.406 58.7344C266.844 59.0469 266.391 59.4844 266.047 60.0469C265.719 60.5938 265.477 61.2422 265.32 61.9922C265.18 62.7422 265.109 63.5625 265.109 64.4531ZM301.32 52.6406H308.492V77.0156C308.492 79.3594 307.953 81.3438 306.875 82.9688C305.797 84.6094 304.289 85.8516 302.352 86.6953C300.43 87.5547 298.18 87.9844 295.602 87.9844C294.461 87.9844 293.297 87.8359 292.109 87.5391C290.922 87.2578 289.812 86.8359 288.781 86.2734C287.75 85.7109 286.883 85.0156 286.18 84.1875L289.484 79.5469C290.125 80.2656 290.93 80.875 291.898 81.375C292.867 81.8906 294.008 82.1484 295.32 82.1484C296.461 82.1484 297.414 81.9453 298.18 81.5391C298.961 81.1328 299.555 80.5391 299.961 79.7578C300.367 78.9922 300.57 78.0625 300.57 76.9688V58.6406L301.32 52.6406ZM284.469 65.625V65.1328C284.469 63.2109 284.703 61.4609 285.172 59.8828C285.656 58.2891 286.344 56.9219 287.234 55.7812C288.141 54.625 289.234 53.7344 290.516 53.1094C291.797 52.4844 293.242 52.1719 294.852 52.1719C296.586 52.1719 298.008 52.5078 299.117 53.1797C300.242 53.8359 301.141 54.7578 301.812 55.9453C302.5 57.1328 303.031 58.5234 303.406 60.1172C303.797 61.6953 304.125 63.3984 304.391 65.2266V65.8125C304.125 67.5312 303.758 69.1562 303.289 70.6875C302.836 72.2031 302.242 73.5469 301.508 74.7188C300.773 75.8906 299.852 76.8125 298.742 77.4844C297.648 78.1406 296.336 78.4688 294.805 78.4688C293.211 78.4688 291.773 78.1484 290.492 77.5078C289.227 76.8672 288.141 75.9688 287.234 74.8125C286.344 73.6562 285.656 72.2969 285.172 70.7344C284.703 69.1719 284.469 67.4688 284.469 65.625ZM292.367 65.1328V65.625C292.367 66.5781 292.453 67.4609 292.625 68.2734C292.812 69.0859 293.094 69.8047 293.469 70.4297C293.844 71.0391 294.305 71.5156 294.852 71.8594C295.414 72.2031 296.07 72.375 296.82 72.375C297.961 72.375 298.883 72.1328 299.586 71.6484C300.289 71.1641 300.797 70.4766 301.109 69.5859C301.422 68.6953 301.555 67.6484 301.508 66.4453V64.5938C301.539 63.5625 301.469 62.6562 301.297 61.875C301.125 61.0781 300.852 60.4141 300.477 59.8828C300.117 59.3516 299.633 58.9531 299.023 58.6875C298.43 58.4062 297.711 58.2656 296.867 58.2656C296.133 58.2656 295.484 58.4375 294.922 58.7812C294.359 59.125 293.891 59.6094 293.516 60.2344C293.141 60.8438 292.852 61.5703 292.648 62.4141C292.461 63.2422 292.367 64.1484 292.367 65.1328Z" fill="black"/>
<path d="M1134 0H1348C1356.28 0 1363 6.71573 1363 15V107C1363 115.284 1356.28 122 1348 122H1134V0Z" fill="#006624"/>
<path fill-rule="evenodd" clip-rule="evenodd" d="M1202.75 26.0018C1202.75 24.8973 1203.65 24.0018 1204.75 24.0018H1292.25C1293.35 24.0018 1294.25 24.8973 1294.25 26.0018V95.9982C1294.25 97.1027 1293.35 97.9982 1292.25 97.9982H1204.75C1203.65 97.9982 1202.75 97.1027 1202.75 95.9982V26.0018ZM1206.75 28.0018V32.4963H1290.25V28.0018H1206.75ZM1290.25 36.4963H1235.19V93.9982H1290.25V36.4963ZM1231.19 93.9982V36.4963H1206.75V93.9982H1231.19Z" fill="white"/>
<path fill-rule="evenodd" clip-rule="evenodd" d="M1209.72 41.8022C1209.72 40.6976 1210.62 39.8022 1211.72 39.8022H1225.72C1226.83 39.8022 1227.72 40.6976 1227.72 41.8022V61.1974C1227.72 62.302 1226.83 63.1974 1225.72 63.1974H1211.72C1210.62 63.1974 1209.72 62.302 1209.72 61.1974V41.8022ZM1213.72 43.8022V59.1974H1223.72V43.8022H1213.72ZM1239.33 42.6982C1239.33 41.5936 1240.22 40.6982 1241.33 40.6982H1284.25C1285.36 40.6982 1286.25 41.5936 1286.25 42.6982V88.9068C1286.25 90.0114 1285.36 90.9068 1284.25 90.9068H1241.33C1240.22 90.9068 1239.33 90.0114 1239.33 88.9068V42.6982ZM1243.33 44.6982V86.9068H1282.25V44.6982H1243.33ZM1209.56 72.9381C1209.56 71.8336 1210.46 70.9381 1211.56 70.9381H1220.48C1221.59 70.9381 1222.48 71.8336 1222.48 72.9381C1222.48 74.0427 1221.59 74.9381 1220.48 74.9381H1211.56C1210.46 74.9381 1209.56 74.0427 1209.56 72.9381ZM1209.56 79.9381C1209.56 78.8335 1210.46 77.9381 1211.56 77.9381H1226.1C1227.21 77.9381 1228.1 78.8335 1228.1 79.9381C1228.1 81.0427 1227.21 81.9381 1226.1 81.9381H1211.56C1210.46 81.9381 1209.56 81.0427 1209.56 79.9381ZM1209.56 86.9381C1209.56 85.8335 1210.46 84.9381 1211.56 84.9381H1220.48C1221.59 84.9381 1222.48 85.8335 1222.48 86.9381C1222.48 88.0427 1221.59 88.9381 1220.48 88.9381H1211.56C1210.46 88.9381 1209.56 88.0427 1209.56 86.9381Z" fill="white"/>
</svg>
