<svg width="1363" height="163" viewBox="0 0 1363 163" fill="none" xmlns="http://www.w3.org/2000/svg">
<rect width="1134" height="163" fill="#F0F0F0"/>
<path d="M64.9062 53.9219L57.3945 51.2383V48.0859L67.6016 52.375V54.6367L64.9062 53.9219ZM57.3945 56.1719L64.918 53.4297L67.6016 52.7852V55.0352L57.3945 59.3242V56.1719ZM89.4219 52.082V58.8438C89.1562 59.1641 88.7461 59.5117 88.1914 59.8867C87.6367 60.2539 86.9219 60.5703 86.0469 60.8359C85.1719 61.1016 84.1133 61.2344 82.8711 61.2344C81.7695 61.2344 80.7656 61.0547 79.8594 60.6953C78.9531 60.3281 78.1719 59.793 77.5156 59.0898C76.8672 58.3867 76.3672 57.5273 76.0156 56.5117C75.6641 55.4883 75.4883 54.3203 75.4883 53.0078V51.9414C75.4883 50.6289 75.6562 49.4609 75.9922 48.4375C76.3359 47.4141 76.8242 46.5508 77.457 45.8477C78.0898 45.1445 78.8438 44.6094 79.7188 44.2422C80.5938 43.875 81.5664 43.6914 82.6367 43.6914C84.1211 43.6914 85.3398 43.9336 86.293 44.418C87.2461 44.8945 87.9727 45.5586 88.4727 46.4102C88.9805 47.2539 89.293 48.2227 89.4102 49.3164H86C85.9141 48.7383 85.75 48.2344 85.5078 47.8047C85.2656 47.375 84.918 47.0391 84.4648 46.7969C84.0195 46.5547 83.4414 46.4336 82.7305 46.4336C82.1445 46.4336 81.6211 46.5547 81.1602 46.7969C80.707 47.0312 80.3242 47.3789 80.0117 47.8398C79.6992 48.3008 79.4609 48.8711 79.2969 49.5508C79.1328 50.2305 79.0508 51.0195 79.0508 51.918V53.0078C79.0508 53.8984 79.1367 54.6875 79.3086 55.375C79.4805 56.0547 79.7344 56.6289 80.0703 57.0977C80.4141 57.5586 80.8359 57.9062 81.3359 58.1406C81.8359 58.375 82.418 58.4922 83.082 58.4922C83.6367 58.4922 84.0977 58.4453 84.4648 58.3516C84.8398 58.2578 85.1406 58.1445 85.3672 58.0117C85.6016 57.8711 85.7812 57.7383 85.9062 57.6133V54.5898H82.6953V52.082H89.4219ZM95.4219 51.0859V61H92.0469V48.3203H95.2227L95.4219 51.0859ZM99.2422 48.2383L99.1836 51.3672C99.0195 51.3438 98.8203 51.3242 98.5859 51.3086C98.3594 51.2852 98.1523 51.2734 97.9648 51.2734C97.4883 51.2734 97.0742 51.3359 96.7227 51.4609C96.3789 51.5781 96.0898 51.7539 95.8555 51.9883C95.6289 52.2227 95.457 52.5078 95.3398 52.8438C95.2305 53.1797 95.168 53.5625 95.1523 53.9922L94.4727 53.7812C94.4727 52.9609 94.5547 52.207 94.7188 51.5195C94.8828 50.8242 95.1211 50.2188 95.4336 49.7031C95.7539 49.1875 96.1445 48.7891 96.6055 48.5078C97.0664 48.2266 97.5938 48.0859 98.1875 48.0859C98.375 48.0859 98.5664 48.1016 98.7617 48.1328C98.957 48.1562 99.1172 48.1914 99.2422 48.2383ZM106.438 61.2344C105.453 61.2344 104.57 61.0781 103.789 60.7656C103.008 60.4453 102.344 60.0039 101.797 59.4414C101.258 58.8789 100.844 58.2266 100.555 57.4844C100.266 56.7344 100.121 55.9375 100.121 55.0938V54.625C100.121 53.6641 100.258 52.7852 100.531 51.9883C100.805 51.1914 101.195 50.5 101.703 49.9141C102.219 49.3281 102.844 48.8789 103.578 48.5664C104.312 48.2461 105.141 48.0859 106.062 48.0859C106.961 48.0859 107.758 48.2344 108.453 48.5312C109.148 48.8281 109.73 49.25 110.199 49.7969C110.676 50.3438 111.035 51 111.277 51.7656C111.52 52.5234 111.641 53.3672 111.641 54.2969V55.7031H101.562V53.4531H108.324V53.1953C108.324 52.7266 108.238 52.3086 108.066 51.9414C107.902 51.5664 107.652 51.2695 107.316 51.0508C106.98 50.832 106.551 50.7227 106.027 50.7227C105.582 50.7227 105.199 50.8203 104.879 51.0156C104.559 51.2109 104.297 51.4844 104.094 51.8359C103.898 52.1875 103.75 52.6016 103.648 53.0781C103.555 53.5469 103.508 54.0625 103.508 54.625V55.0938C103.508 55.6016 103.578 56.0703 103.719 56.5C103.867 56.9297 104.074 57.3008 104.34 57.6133C104.613 57.9258 104.941 58.168 105.324 58.3398C105.715 58.5117 106.156 58.5977 106.648 58.5977C107.258 58.5977 107.824 58.4805 108.348 58.2461C108.879 58.0039 109.336 57.6406 109.719 57.1562L111.359 58.9375C111.094 59.3203 110.73 59.6875 110.27 60.0391C109.816 60.3906 109.27 60.6797 108.629 60.9062C107.988 61.125 107.258 61.2344 106.438 61.2344ZM119.398 61.2344C118.414 61.2344 117.531 61.0781 116.75 60.7656C115.969 60.4453 115.305 60.0039 114.758 59.4414C114.219 58.8789 113.805 58.2266 113.516 57.4844C113.227 56.7344 113.082 55.9375 113.082 55.0938V54.625C113.082 53.6641 113.219 52.7852 113.492 51.9883C113.766 51.1914 114.156 50.5 114.664 49.9141C115.18 49.3281 115.805 48.8789 116.539 48.5664C117.273 48.2461 118.102 48.0859 119.023 48.0859C119.922 48.0859 120.719 48.2344 121.414 48.5312C122.109 48.8281 122.691 49.25 123.16 49.7969C123.637 50.3438 123.996 51 124.238 51.7656C124.48 52.5234 124.602 53.3672 124.602 54.2969V55.7031H114.523V53.4531H121.285V53.1953C121.285 52.7266 121.199 52.3086 121.027 51.9414C120.863 51.5664 120.613 51.2695 120.277 51.0508C119.941 50.832 119.512 50.7227 118.988 50.7227C118.543 50.7227 118.16 50.8203 117.84 51.0156C117.52 51.2109 117.258 51.4844 117.055 51.8359C116.859 52.1875 116.711 52.6016 116.609 53.0781C116.516 53.5469 116.469 54.0625 116.469 54.625V55.0938C116.469 55.6016 116.539 56.0703 116.68 56.5C116.828 56.9297 117.035 57.3008 117.301 57.6133C117.574 57.9258 117.902 58.168 118.285 58.3398C118.676 58.5117 119.117 58.5977 119.609 58.5977C120.219 58.5977 120.785 58.4805 121.309 58.2461C121.84 58.0039 122.297 57.6406 122.68 57.1562L124.32 58.9375C124.055 59.3203 123.691 59.6875 123.23 60.0391C122.777 60.3906 122.23 60.6797 121.59 60.9062C120.949 61.125 120.219 61.2344 119.398 61.2344ZM129.828 51.0273V61H126.453V48.3203H129.617L129.828 51.0273ZM129.336 54.2148H128.422C128.422 53.2773 128.543 52.4336 128.785 51.6836C129.027 50.9258 129.367 50.2812 129.805 49.75C130.242 49.2109 130.762 48.8008 131.363 48.5195C131.973 48.2305 132.652 48.0859 133.402 48.0859C133.996 48.0859 134.539 48.1719 135.031 48.3438C135.523 48.5156 135.945 48.7891 136.297 49.1641C136.656 49.5391 136.93 50.0352 137.117 50.6523C137.312 51.2695 137.41 52.0234 137.41 52.9141V61H134.012V52.9023C134.012 52.3398 133.934 51.9023 133.777 51.5898C133.621 51.2773 133.391 51.0586 133.086 50.9336C132.789 50.8008 132.422 50.7344 131.984 50.7344C131.531 50.7344 131.137 50.8242 130.801 51.0039C130.473 51.1836 130.199 51.4336 129.98 51.7539C129.77 52.0664 129.609 52.4336 129.5 52.8555C129.391 53.2773 129.336 53.7305 129.336 54.2148ZM157.543 50.8867V53.6289H148.637V50.8867H157.543ZM149.68 43.9375V61H146.164V43.9375H149.68ZM160.051 43.9375V61H156.547V43.9375H160.051ZM169.742 58.1406V52.4922C169.742 52.0859 169.676 51.7383 169.543 51.4492C169.41 51.1523 169.203 50.9219 168.922 50.7578C168.648 50.5938 168.293 50.5117 167.855 50.5117C167.48 50.5117 167.156 50.5781 166.883 50.7109C166.609 50.8359 166.398 51.0195 166.25 51.2617C166.102 51.4961 166.027 51.7734 166.027 52.0938H162.652C162.652 51.5547 162.777 51.043 163.027 50.5586C163.277 50.0742 163.641 49.6484 164.117 49.2812C164.594 48.9062 165.16 48.6133 165.816 48.4023C166.48 48.1914 167.223 48.0859 168.043 48.0859C169.027 48.0859 169.902 48.25 170.668 48.5781C171.434 48.9062 172.035 49.3984 172.473 50.0547C172.918 50.7109 173.141 51.5312 173.141 52.5156V57.9414C173.141 58.6367 173.184 59.207 173.27 59.6523C173.355 60.0898 173.48 60.4727 173.645 60.8008V61H170.234C170.07 60.6562 169.945 60.2266 169.859 59.7109C169.781 59.1875 169.742 58.6641 169.742 58.1406ZM170.188 53.2773L170.211 55.1875H168.324C167.879 55.1875 167.492 55.2383 167.164 55.3398C166.836 55.4414 166.566 55.5859 166.355 55.7734C166.145 55.9531 165.988 56.1641 165.887 56.4062C165.793 56.6484 165.746 56.9141 165.746 57.2031C165.746 57.4922 165.812 57.7539 165.945 57.9883C166.078 58.2148 166.27 58.3945 166.52 58.5273C166.77 58.6523 167.062 58.7148 167.398 58.7148C167.906 58.7148 168.348 58.6133 168.723 58.4102C169.098 58.207 169.387 57.957 169.59 57.6602C169.801 57.3633 169.91 57.082 169.918 56.8164L170.809 58.2461C170.684 58.5664 170.512 58.8984 170.293 59.2422C170.082 59.5859 169.812 59.9102 169.484 60.2148C169.156 60.5117 168.762 60.7578 168.301 60.9531C167.84 61.1406 167.293 61.2344 166.66 61.2344C165.855 61.2344 165.125 61.0742 164.469 60.7539C163.82 60.4258 163.305 59.9766 162.922 59.4062C162.547 58.8281 162.359 58.1719 162.359 57.4375C162.359 56.7734 162.484 56.1836 162.734 55.668C162.984 55.1523 163.352 54.7188 163.836 54.3672C164.328 54.0078 164.941 53.7383 165.676 53.5586C166.41 53.3711 167.262 53.2773 168.23 53.2773H170.188ZM179.867 58.5391L182.68 48.3203H186.207L181.93 61H179.797L179.867 58.5391ZM177.934 48.3203L180.758 58.5508L180.816 61H178.672L174.395 48.3203H177.934ZM193.391 61.2344C192.406 61.2344 191.523 61.0781 190.742 60.7656C189.961 60.4453 189.297 60.0039 188.75 59.4414C188.211 58.8789 187.797 58.2266 187.508 57.4844C187.219 56.7344 187.074 55.9375 187.074 55.0938V54.625C187.074 53.6641 187.211 52.7852 187.484 51.9883C187.758 51.1914 188.148 50.5 188.656 49.9141C189.172 49.3281 189.797 48.8789 190.531 48.5664C191.266 48.2461 192.094 48.0859 193.016 48.0859C193.914 48.0859 194.711 48.2344 195.406 48.5312C196.102 48.8281 196.684 49.25 197.152 49.7969C197.629 50.3438 197.988 51 198.23 51.7656C198.473 52.5234 198.594 53.3672 198.594 54.2969V55.7031H188.516V53.4531H195.277V53.1953C195.277 52.7266 195.191 52.3086 195.02 51.9414C194.855 51.5664 194.605 51.2695 194.27 51.0508C193.934 50.832 193.504 50.7227 192.98 50.7227C192.535 50.7227 192.152 50.8203 191.832 51.0156C191.512 51.2109 191.25 51.4844 191.047 51.8359C190.852 52.1875 190.703 52.6016 190.602 53.0781C190.508 53.5469 190.461 54.0625 190.461 54.625V55.0938C190.461 55.6016 190.531 56.0703 190.672 56.5C190.82 56.9297 191.027 57.3008 191.293 57.6133C191.566 57.9258 191.895 58.168 192.277 58.3398C192.668 58.5117 193.109 58.5977 193.602 58.5977C194.211 58.5977 194.777 58.4805 195.301 58.2461C195.832 58.0039 196.289 57.6406 196.672 57.1562L198.312 58.9375C198.047 59.3203 197.684 59.6875 197.223 60.0391C196.77 60.3906 196.223 60.6797 195.582 60.9062C194.941 61.125 194.211 61.2344 193.391 61.2344ZM203.82 51.0273V61H200.445V48.3203H203.609L203.82 51.0273ZM203.328 54.2148H202.414C202.414 53.2773 202.535 52.4336 202.777 51.6836C203.02 50.9258 203.359 50.2812 203.797 49.75C204.234 49.2109 204.754 48.8008 205.355 48.5195C205.965 48.2305 206.645 48.0859 207.395 48.0859C207.988 48.0859 208.531 48.1719 209.023 48.3438C209.516 48.5156 209.938 48.7891 210.289 49.1641C210.648 49.5391 210.922 50.0352 211.109 50.6523C211.305 51.2695 211.402 52.0234 211.402 52.9141V61H208.004V52.9023C208.004 52.3398 207.926 51.9023 207.77 51.5898C207.613 51.2773 207.383 51.0586 207.078 50.9336C206.781 50.8008 206.414 50.7344 205.977 50.7344C205.523 50.7344 205.129 50.8242 204.793 51.0039C204.465 51.1836 204.191 51.4336 203.973 51.7539C203.762 52.0664 203.602 52.4336 203.492 52.8555C203.383 53.2773 203.328 53.7305 203.328 54.2148Z" fill="#888888"/>
<path d="M81.5938 98.4219V104.75H64.0859V98.4219H81.5938ZM66.8281 84.875V119H58.6016V84.875H66.8281ZM87.125 84.875V119H78.9219V84.875H87.125ZM90.9922 106.578V106.086C90.9922 104.227 91.2578 102.516 91.7891 100.953C92.3203 99.375 93.1016 98.0078 94.1328 96.8516C95.1641 95.6953 96.4375 94.7969 97.9531 94.1562C99.4688 93.5 101.219 93.1719 103.203 93.1719C105.203 93.1719 106.961 93.5 108.477 94.1562C110.008 94.7969 111.289 95.6953 112.32 96.8516C113.352 98.0078 114.133 99.375 114.664 100.953C115.195 102.516 115.461 104.227 115.461 106.086V106.578C115.461 108.422 115.195 110.133 114.664 111.711C114.133 113.273 113.352 114.641 112.32 115.812C111.289 116.969 110.016 117.867 108.5 118.508C106.984 119.148 105.234 119.469 103.25 119.469C101.266 119.469 99.5078 119.148 97.9766 118.508C96.4453 117.867 95.1641 116.969 94.1328 115.812C93.1016 114.641 92.3203 113.273 91.7891 111.711C91.2578 110.133 90.9922 108.422 90.9922 106.578ZM98.8906 106.086V106.578C98.8906 107.531 98.9609 108.422 99.1016 109.25C99.2422 110.078 99.4766 110.805 99.8047 111.43C100.133 112.039 100.578 112.516 101.141 112.859C101.703 113.203 102.406 113.375 103.25 113.375C104.078 113.375 104.766 113.203 105.312 112.859C105.875 112.516 106.32 112.039 106.648 111.43C106.977 110.805 107.211 110.078 107.352 109.25C107.492 108.422 107.562 107.531 107.562 106.578V106.086C107.562 105.164 107.492 104.297 107.352 103.484C107.211 102.656 106.977 101.93 106.648 101.305C106.32 100.664 105.875 100.164 105.312 99.8047C104.75 99.4453 104.047 99.2656 103.203 99.2656C102.375 99.2656 101.68 99.4453 101.117 99.8047C100.57 100.164 100.133 100.664 99.8047 101.305C99.4766 101.93 99.2422 102.656 99.1016 103.484C98.9609 104.297 98.8906 105.164 98.8906 106.086ZM126.688 111.453L131.375 93.6406H136.32L134.562 102.57L129.922 119H125.961L126.688 111.453ZM124.836 93.6406L127.742 111.312L128.07 119H123.266L117.266 93.6406H124.836ZM140.492 110.938L143.422 93.6406H150.992L145.039 119H140.234L140.492 110.938ZM136.883 93.6406L141.617 111.406L142.344 119H138.336L133.789 102.617L132.102 93.6406H136.883ZM181.297 84.875V119H173.07V84.875H181.297ZM191.562 84.875V91.2266H163.039V84.875H191.562ZM188.773 106.578V106.086C188.773 104.227 189.039 102.516 189.57 100.953C190.102 99.375 190.883 98.0078 191.914 96.8516C192.945 95.6953 194.219 94.7969 195.734 94.1562C197.25 93.5 199 93.1719 200.984 93.1719C202.984 93.1719 204.742 93.5 206.258 94.1562C207.789 94.7969 209.07 95.6953 210.102 96.8516C211.133 98.0078 211.914 99.375 212.445 100.953C212.977 102.516 213.242 104.227 213.242 106.086V106.578C213.242 108.422 212.977 110.133 212.445 111.711C211.914 113.273 211.133 114.641 210.102 115.812C209.07 116.969 207.797 117.867 206.281 118.508C204.766 119.148 203.016 119.469 201.031 119.469C199.047 119.469 197.289 119.148 195.758 118.508C194.227 117.867 192.945 116.969 191.914 115.812C190.883 114.641 190.102 113.273 189.57 111.711C189.039 110.133 188.773 108.422 188.773 106.578ZM196.672 106.086V106.578C196.672 107.531 196.742 108.422 196.883 109.25C197.023 110.078 197.258 110.805 197.586 111.43C197.914 112.039 198.359 112.516 198.922 112.859C199.484 113.203 200.188 113.375 201.031 113.375C201.859 113.375 202.547 113.203 203.094 112.859C203.656 112.516 204.102 112.039 204.43 111.43C204.758 110.805 204.992 110.078 205.133 109.25C205.273 108.422 205.344 107.531 205.344 106.578V106.086C205.344 105.164 205.273 104.297 205.133 103.484C204.992 102.656 204.758 101.93 204.43 101.305C204.102 100.664 203.656 100.164 203.094 99.8047C202.531 99.4453 201.828 99.2656 200.984 99.2656C200.156 99.2656 199.461 99.4453 198.898 99.8047C198.352 100.164 197.914 100.664 197.586 101.305C197.258 101.93 197.023 102.656 196.883 103.484C196.742 104.297 196.672 105.164 196.672 106.086ZM229.086 84.875H242.516C245.141 84.875 247.422 85.2656 249.359 86.0469C251.297 86.8281 252.789 87.9844 253.836 89.5156C254.898 91.0469 255.43 92.9375 255.43 95.1875C255.43 97.1406 255.125 98.7734 254.516 100.086C253.906 101.398 253.055 102.484 251.961 103.344C250.883 104.188 249.625 104.883 248.188 105.43L245.492 106.953H234.219L234.172 100.602H242.516C243.562 100.602 244.43 100.414 245.117 100.039C245.805 99.6641 246.32 99.1328 246.664 98.4453C247.023 97.7422 247.203 96.9062 247.203 95.9375C247.203 94.9531 247.023 94.1094 246.664 93.4062C246.305 92.7031 245.773 92.1641 245.07 91.7891C244.383 91.4141 243.531 91.2266 242.516 91.2266H237.312V119H229.086V84.875ZM247.766 119L240.219 103.906L248.938 103.859L256.578 118.648V119H247.766ZM274.836 112.836V93.6406H282.758V119H275.352L274.836 112.836ZM275.586 107.68L277.648 107.633C277.648 109.336 277.445 110.914 277.039 112.367C276.633 113.805 276.031 115.055 275.234 116.117C274.453 117.18 273.484 118.008 272.328 118.602C271.188 119.18 269.867 119.469 268.367 119.469C267.117 119.469 265.969 119.297 264.922 118.953C263.891 118.594 263 118.039 262.25 117.289C261.5 116.523 260.914 115.547 260.492 114.359C260.086 113.156 259.883 111.719 259.883 110.047V93.6406H267.781V110.094C267.781 110.656 267.852 111.141 267.992 111.547C268.133 111.953 268.336 112.297 268.602 112.578C268.867 112.844 269.195 113.047 269.586 113.188C269.992 113.312 270.453 113.375 270.969 113.375C272.156 113.375 273.086 113.125 273.758 112.625C274.43 112.125 274.898 111.445 275.164 110.586C275.445 109.727 275.586 108.758 275.586 107.68ZM294.875 99.0547V119H286.977V93.6406H294.383L294.875 99.0547ZM293.938 105.453L292.086 105.5C292.086 103.562 292.32 101.836 292.789 100.32C293.258 98.7891 293.922 97.4922 294.781 96.4297C295.641 95.3672 296.664 94.5625 297.852 94.0156C299.055 93.4531 300.391 93.1719 301.859 93.1719C303.031 93.1719 304.102 93.3438 305.07 93.6875C306.055 94.0312 306.898 94.5859 307.602 95.3516C308.32 96.1172 308.867 97.1328 309.242 98.3984C309.633 99.6484 309.828 101.195 309.828 103.039V119H301.883V103.016C301.883 102 301.742 101.227 301.461 100.695C301.18 100.148 300.773 99.7734 300.242 99.5703C299.711 99.3672 299.062 99.2656 298.297 99.2656C297.484 99.2656 296.797 99.4219 296.234 99.7344C295.672 100.047 295.219 100.484 294.875 101.047C294.547 101.594 294.305 102.242 294.148 102.992C294.008 103.742 293.938 104.562 293.938 105.453ZM326.773 108.195H320.047C320.047 106.82 320.141 105.609 320.328 104.562C320.531 103.5 320.875 102.547 321.359 101.703C321.844 100.859 322.5 100.078 323.328 99.3594C324.062 98.75 324.695 98.1641 325.227 97.6016C325.758 97.0391 326.164 96.4688 326.445 95.8906C326.727 95.3125 326.867 94.6953 326.867 94.0391C326.867 93.2266 326.75 92.5625 326.516 92.0469C326.297 91.5312 325.961 91.1484 325.508 90.8984C325.07 90.6328 324.516 90.5 323.844 90.5C323.297 90.5 322.781 90.6328 322.297 90.8984C321.828 91.1641 321.445 91.5781 321.148 92.1406C320.852 92.6875 320.688 93.4141 320.656 94.3203H312.711C312.758 91.9922 313.273 90.1016 314.258 88.6484C315.258 87.1797 316.586 86.1094 318.242 85.4375C319.914 84.75 321.781 84.4062 323.844 84.4062C326.125 84.4062 328.086 84.7578 329.727 85.4609C331.367 86.1641 332.625 87.2109 333.5 88.6016C334.375 89.9766 334.812 91.6719 334.812 93.6875C334.812 95.0312 334.555 96.2031 334.039 97.2031C333.539 98.1875 332.859 99.1094 332 99.9688C331.156 100.812 330.211 101.719 329.164 102.688C328.258 103.484 327.641 104.297 327.312 105.125C326.984 105.938 326.805 106.961 326.773 108.195ZM319.086 115.32C319.086 114.195 319.492 113.258 320.305 112.508C321.117 111.742 322.172 111.359 323.469 111.359C324.766 111.359 325.82 111.742 326.633 112.508C327.445 113.258 327.852 114.195 327.852 115.32C327.852 116.445 327.445 117.391 326.633 118.156C325.82 118.906 324.766 119.281 323.469 119.281C322.172 119.281 321.117 118.906 320.305 118.156C319.492 117.391 319.086 116.445 319.086 115.32Z" fill="black"/>
<path d="M1134 0H1348C1356.28 0 1363 6.71573 1363 15V148C1363 156.284 1356.28 163 1348 163H1134V0Z" fill="#006624"/>
<path d="M1260.62 78.8078C1263.81 78.8078 1266.93 79.7552 1269.59 81.5302C1272.25 83.3052 1274.32 85.8281 1275.54 88.7798C1276.76 91.7315 1277.08 94.9795 1276.46 98.1131C1275.84 101.247 1274.3 104.125 1272.04 106.384C1269.78 108.643 1266.9 110.182 1263.77 110.805C1260.63 111.428 1257.39 111.108 1254.43 109.886C1251.48 108.663 1248.96 106.593 1247.18 103.936C1245.41 101.28 1244.46 98.1565 1244.46 94.9616C1244.46 90.6774 1246.16 86.5686 1249.19 83.5392C1252.22 80.5097 1256.33 78.8078 1260.62 78.8078ZM1260.62 73.4232C1256.36 73.4232 1252.19 74.6864 1248.65 77.0531C1245.11 79.4198 1242.35 82.7836 1240.72 86.7192C1239.09 90.6549 1238.66 94.9855 1239.49 99.1636C1240.32 103.342 1242.37 107.179 1245.39 110.192C1248.4 113.204 1252.24 115.255 1256.41 116.086C1260.59 116.917 1264.92 116.491 1268.86 114.861C1272.79 113.23 1276.16 110.47 1278.52 106.928C1280.89 103.386 1282.15 99.2215 1282.15 94.9616C1282.15 89.2493 1279.88 83.7709 1275.85 79.7317C1271.81 75.6924 1266.33 73.4232 1260.62 73.4232Z" fill="white"/>
<path d="M1274.08 46.4999H1220.23C1218.8 46.4999 1217.43 47.0672 1216.42 48.0771C1215.41 49.0869 1214.85 50.4565 1214.85 51.8845V105.731C1214.85 107.159 1215.41 108.528 1216.42 109.538C1217.43 110.548 1218.8 111.115 1220.23 111.115H1231V105.731H1220.23V68.0383H1279.46V51.8845C1279.46 50.4565 1278.89 49.0869 1277.88 48.0771C1276.87 47.0672 1275.5 46.4999 1274.08 46.4999ZM1220.23 62.6537V51.8845H1274.08V62.6537H1220.23Z" fill="white"/>
<path d="M1255.23 86.8848V103.039L1268.69 94.9617L1255.23 86.8848Z" fill="white"/>
</svg>
