<svg width="1363" height="163" viewBox="0 0 1363 163" fill="none" xmlns="http://www.w3.org/2000/svg">
<rect width="1134" height="163" fill="#F0F0F0"/>
<path d="M64.9062 53.9219L57.3945 51.2383V48.0859L67.6016 52.375V54.6367L64.9062 53.9219ZM57.3945 56.1719L64.918 53.4297L67.6016 52.7852V55.0352L57.3945 59.3242V56.1719ZM89.4219 52.082V58.8438C89.1562 59.1641 88.7461 59.5117 88.1914 59.8867C87.6367 60.2539 86.9219 60.5703 86.0469 60.8359C85.1719 61.1016 84.1133 61.2344 82.8711 61.2344C81.7695 61.2344 80.7656 61.0547 79.8594 60.6953C78.9531 60.3281 78.1719 59.793 77.5156 59.0898C76.8672 58.3867 76.3672 57.5273 76.0156 56.5117C75.6641 55.4883 75.4883 54.3203 75.4883 53.0078V51.9414C75.4883 50.6289 75.6562 49.4609 75.9922 48.4375C76.3359 47.4141 76.8242 46.5508 77.457 45.8477C78.0898 45.1445 78.8438 44.6094 79.7188 44.2422C80.5938 43.875 81.5664 43.6914 82.6367 43.6914C84.1211 43.6914 85.3398 43.9336 86.293 44.418C87.2461 44.8945 87.9727 45.5586 88.4727 46.4102C88.9805 47.2539 89.293 48.2227 89.4102 49.3164H86C85.9141 48.7383 85.75 48.2344 85.5078 47.8047C85.2656 47.375 84.918 47.0391 84.4648 46.7969C84.0195 46.5547 83.4414 46.4336 82.7305 46.4336C82.1445 46.4336 81.6211 46.5547 81.1602 46.7969C80.707 47.0312 80.3242 47.3789 80.0117 47.8398C79.6992 48.3008 79.4609 48.8711 79.2969 49.5508C79.1328 50.2305 79.0508 51.0195 79.0508 51.918V53.0078C79.0508 53.8984 79.1367 54.6875 79.3086 55.375C79.4805 56.0547 79.7344 56.6289 80.0703 57.0977C80.4141 57.5586 80.8359 57.9062 81.3359 58.1406C81.8359 58.375 82.418 58.4922 83.082 58.4922C83.6367 58.4922 84.0977 58.4453 84.4648 58.3516C84.8398 58.2578 85.1406 58.1445 85.3672 58.0117C85.6016 57.8711 85.7812 57.7383 85.9062 57.6133V54.5898H82.6953V52.082H89.4219ZM95.4219 51.0859V61H92.0469V48.3203H95.2227L95.4219 51.0859ZM99.2422 48.2383L99.1836 51.3672C99.0195 51.3438 98.8203 51.3242 98.5859 51.3086C98.3594 51.2852 98.1523 51.2734 97.9648 51.2734C97.4883 51.2734 97.0742 51.3359 96.7227 51.4609C96.3789 51.5781 96.0898 51.7539 95.8555 51.9883C95.6289 52.2227 95.457 52.5078 95.3398 52.8438C95.2305 53.1797 95.168 53.5625 95.1523 53.9922L94.4727 53.7812C94.4727 52.9609 94.5547 52.207 94.7188 51.5195C94.8828 50.8242 95.1211 50.2188 95.4336 49.7031C95.7539 49.1875 96.1445 48.7891 96.6055 48.5078C97.0664 48.2266 97.5938 48.0859 98.1875 48.0859C98.375 48.0859 98.5664 48.1016 98.7617 48.1328C98.957 48.1562 99.1172 48.1914 99.2422 48.2383ZM106.438 61.2344C105.453 61.2344 104.57 61.0781 103.789 60.7656C103.008 60.4453 102.344 60.0039 101.797 59.4414C101.258 58.8789 100.844 58.2266 100.555 57.4844C100.266 56.7344 100.121 55.9375 100.121 55.0938V54.625C100.121 53.6641 100.258 52.7852 100.531 51.9883C100.805 51.1914 101.195 50.5 101.703 49.9141C102.219 49.3281 102.844 48.8789 103.578 48.5664C104.312 48.2461 105.141 48.0859 106.062 48.0859C106.961 48.0859 107.758 48.2344 108.453 48.5312C109.148 48.8281 109.73 49.25 110.199 49.7969C110.676 50.3438 111.035 51 111.277 51.7656C111.52 52.5234 111.641 53.3672 111.641 54.2969V55.7031H101.562V53.4531H108.324V53.1953C108.324 52.7266 108.238 52.3086 108.066 51.9414C107.902 51.5664 107.652 51.2695 107.316 51.0508C106.98 50.832 106.551 50.7227 106.027 50.7227C105.582 50.7227 105.199 50.8203 104.879 51.0156C104.559 51.2109 104.297 51.4844 104.094 51.8359C103.898 52.1875 103.75 52.6016 103.648 53.0781C103.555 53.5469 103.508 54.0625 103.508 54.625V55.0938C103.508 55.6016 103.578 56.0703 103.719 56.5C103.867 56.9297 104.074 57.3008 104.34 57.6133C104.613 57.9258 104.941 58.168 105.324 58.3398C105.715 58.5117 106.156 58.5977 106.648 58.5977C107.258 58.5977 107.824 58.4805 108.348 58.2461C108.879 58.0039 109.336 57.6406 109.719 57.1562L111.359 58.9375C111.094 59.3203 110.73 59.6875 110.27 60.0391C109.816 60.3906 109.27 60.6797 108.629 60.9062C107.988 61.125 107.258 61.2344 106.438 61.2344ZM119.398 61.2344C118.414 61.2344 117.531 61.0781 116.75 60.7656C115.969 60.4453 115.305 60.0039 114.758 59.4414C114.219 58.8789 113.805 58.2266 113.516 57.4844C113.227 56.7344 113.082 55.9375 113.082 55.0938V54.625C113.082 53.6641 113.219 52.7852 113.492 51.9883C113.766 51.1914 114.156 50.5 114.664 49.9141C115.18 49.3281 115.805 48.8789 116.539 48.5664C117.273 48.2461 118.102 48.0859 119.023 48.0859C119.922 48.0859 120.719 48.2344 121.414 48.5312C122.109 48.8281 122.691 49.25 123.16 49.7969C123.637 50.3438 123.996 51 124.238 51.7656C124.48 52.5234 124.602 53.3672 124.602 54.2969V55.7031H114.523V53.4531H121.285V53.1953C121.285 52.7266 121.199 52.3086 121.027 51.9414C120.863 51.5664 120.613 51.2695 120.277 51.0508C119.941 50.832 119.512 50.7227 118.988 50.7227C118.543 50.7227 118.16 50.8203 117.84 51.0156C117.52 51.2109 117.258 51.4844 117.055 51.8359C116.859 52.1875 116.711 52.6016 116.609 53.0781C116.516 53.5469 116.469 54.0625 116.469 54.625V55.0938C116.469 55.6016 116.539 56.0703 116.68 56.5C116.828 56.9297 117.035 57.3008 117.301 57.6133C117.574 57.9258 117.902 58.168 118.285 58.3398C118.676 58.5117 119.117 58.5977 119.609 58.5977C120.219 58.5977 120.785 58.4805 121.309 58.2461C121.84 58.0039 122.297 57.6406 122.68 57.1562L124.32 58.9375C124.055 59.3203 123.691 59.6875 123.23 60.0391C122.777 60.3906 122.23 60.6797 121.59 60.9062C120.949 61.125 120.219 61.2344 119.398 61.2344ZM129.828 51.0273V61H126.453V48.3203H129.617L129.828 51.0273ZM129.336 54.2148H128.422C128.422 53.2773 128.543 52.4336 128.785 51.6836C129.027 50.9258 129.367 50.2812 129.805 49.75C130.242 49.2109 130.762 48.8008 131.363 48.5195C131.973 48.2305 132.652 48.0859 133.402 48.0859C133.996 48.0859 134.539 48.1719 135.031 48.3438C135.523 48.5156 135.945 48.7891 136.297 49.1641C136.656 49.5391 136.93 50.0352 137.117 50.6523C137.312 51.2695 137.41 52.0234 137.41 52.9141V61H134.012V52.9023C134.012 52.3398 133.934 51.9023 133.777 51.5898C133.621 51.2773 133.391 51.0586 133.086 50.9336C132.789 50.8008 132.422 50.7344 131.984 50.7344C131.531 50.7344 131.137 50.8242 130.801 51.0039C130.473 51.1836 130.199 51.4336 129.98 51.7539C129.77 52.0664 129.609 52.4336 129.5 52.8555C129.391 53.2773 129.336 53.7305 129.336 54.2148ZM157.543 50.8867V53.6289H148.637V50.8867H157.543ZM149.68 43.9375V61H146.164V43.9375H149.68ZM160.051 43.9375V61H156.547V43.9375H160.051ZM169.742 58.1406V52.4922C169.742 52.0859 169.676 51.7383 169.543 51.4492C169.41 51.1523 169.203 50.9219 168.922 50.7578C168.648 50.5938 168.293 50.5117 167.855 50.5117C167.48 50.5117 167.156 50.5781 166.883 50.7109C166.609 50.8359 166.398 51.0195 166.25 51.2617C166.102 51.4961 166.027 51.7734 166.027 52.0938H162.652C162.652 51.5547 162.777 51.043 163.027 50.5586C163.277 50.0742 163.641 49.6484 164.117 49.2812C164.594 48.9062 165.16 48.6133 165.816 48.4023C166.48 48.1914 167.223 48.0859 168.043 48.0859C169.027 48.0859 169.902 48.25 170.668 48.5781C171.434 48.9062 172.035 49.3984 172.473 50.0547C172.918 50.7109 173.141 51.5312 173.141 52.5156V57.9414C173.141 58.6367 173.184 59.207 173.27 59.6523C173.355 60.0898 173.48 60.4727 173.645 60.8008V61H170.234C170.07 60.6562 169.945 60.2266 169.859 59.7109C169.781 59.1875 169.742 58.6641 169.742 58.1406ZM170.188 53.2773L170.211 55.1875H168.324C167.879 55.1875 167.492 55.2383 167.164 55.3398C166.836 55.4414 166.566 55.5859 166.355 55.7734C166.145 55.9531 165.988 56.1641 165.887 56.4062C165.793 56.6484 165.746 56.9141 165.746 57.2031C165.746 57.4922 165.812 57.7539 165.945 57.9883C166.078 58.2148 166.27 58.3945 166.52 58.5273C166.77 58.6523 167.062 58.7148 167.398 58.7148C167.906 58.7148 168.348 58.6133 168.723 58.4102C169.098 58.207 169.387 57.957 169.59 57.6602C169.801 57.3633 169.91 57.082 169.918 56.8164L170.809 58.2461C170.684 58.5664 170.512 58.8984 170.293 59.2422C170.082 59.5859 169.812 59.9102 169.484 60.2148C169.156 60.5117 168.762 60.7578 168.301 60.9531C167.84 61.1406 167.293 61.2344 166.66 61.2344C165.855 61.2344 165.125 61.0742 164.469 60.7539C163.82 60.4258 163.305 59.9766 162.922 59.4062C162.547 58.8281 162.359 58.1719 162.359 57.4375C162.359 56.7734 162.484 56.1836 162.734 55.668C162.984 55.1523 163.352 54.7188 163.836 54.3672C164.328 54.0078 164.941 53.7383 165.676 53.5586C166.41 53.3711 167.262 53.2773 168.23 53.2773H170.188ZM179.867 58.5391L182.68 48.3203H186.207L181.93 61H179.797L179.867 58.5391ZM177.934 48.3203L180.758 58.5508L180.816 61H178.672L174.395 48.3203H177.934ZM193.391 61.2344C192.406 61.2344 191.523 61.0781 190.742 60.7656C189.961 60.4453 189.297 60.0039 188.75 59.4414C188.211 58.8789 187.797 58.2266 187.508 57.4844C187.219 56.7344 187.074 55.9375 187.074 55.0938V54.625C187.074 53.6641 187.211 52.7852 187.484 51.9883C187.758 51.1914 188.148 50.5 188.656 49.9141C189.172 49.3281 189.797 48.8789 190.531 48.5664C191.266 48.2461 192.094 48.0859 193.016 48.0859C193.914 48.0859 194.711 48.2344 195.406 48.5312C196.102 48.8281 196.684 49.25 197.152 49.7969C197.629 50.3438 197.988 51 198.23 51.7656C198.473 52.5234 198.594 53.3672 198.594 54.2969V55.7031H188.516V53.4531H195.277V53.1953C195.277 52.7266 195.191 52.3086 195.02 51.9414C194.855 51.5664 194.605 51.2695 194.27 51.0508C193.934 50.832 193.504 50.7227 192.98 50.7227C192.535 50.7227 192.152 50.8203 191.832 51.0156C191.512 51.2109 191.25 51.4844 191.047 51.8359C190.852 52.1875 190.703 52.6016 190.602 53.0781C190.508 53.5469 190.461 54.0625 190.461 54.625V55.0938C190.461 55.6016 190.531 56.0703 190.672 56.5C190.82 56.9297 191.027 57.3008 191.293 57.6133C191.566 57.9258 191.895 58.168 192.277 58.3398C192.668 58.5117 193.109 58.5977 193.602 58.5977C194.211 58.5977 194.777 58.4805 195.301 58.2461C195.832 58.0039 196.289 57.6406 196.672 57.1562L198.312 58.9375C198.047 59.3203 197.684 59.6875 197.223 60.0391C196.77 60.3906 196.223 60.6797 195.582 60.9062C194.941 61.125 194.211 61.2344 193.391 61.2344ZM203.82 51.0273V61H200.445V48.3203H203.609L203.82 51.0273ZM203.328 54.2148H202.414C202.414 53.2773 202.535 52.4336 202.777 51.6836C203.02 50.9258 203.359 50.2812 203.797 49.75C204.234 49.2109 204.754 48.8008 205.355 48.5195C205.965 48.2305 206.645 48.0859 207.395 48.0859C207.988 48.0859 208.531 48.1719 209.023 48.3438C209.516 48.5156 209.938 48.7891 210.289 49.1641C210.648 49.5391 210.922 50.0352 211.109 50.6523C211.305 51.2695 211.402 52.0234 211.402 52.9141V61H208.004V52.9023C208.004 52.3398 207.926 51.9023 207.77 51.5898C207.613 51.2773 207.383 51.0586 207.078 50.9336C206.781 50.8008 206.414 50.7344 205.977 50.7344C205.523 50.7344 205.129 50.8242 204.793 51.0039C204.465 51.1836 204.191 51.4336 203.973 51.7539C203.762 52.0664 203.602 52.4336 203.492 52.8555C203.383 53.2773 203.328 53.7305 203.328 54.2148Z" fill="#888888"/>
<path d="M72.2188 107.422H63.7344V101.07H72.2188C73.375 101.07 74.3125 100.875 75.0312 100.484C75.75 100.094 76.2734 99.5547 76.6016 98.8672C76.9453 98.1641 77.1172 97.375 77.1172 96.5C77.1172 95.5625 76.9453 94.6953 76.6016 93.8984C76.2734 93.1016 75.75 92.4609 75.0312 91.9766C74.3125 91.4766 73.375 91.2266 72.2188 91.2266H66.8281V119H58.6016V84.875H72.2188C74.9531 84.875 77.3047 85.375 79.2734 86.375C81.2578 87.375 82.7812 88.75 83.8438 90.5C84.9062 92.2344 85.4375 94.2188 85.4375 96.4531C85.4375 98.6562 84.9062 100.578 83.8438 102.219C82.7812 103.859 81.2578 105.141 79.2734 106.062C77.3047 106.969 74.9531 107.422 72.2188 107.422ZM97.4609 99.9219V119H89.5625V93.6406H96.9453L97.4609 99.9219ZM104.961 93.4531L104.82 100.789C104.508 100.758 104.086 100.719 103.555 100.672C103.023 100.625 102.578 100.602 102.219 100.602C101.297 100.602 100.5 100.711 99.8281 100.93C99.1719 101.133 98.625 101.445 98.1875 101.867C97.7656 102.273 97.4531 102.789 97.25 103.414C97.0625 104.039 96.9766 104.766 96.9922 105.594L95.5625 104.656C95.5625 102.953 95.7266 101.406 96.0547 100.016C96.3984 98.6094 96.8828 97.3984 97.5078 96.3828C98.1328 95.3516 98.8906 94.5625 99.7812 94.0156C100.672 93.4531 101.672 93.1719 102.781 93.1719C103.172 93.1719 103.555 93.1953 103.93 93.2422C104.32 93.2891 104.664 93.3594 104.961 93.4531ZM105.852 106.578V106.086C105.852 104.227 106.117 102.516 106.648 100.953C107.18 99.375 107.961 98.0078 108.992 96.8516C110.023 95.6953 111.297 94.7969 112.812 94.1562C114.328 93.5 116.078 93.1719 118.062 93.1719C120.062 93.1719 121.82 93.5 123.336 94.1562C124.867 94.7969 126.148 95.6953 127.18 96.8516C128.211 98.0078 128.992 99.375 129.523 100.953C130.055 102.516 130.32 104.227 130.32 106.086V106.578C130.32 108.422 130.055 110.133 129.523 111.711C128.992 113.273 128.211 114.641 127.18 115.812C126.148 116.969 124.875 117.867 123.359 118.508C121.844 119.148 120.094 119.469 118.109 119.469C116.125 119.469 114.367 119.148 112.836 118.508C111.305 117.867 110.023 116.969 108.992 115.812C107.961 114.641 107.18 113.273 106.648 111.711C106.117 110.133 105.852 108.422 105.852 106.578ZM113.75 106.086V106.578C113.75 107.531 113.82 108.422 113.961 109.25C114.102 110.078 114.336 110.805 114.664 111.43C114.992 112.039 115.438 112.516 116 112.859C116.562 113.203 117.266 113.375 118.109 113.375C118.938 113.375 119.625 113.203 120.172 112.859C120.734 112.516 121.18 112.039 121.508 111.43C121.836 110.805 122.07 110.078 122.211 109.25C122.352 108.422 122.422 107.531 122.422 106.578V106.086C122.422 105.164 122.352 104.297 122.211 103.484C122.07 102.656 121.836 101.93 121.508 101.305C121.18 100.664 120.734 100.164 120.172 99.8047C119.609 99.4453 118.906 99.2656 118.062 99.2656C117.234 99.2656 116.539 99.4453 115.977 99.8047C115.43 100.164 114.992 100.664 114.664 101.305C114.336 101.93 114.102 102.656 113.961 103.484C113.82 104.297 113.75 105.164 113.75 106.086ZM147.195 93.6406V99.125H131.914V93.6406H147.195ZM135.125 87.3359H143.023V110.727C143.023 111.398 143.102 111.922 143.258 112.297C143.414 112.656 143.68 112.914 144.055 113.07C144.445 113.211 144.961 113.281 145.602 113.281C146.055 113.281 146.43 113.273 146.727 113.258C147.023 113.227 147.305 113.188 147.57 113.141V118.789C146.898 119.008 146.195 119.172 145.461 119.281C144.727 119.406 143.945 119.469 143.117 119.469C141.43 119.469 139.984 119.203 138.781 118.672C137.594 118.141 136.688 117.305 136.062 116.164C135.438 115.023 135.125 113.539 135.125 111.711V87.3359ZM148.648 106.578V106.086C148.648 104.227 148.914 102.516 149.445 100.953C149.977 99.375 150.758 98.0078 151.789 96.8516C152.82 95.6953 154.094 94.7969 155.609 94.1562C157.125 93.5 158.875 93.1719 160.859 93.1719C162.859 93.1719 164.617 93.5 166.133 94.1562C167.664 94.7969 168.945 95.6953 169.977 96.8516C171.008 98.0078 171.789 99.375 172.32 100.953C172.852 102.516 173.117 104.227 173.117 106.086V106.578C173.117 108.422 172.852 110.133 172.32 111.711C171.789 113.273 171.008 114.641 169.977 115.812C168.945 116.969 167.672 117.867 166.156 118.508C164.641 119.148 162.891 119.469 160.906 119.469C158.922 119.469 157.164 119.148 155.633 118.508C154.102 117.867 152.82 116.969 151.789 115.812C150.758 114.641 149.977 113.273 149.445 111.711C148.914 110.133 148.648 108.422 148.648 106.578ZM156.547 106.086V106.578C156.547 107.531 156.617 108.422 156.758 109.25C156.898 110.078 157.133 110.805 157.461 111.43C157.789 112.039 158.234 112.516 158.797 112.859C159.359 113.203 160.062 113.375 160.906 113.375C161.734 113.375 162.422 113.203 162.969 112.859C163.531 112.516 163.977 112.039 164.305 111.43C164.633 110.805 164.867 110.078 165.008 109.25C165.148 108.422 165.219 107.531 165.219 106.578V106.086C165.219 105.164 165.148 104.297 165.008 103.484C164.867 102.656 164.633 101.93 164.305 101.305C163.977 100.664 163.531 100.164 162.969 99.8047C162.406 99.4453 161.703 99.2656 160.859 99.2656C160.031 99.2656 159.336 99.4453 158.773 99.8047C158.227 100.164 157.789 100.664 157.461 101.305C157.133 101.93 156.898 102.656 156.758 103.484C156.617 104.297 156.547 105.164 156.547 106.086ZM189.992 93.6406V99.125H174.711V93.6406H189.992ZM177.922 87.3359H185.82V110.727C185.82 111.398 185.898 111.922 186.055 112.297C186.211 112.656 186.477 112.914 186.852 113.07C187.242 113.211 187.758 113.281 188.398 113.281C188.852 113.281 189.227 113.273 189.523 113.258C189.82 113.227 190.102 113.188 190.367 113.141V118.789C189.695 119.008 188.992 119.172 188.258 119.281C187.523 119.406 186.742 119.469 185.914 119.469C184.227 119.469 182.781 119.203 181.578 118.672C180.391 118.141 179.484 117.305 178.859 116.164C178.234 115.023 177.922 113.539 177.922 111.711V87.3359ZM200.914 116.023L207.477 93.6406H215.961L205.766 122.773C205.547 123.414 205.258 124.102 204.898 124.836C204.539 125.586 204.047 126.297 203.422 126.969C202.797 127.641 201.992 128.188 201.008 128.609C200.039 129.031 198.836 129.242 197.398 129.242C196.633 129.242 196.07 129.203 195.711 129.125C195.367 129.062 194.836 128.945 194.117 128.773V123.125C194.32 123.125 194.492 123.125 194.633 123.125C194.789 123.125 194.961 123.125 195.148 123.125C195.992 123.125 196.664 123.039 197.164 122.867C197.68 122.695 198.07 122.445 198.336 122.117C198.617 121.789 198.836 121.391 198.992 120.922L200.914 116.023ZM199.25 93.6406L204.242 111.383L205.109 119.75H199.812L190.789 93.6406H199.25ZM225.992 98.5156V128.75H218.094V93.6406H225.453L225.992 98.5156ZM241.555 106.016V106.508C241.555 108.352 241.344 110.062 240.922 111.641C240.5 113.219 239.875 114.594 239.047 115.766C238.219 116.938 237.188 117.852 235.953 118.508C234.734 119.148 233.32 119.469 231.711 119.469C230.195 119.469 228.891 119.133 227.797 118.461C226.703 117.789 225.789 116.859 225.055 115.672C224.32 114.484 223.727 113.125 223.273 111.594C222.82 110.062 222.461 108.445 222.195 106.742V106.109C222.461 104.281 222.82 102.586 223.273 101.023C223.727 99.4453 224.32 98.0703 225.055 96.8984C225.789 95.7266 226.695 94.8125 227.773 94.1562C228.867 93.5 230.172 93.1719 231.688 93.1719C233.297 93.1719 234.711 93.4766 235.93 94.0859C237.164 94.6953 238.195 95.5703 239.023 96.7109C239.867 97.8359 240.5 99.1875 240.922 100.766C241.344 102.344 241.555 104.094 241.555 106.016ZM233.656 106.508V106.016C233.656 105.031 233.586 104.133 233.445 103.32C233.305 102.492 233.078 101.773 232.766 101.164C232.469 100.555 232.07 100.086 231.57 99.7578C231.07 99.4297 230.453 99.2656 229.719 99.2656C228.875 99.2656 228.164 99.3984 227.586 99.6641C227.023 99.9141 226.57 100.305 226.227 100.836C225.898 101.352 225.664 102 225.523 102.781C225.398 103.547 225.344 104.445 225.359 105.477V107.398C225.328 108.586 225.445 109.633 225.711 110.539C225.977 111.43 226.438 112.125 227.094 112.625C227.75 113.125 228.641 113.375 229.766 113.375C230.516 113.375 231.141 113.203 231.641 112.859C232.141 112.5 232.539 112.008 232.836 111.383C233.133 110.742 233.344 110.008 233.469 109.18C233.594 108.352 233.656 107.461 233.656 106.508ZM253.414 93.6406V119H245.492V93.6406H253.414ZM245.023 87.1016C245.023 85.9766 245.43 85.0547 246.242 84.3359C247.055 83.6172 248.109 83.2578 249.406 83.2578C250.703 83.2578 251.758 83.6172 252.57 84.3359C253.383 85.0547 253.789 85.9766 253.789 87.1016C253.789 88.2266 253.383 89.1484 252.57 89.8672C251.758 90.5859 250.703 90.9453 249.406 90.9453C248.109 90.9453 247.055 90.5859 246.242 89.8672C245.43 89.1484 245.023 88.2266 245.023 87.1016ZM266.047 99.0547V119H258.148V93.6406H265.555L266.047 99.0547ZM265.109 105.453L263.258 105.5C263.258 103.562 263.492 101.836 263.961 100.32C264.43 98.7891 265.094 97.4922 265.953 96.4297C266.812 95.3672 267.836 94.5625 269.023 94.0156C270.227 93.4531 271.562 93.1719 273.031 93.1719C274.203 93.1719 275.273 93.3438 276.242 93.6875C277.227 94.0312 278.07 94.5859 278.773 95.3516C279.492 96.1172 280.039 97.1328 280.414 98.3984C280.805 99.6484 281 101.195 281 103.039V119H273.055V103.016C273.055 102 272.914 101.227 272.633 100.695C272.352 100.148 271.945 99.7734 271.414 99.5703C270.883 99.3672 270.234 99.2656 269.469 99.2656C268.656 99.2656 267.969 99.4219 267.406 99.7344C266.844 100.047 266.391 100.484 266.047 101.047C265.719 101.594 265.477 102.242 265.32 102.992C265.18 103.742 265.109 104.562 265.109 105.453ZM301.32 93.6406H308.492V118.016C308.492 120.359 307.953 122.344 306.875 123.969C305.797 125.609 304.289 126.852 302.352 127.695C300.43 128.555 298.18 128.984 295.602 128.984C294.461 128.984 293.297 128.836 292.109 128.539C290.922 128.258 289.812 127.836 288.781 127.273C287.75 126.711 286.883 126.016 286.18 125.188L289.484 120.547C290.125 121.266 290.93 121.875 291.898 122.375C292.867 122.891 294.008 123.148 295.32 123.148C296.461 123.148 297.414 122.945 298.18 122.539C298.961 122.133 299.555 121.539 299.961 120.758C300.367 119.992 300.57 119.062 300.57 117.969V99.6406L301.32 93.6406ZM284.469 106.625V106.133C284.469 104.211 284.703 102.461 285.172 100.883C285.656 99.2891 286.344 97.9219 287.234 96.7812C288.141 95.625 289.234 94.7344 290.516 94.1094C291.797 93.4844 293.242 93.1719 294.852 93.1719C296.586 93.1719 298.008 93.5078 299.117 94.1797C300.242 94.8359 301.141 95.7578 301.812 96.9453C302.5 98.1328 303.031 99.5234 303.406 101.117C303.797 102.695 304.125 104.398 304.391 106.227V106.812C304.125 108.531 303.758 110.156 303.289 111.688C302.836 113.203 302.242 114.547 301.508 115.719C300.773 116.891 299.852 117.812 298.742 118.484C297.648 119.141 296.336 119.469 294.805 119.469C293.211 119.469 291.773 119.148 290.492 118.508C289.227 117.867 288.141 116.969 287.234 115.812C286.344 114.656 285.656 113.297 285.172 111.734C284.703 110.172 284.469 108.469 284.469 106.625ZM292.367 106.133V106.625C292.367 107.578 292.453 108.461 292.625 109.273C292.812 110.086 293.094 110.805 293.469 111.43C293.844 112.039 294.305 112.516 294.852 112.859C295.414 113.203 296.07 113.375 296.82 113.375C297.961 113.375 298.883 113.133 299.586 112.648C300.289 112.164 300.797 111.477 301.109 110.586C301.422 109.695 301.555 108.648 301.508 107.445V105.594C301.539 104.562 301.469 103.656 301.297 102.875C301.125 102.078 300.852 101.414 300.477 100.883C300.117 100.352 299.633 99.9531 299.023 99.6875C298.43 99.4062 297.711 99.2656 296.867 99.2656C296.133 99.2656 295.484 99.4375 294.922 99.7812C294.359 100.125 293.891 100.609 293.516 101.234C293.141 101.844 292.852 102.57 292.648 103.414C292.461 104.242 292.367 105.148 292.367 106.133Z" fill="black"/>
<path d="M1134 0H1348C1356.28 0 1363 6.71573 1363 15V148C1363 156.284 1356.28 163 1348 163H1134V0Z" fill="#006624"/>
<path fill-rule="evenodd" clip-rule="evenodd" d="M1202.75 46.5018C1202.75 45.3973 1203.65 44.5018 1204.75 44.5018H1292.25C1293.35 44.5018 1294.25 45.3973 1294.25 46.5018V116.498C1294.25 117.603 1293.35 118.498 1292.25 118.498H1204.75C1203.65 118.498 1202.75 117.603 1202.75 116.498V46.5018ZM1206.75 48.5018V52.9963H1290.25V48.5018H1206.75ZM1290.25 56.9963H1235.19V114.498H1290.25V56.9963ZM1231.19 114.498V56.9963H1206.75V114.498H1231.19Z" fill="white"/>
<path fill-rule="evenodd" clip-rule="evenodd" d="M1209.72 62.3022C1209.72 61.1976 1210.62 60.3022 1211.72 60.3022H1225.72C1226.83 60.3022 1227.72 61.1976 1227.72 62.3022V81.6974C1227.72 82.802 1226.83 83.6974 1225.72 83.6974H1211.72C1210.62 83.6974 1209.72 82.802 1209.72 81.6974V62.3022ZM1213.72 64.3022V79.6974H1223.72V64.3022H1213.72ZM1239.33 63.1982C1239.33 62.0936 1240.22 61.1982 1241.33 61.1982H1284.25C1285.36 61.1982 1286.25 62.0936 1286.25 63.1982V109.407C1286.25 110.511 1285.36 111.407 1284.25 111.407H1241.33C1240.22 111.407 1239.33 110.511 1239.33 109.407V63.1982ZM1243.33 65.1982V107.407H1282.25V65.1982H1243.33ZM1209.56 93.4381C1209.56 92.3336 1210.46 91.4381 1211.56 91.4381H1220.48C1221.59 91.4381 1222.48 92.3336 1222.48 93.4381C1222.48 94.5427 1221.59 95.4381 1220.48 95.4381H1211.56C1210.46 95.4381 1209.56 94.5427 1209.56 93.4381ZM1209.56 100.438C1209.56 99.3335 1210.46 98.4381 1211.56 98.4381H1226.1C1227.21 98.4381 1228.1 99.3335 1228.1 100.438C1228.1 101.543 1227.21 102.438 1226.1 102.438H1211.56C1210.46 102.438 1209.56 101.543 1209.56 100.438ZM1209.56 107.438C1209.56 106.334 1210.46 105.438 1211.56 105.438H1220.48C1221.59 105.438 1222.48 106.334 1222.48 107.438C1222.48 108.543 1221.59 109.438 1220.48 109.438H1211.56C1210.46 109.438 1209.56 108.543 1209.56 107.438Z" fill="white"/>
</svg>
