<svg width="1363" height="122" viewBox="0 0 1363 122" fill="none" xmlns="http://www.w3.org/2000/svg">
<rect width="1134" height="122" fill="#F0F0F0"/>
<path d="M72.2188 66.4219H63.7344V60.0703H72.2188C73.375 60.0703 74.3125 59.875 75.0312 59.4844C75.75 59.0938 76.2734 58.5547 76.6016 57.8672C76.9453 57.1641 77.1172 56.375 77.1172 55.5C77.1172 54.5625 76.9453 53.6953 76.6016 52.8984C76.2734 52.1016 75.75 51.4609 75.0312 50.9766C74.3125 50.4766 73.375 50.2266 72.2188 50.2266H66.8281V78H58.6016V43.875H72.2188C74.9531 43.875 77.3047 44.375 79.2734 45.375C81.2578 46.375 82.7812 47.75 83.8438 49.5C84.9062 51.2344 85.4375 53.2188 85.4375 55.4531C85.4375 57.6562 84.9062 59.5781 83.8438 61.2188C82.7812 62.8594 81.2578 64.1406 79.2734 65.0625C77.3047 65.9688 74.9531 66.4219 72.2188 66.4219ZM97.4609 58.9219V78H89.5625V52.6406H96.9453L97.4609 58.9219ZM104.961 52.4531L104.82 59.7891C104.508 59.7578 104.086 59.7188 103.555 59.6719C103.023 59.625 102.578 59.6016 102.219 59.6016C101.297 59.6016 100.5 59.7109 99.8281 59.9297C99.1719 60.1328 98.625 60.4453 98.1875 60.8672C97.7656 61.2734 97.4531 61.7891 97.25 62.4141C97.0625 63.0391 96.9766 63.7656 96.9922 64.5938L95.5625 63.6562C95.5625 61.9531 95.7266 60.4062 96.0547 59.0156C96.3984 57.6094 96.8828 56.3984 97.5078 55.3828C98.1328 54.3516 98.8906 53.5625 99.7812 53.0156C100.672 52.4531 101.672 52.1719 102.781 52.1719C103.172 52.1719 103.555 52.1953 103.93 52.2422C104.32 52.2891 104.664 52.3594 104.961 52.4531ZM105.852 65.5781V65.0859C105.852 63.2266 106.117 61.5156 106.648 59.9531C107.18 58.375 107.961 57.0078 108.992 55.8516C110.023 54.6953 111.297 53.7969 112.812 53.1562C114.328 52.5 116.078 52.1719 118.062 52.1719C120.062 52.1719 121.82 52.5 123.336 53.1562C124.867 53.7969 126.148 54.6953 127.18 55.8516C128.211 57.0078 128.992 58.375 129.523 59.9531C130.055 61.5156 130.32 63.2266 130.32 65.0859V65.5781C130.32 67.4219 130.055 69.1328 129.523 70.7109C128.992 72.2734 128.211 73.6406 127.18 74.8125C126.148 75.9688 124.875 76.8672 123.359 77.5078C121.844 78.1484 120.094 78.4688 118.109 78.4688C116.125 78.4688 114.367 78.1484 112.836 77.5078C111.305 76.8672 110.023 75.9688 108.992 74.8125C107.961 73.6406 107.18 72.2734 106.648 70.7109C106.117 69.1328 105.852 67.4219 105.852 65.5781ZM113.75 65.0859V65.5781C113.75 66.5312 113.82 67.4219 113.961 68.25C114.102 69.0781 114.336 69.8047 114.664 70.4297C114.992 71.0391 115.438 71.5156 116 71.8594C116.562 72.2031 117.266 72.375 118.109 72.375C118.938 72.375 119.625 72.2031 120.172 71.8594C120.734 71.5156 121.18 71.0391 121.508 70.4297C121.836 69.8047 122.07 69.0781 122.211 68.25C122.352 67.4219 122.422 66.5312 122.422 65.5781V65.0859C122.422 64.1641 122.352 63.2969 122.211 62.4844C122.07 61.6562 121.836 60.9297 121.508 60.3047C121.18 59.6641 120.734 59.1641 120.172 58.8047C119.609 58.4453 118.906 58.2656 118.062 58.2656C117.234 58.2656 116.539 58.4453 115.977 58.8047C115.43 59.1641 114.992 59.6641 114.664 60.3047C114.336 60.9297 114.102 61.6562 113.961 62.4844C113.82 63.2969 113.75 64.1641 113.75 65.0859ZM134.422 52.6406H142.344V78.8203C142.344 80.8516 141.953 82.5625 141.172 83.9531C140.391 85.3594 139.273 86.4219 137.82 87.1406C136.367 87.875 134.633 88.2422 132.617 88.2422C131.945 88.2422 131.328 88.2109 130.766 88.1484C130.188 88.1016 129.555 88 128.867 87.8438V81.8672C129.273 81.9297 129.648 81.9766 129.992 82.0078C130.336 82.0547 130.711 82.0781 131.117 82.0781C131.836 82.0781 132.438 81.9609 132.922 81.7266C133.406 81.4922 133.773 81.1328 134.023 80.6484C134.289 80.1641 134.422 79.5547 134.422 78.8203V52.6406ZM133.836 46.1016C133.836 44.9766 134.242 44.0547 135.055 43.3359C135.867 42.6172 136.922 42.2578 138.219 42.2578C139.516 42.2578 140.57 42.6172 141.383 43.3359C142.195 44.0547 142.602 44.9766 142.602 46.1016C142.602 47.2266 142.195 48.1484 141.383 48.8672C140.57 49.5859 139.516 49.9453 138.219 49.9453C136.922 49.9453 135.867 49.5859 135.055 48.8672C134.242 48.1484 133.836 47.2266 133.836 46.1016ZM159.102 78.4688C157.039 78.4688 155.195 78.1484 153.57 77.5078C151.945 76.8516 150.57 75.9531 149.445 74.8125C148.336 73.6719 147.484 72.3594 146.891 70.875C146.312 69.3906 146.023 67.8203 146.023 66.1641V65.2734C146.023 63.4141 146.281 61.6953 146.797 60.1172C147.312 58.5234 148.078 57.1328 149.094 55.9453C150.109 54.7578 151.383 53.8359 152.914 53.1797C154.445 52.5078 156.227 52.1719 158.258 52.1719C160.055 52.1719 161.664 52.4609 163.086 53.0391C164.508 53.6172 165.711 54.4453 166.695 55.5234C167.695 56.6016 168.453 57.9062 168.969 59.4375C169.5 60.9688 169.766 62.6875 169.766 64.5938V67.8047H149.047V62.8594H162.055V62.25C162.07 61.4062 161.922 60.6875 161.609 60.0938C161.312 59.5 160.875 59.0469 160.297 58.7344C159.719 58.4219 159.016 58.2656 158.188 58.2656C157.328 58.2656 156.617 58.4531 156.055 58.8281C155.508 59.2031 155.078 59.7188 154.766 60.375C154.469 61.0156 154.258 61.7578 154.133 62.6016C154.008 63.4453 153.945 64.3359 153.945 65.2734V66.1641C153.945 67.1016 154.07 67.9531 154.32 68.7188C154.586 69.4844 154.961 70.1406 155.445 70.6875C155.945 71.2188 156.539 71.6328 157.227 71.9297C157.93 72.2266 158.727 72.375 159.617 72.375C160.695 72.375 161.758 72.1719 162.805 71.7656C163.852 71.3594 164.75 70.6875 165.5 69.75L169.086 74.0156C168.57 74.75 167.836 75.4609 166.883 76.1484C165.945 76.8359 164.82 77.3984 163.508 77.8359C162.195 78.2578 160.727 78.4688 159.102 78.4688ZM183.688 72.375C184.422 72.375 185.047 72.2422 185.562 71.9766C186.094 71.6953 186.492 71.3047 186.758 70.8047C187.039 70.2891 187.172 69.6719 187.156 68.9531H194.586C194.602 70.8594 194.133 72.5312 193.18 73.9688C192.242 75.3906 190.961 76.5 189.336 77.2969C187.727 78.0781 185.906 78.4688 183.875 78.4688C181.891 78.4688 180.156 78.1484 178.672 77.5078C177.188 76.8516 175.945 75.9453 174.945 74.7891C173.961 73.6172 173.219 72.25 172.719 70.6875C172.234 69.125 171.992 67.4297 171.992 65.6016V65.0625C171.992 63.2344 172.234 61.5391 172.719 59.9766C173.219 58.3984 173.961 57.0312 174.945 55.875C175.945 54.7031 177.18 53.7969 178.648 53.1562C180.133 52.5 181.859 52.1719 183.828 52.1719C185.938 52.1719 187.797 52.5703 189.406 53.3672C191.031 54.1641 192.305 55.3203 193.227 56.8359C194.148 58.3516 194.602 60.1875 194.586 62.3438H187.156C187.172 61.5781 187.055 60.8906 186.805 60.2812C186.555 59.6719 186.164 59.1875 185.633 58.8281C185.117 58.4531 184.453 58.2656 183.641 58.2656C182.828 58.2656 182.172 58.4453 181.672 58.8047C181.172 59.1641 180.789 59.6641 180.523 60.3047C180.273 60.9297 180.102 61.6484 180.008 62.4609C179.93 63.2734 179.891 64.1406 179.891 65.0625V65.6016C179.891 66.5391 179.93 67.4219 180.008 68.25C180.102 69.0625 180.281 69.7812 180.547 70.4062C180.812 71.0156 181.195 71.5 181.695 71.8594C182.195 72.2031 182.859 72.375 183.688 72.375ZM211.32 52.6406V58.125H196.039V52.6406H211.32ZM199.25 46.3359H207.148V69.7266C207.148 70.3984 207.227 70.9219 207.383 71.2969C207.539 71.6562 207.805 71.9141 208.18 72.0703C208.57 72.2109 209.086 72.2812 209.727 72.2812C210.18 72.2812 210.555 72.2734 210.852 72.2578C211.148 72.2266 211.43 72.1875 211.695 72.1406V77.7891C211.023 78.0078 210.32 78.1719 209.586 78.2812C208.852 78.4062 208.07 78.4688 207.242 78.4688C205.555 78.4688 204.109 78.2031 202.906 77.6719C201.719 77.1406 200.812 76.3047 200.188 75.1641C199.562 74.0234 199.25 72.5391 199.25 70.7109V46.3359ZM240.406 66.4219H231.922V60.0703H240.406C241.562 60.0703 242.5 59.875 243.219 59.4844C243.938 59.0938 244.461 58.5547 244.789 57.8672C245.133 57.1641 245.305 56.375 245.305 55.5C245.305 54.5625 245.133 53.6953 244.789 52.8984C244.461 52.1016 243.938 51.4609 243.219 50.9766C242.5 50.4766 241.562 50.2266 240.406 50.2266H235.016V78H226.789V43.875H240.406C243.141 43.875 245.492 44.375 247.461 45.375C249.445 46.375 250.969 47.75 252.031 49.5C253.094 51.2344 253.625 53.2188 253.625 55.4531C253.625 57.6562 253.094 59.5781 252.031 61.2188C250.969 62.8594 249.445 64.1406 247.461 65.0625C245.492 65.9688 243.141 66.4219 240.406 66.4219ZM265.414 42V78H257.516V42H265.414ZM264.477 64.4531L262.625 64.5C262.625 62.7188 262.844 61.0781 263.281 59.5781C263.719 58.0781 264.344 56.7734 265.156 55.6641C265.969 54.5547 266.945 53.6953 268.086 53.0859C269.227 52.4766 270.492 52.1719 271.883 52.1719C273.133 52.1719 274.273 52.3516 275.305 52.7109C276.352 53.0703 277.25 53.6484 278 54.4453C278.766 55.2422 279.352 56.2812 279.758 57.5625C280.18 58.8438 280.391 60.4062 280.391 62.25V78H272.445V62.2031C272.445 61.1719 272.297 60.375 272 59.8125C271.719 59.2344 271.312 58.8359 270.781 58.6172C270.25 58.3828 269.602 58.2656 268.836 58.2656C267.914 58.2656 267.164 58.4219 266.586 58.7344C266.008 59.0469 265.562 59.4844 265.25 60.0469C264.953 60.5938 264.75 61.2422 264.641 61.9922C264.531 62.7422 264.477 63.5625 264.477 64.4531ZM293.117 52.6406V78H285.195V52.6406H293.117ZM284.727 46.1016C284.727 44.9766 285.133 44.0547 285.945 43.3359C286.758 42.6172 287.812 42.2578 289.109 42.2578C290.406 42.2578 291.461 42.6172 292.273 43.3359C293.086 44.0547 293.492 44.9766 293.492 46.1016C293.492 47.2266 293.086 48.1484 292.273 48.8672C291.461 49.5859 290.406 49.9453 289.109 49.9453C287.812 49.9453 286.758 49.5859 285.945 48.8672C285.133 48.1484 284.727 47.2266 284.727 46.1016ZM306.336 42V78H298.414V42H306.336ZM310.227 65.5781V65.0859C310.227 63.2266 310.492 61.5156 311.023 59.9531C311.555 58.375 312.336 57.0078 313.367 55.8516C314.398 54.6953 315.672 53.7969 317.188 53.1562C318.703 52.5 320.453 52.1719 322.438 52.1719C324.438 52.1719 326.195 52.5 327.711 53.1562C329.242 53.7969 330.523 54.6953 331.555 55.8516C332.586 57.0078 333.367 58.375 333.898 59.9531C334.43 61.5156 334.695 63.2266 334.695 65.0859V65.5781C334.695 67.4219 334.43 69.1328 333.898 70.7109C333.367 72.2734 332.586 73.6406 331.555 74.8125C330.523 75.9688 329.25 76.8672 327.734 77.5078C326.219 78.1484 324.469 78.4688 322.484 78.4688C320.5 78.4688 318.742 78.1484 317.211 77.5078C315.68 76.8672 314.398 75.9688 313.367 74.8125C312.336 73.6406 311.555 72.2734 311.023 70.7109C310.492 69.1328 310.227 67.4219 310.227 65.5781ZM318.125 65.0859V65.5781C318.125 66.5312 318.195 67.4219 318.336 68.25C318.477 69.0781 318.711 69.8047 319.039 70.4297C319.367 71.0391 319.812 71.5156 320.375 71.8594C320.938 72.2031 321.641 72.375 322.484 72.375C323.312 72.375 324 72.2031 324.547 71.8594C325.109 71.5156 325.555 71.0391 325.883 70.4297C326.211 69.8047 326.445 69.0781 326.586 68.25C326.727 67.4219 326.797 66.5312 326.797 65.5781V65.0859C326.797 64.1641 326.727 63.2969 326.586 62.4844C326.445 61.6562 326.211 60.9297 325.883 60.3047C325.555 59.6641 325.109 59.1641 324.547 58.8047C323.984 58.4453 323.281 58.2656 322.438 58.2656C321.609 58.2656 320.914 58.4453 320.352 58.8047C319.805 59.1641 319.367 59.6641 319.039 60.3047C318.711 60.9297 318.477 61.6562 318.336 62.4844C318.195 63.2969 318.125 64.1641 318.125 65.0859ZM351.5 70.875C351.5 70.4375 351.352 70.0625 351.055 69.75C350.773 69.4219 350.273 69.125 349.555 68.8594C348.836 68.5781 347.828 68.2969 346.531 68.0156C345.297 67.75 344.133 67.3984 343.039 66.9609C341.961 66.5234 341.016 65.9922 340.203 65.3672C339.391 64.7422 338.75 64 338.281 63.1406C337.828 62.2812 337.602 61.2969 337.602 60.1875C337.602 59.1094 337.828 58.0938 338.281 57.1406C338.75 56.1719 339.43 55.3203 340.32 54.5859C341.227 53.8359 342.328 53.25 343.625 52.8281C344.922 52.3906 346.398 52.1719 348.055 52.1719C350.336 52.1719 352.305 52.5234 353.961 53.2266C355.617 53.9141 356.891 54.8828 357.781 56.1328C358.688 57.3672 359.141 58.7969 359.141 60.4219H351.242C351.242 59.7812 351.133 59.2344 350.914 58.7812C350.711 58.3281 350.375 57.9844 349.906 57.75C349.438 57.5 348.812 57.375 348.031 57.375C347.484 57.375 346.984 57.4766 346.531 57.6797C346.094 57.8828 345.742 58.1641 345.477 58.5234C345.211 58.8828 345.078 59.3047 345.078 59.7891C345.078 60.1328 345.156 60.4453 345.312 60.7266C345.484 60.9922 345.742 61.2422 346.086 61.4766C346.43 61.6953 346.867 61.8984 347.398 62.0859C347.93 62.2578 348.57 62.4141 349.32 62.5547C351.023 62.8672 352.617 63.3125 354.102 63.8906C355.586 64.4688 356.789 65.2891 357.711 66.3516C358.648 67.4141 359.117 68.8438 359.117 70.6406C359.117 71.7656 358.859 72.8047 358.344 73.7578C357.828 74.6953 357.086 75.5234 356.117 76.2422C355.148 76.9453 353.984 77.4922 352.625 77.8828C351.266 78.2734 349.734 78.4688 348.031 78.4688C345.609 78.4688 343.562 78.0391 341.891 77.1797C340.219 76.3047 338.953 75.2109 338.094 73.8984C337.25 72.5703 336.828 71.2266 336.828 69.8672H344.188C344.219 70.6484 344.406 71.2891 344.75 71.7891C345.109 72.2891 345.586 72.6562 346.18 72.8906C346.773 73.125 347.461 73.2422 348.242 73.2422C348.961 73.2422 349.555 73.1406 350.023 72.9375C350.508 72.7344 350.875 72.4609 351.125 72.1172C351.375 71.7578 351.5 71.3438 351.5 70.875ZM361.836 65.5781V65.0859C361.836 63.2266 362.102 61.5156 362.633 59.9531C363.164 58.375 363.945 57.0078 364.977 55.8516C366.008 54.6953 367.281 53.7969 368.797 53.1562C370.312 52.5 372.062 52.1719 374.047 52.1719C376.047 52.1719 377.805 52.5 379.32 53.1562C380.852 53.7969 382.133 54.6953 383.164 55.8516C384.195 57.0078 384.977 58.375 385.508 59.9531C386.039 61.5156 386.305 63.2266 386.305 65.0859V65.5781C386.305 67.4219 386.039 69.1328 385.508 70.7109C384.977 72.2734 384.195 73.6406 383.164 74.8125C382.133 75.9688 380.859 76.8672 379.344 77.5078C377.828 78.1484 376.078 78.4688 374.094 78.4688C372.109 78.4688 370.352 78.1484 368.82 77.5078C367.289 76.8672 366.008 75.9688 364.977 74.8125C363.945 73.6406 363.164 72.2734 362.633 70.7109C362.102 69.1328 361.836 67.4219 361.836 65.5781ZM369.734 65.0859V65.5781C369.734 66.5312 369.805 67.4219 369.945 68.25C370.086 69.0781 370.32 69.8047 370.648 70.4297C370.977 71.0391 371.422 71.5156 371.984 71.8594C372.547 72.2031 373.25 72.375 374.094 72.375C374.922 72.375 375.609 72.2031 376.156 71.8594C376.719 71.5156 377.164 71.0391 377.492 70.4297C377.82 69.8047 378.055 69.0781 378.195 68.25C378.336 67.4219 378.406 66.5312 378.406 65.5781V65.0859C378.406 64.1641 378.336 63.2969 378.195 62.4844C378.055 61.6562 377.82 60.9297 377.492 60.3047C377.164 59.6641 376.719 59.1641 376.156 58.8047C375.594 58.4453 374.891 58.2656 374.047 58.2656C373.219 58.2656 372.523 58.4453 371.961 58.8047C371.414 59.1641 370.977 59.6641 370.648 60.3047C370.32 60.9297 370.086 61.6562 369.945 62.4844C369.805 63.2969 369.734 64.1641 369.734 65.0859ZM397.789 57.5156V87.75H389.891V52.6406H397.25L397.789 57.5156ZM413.352 65.0156V65.5078C413.352 67.3516 413.141 69.0625 412.719 70.6406C412.297 72.2188 411.672 73.5938 410.844 74.7656C410.016 75.9375 408.984 76.8516 407.75 77.5078C406.531 78.1484 405.117 78.4688 403.508 78.4688C401.992 78.4688 400.688 78.1328 399.594 77.4609C398.5 76.7891 397.586 75.8594 396.852 74.6719C396.117 73.4844 395.523 72.125 395.07 70.5938C394.617 69.0625 394.258 67.4453 393.992 65.7422V65.1094C394.258 63.2812 394.617 61.5859 395.07 60.0234C395.523 58.4453 396.117 57.0703 396.852 55.8984C397.586 54.7266 398.492 53.8125 399.57 53.1562C400.664 52.5 401.969 52.1719 403.484 52.1719C405.094 52.1719 406.508 52.4766 407.727 53.0859C408.961 53.6953 409.992 54.5703 410.82 55.7109C411.664 56.8359 412.297 58.1875 412.719 59.7656C413.141 61.3438 413.352 63.0938 413.352 65.0156ZM405.453 65.5078V65.0156C405.453 64.0312 405.383 63.1328 405.242 62.3203C405.102 61.4922 404.875 60.7734 404.562 60.1641C404.266 59.5547 403.867 59.0859 403.367 58.7578C402.867 58.4297 402.25 58.2656 401.516 58.2656C400.672 58.2656 399.961 58.3984 399.383 58.6641C398.82 58.9141 398.367 59.3047 398.023 59.8359C397.695 60.3516 397.461 61 397.32 61.7812C397.195 62.5469 397.141 63.4453 397.156 64.4766V66.3984C397.125 67.5859 397.242 68.6328 397.508 69.5391C397.773 70.4297 398.234 71.125 398.891 71.625C399.547 72.125 400.438 72.375 401.562 72.375C402.312 72.375 402.938 72.2031 403.438 71.8594C403.938 71.5 404.336 71.0078 404.633 70.3828C404.93 69.7422 405.141 69.0078 405.266 68.1797C405.391 67.3516 405.453 66.4609 405.453 65.5078ZM424.602 42V78H416.703V42H424.602ZM423.664 64.4531L421.812 64.5C421.812 62.7188 422.031 61.0781 422.469 59.5781C422.906 58.0781 423.531 56.7734 424.344 55.6641C425.156 54.5547 426.133 53.6953 427.273 53.0859C428.414 52.4766 429.68 52.1719 431.07 52.1719C432.32 52.1719 433.461 52.3516 434.492 52.7109C435.539 53.0703 436.438 53.6484 437.188 54.4453C437.953 55.2422 438.539 56.2812 438.945 57.5625C439.367 58.8438 439.578 60.4062 439.578 62.25V78H431.633V62.2031C431.633 61.1719 431.484 60.375 431.188 59.8125C430.906 59.2344 430.5 58.8359 429.969 58.6172C429.438 58.3828 428.789 58.2656 428.023 58.2656C427.102 58.2656 426.352 58.4219 425.773 58.7344C425.195 59.0469 424.75 59.4844 424.438 60.0469C424.141 60.5938 423.938 61.2422 423.828 61.9922C423.719 62.7422 423.664 63.5625 423.664 64.4531ZM451.742 75.0234L458.305 52.6406H466.789L456.594 81.7734C456.375 82.4141 456.086 83.1016 455.727 83.8359C455.367 84.5859 454.875 85.2969 454.25 85.9688C453.625 86.6406 452.82 87.1875 451.836 87.6094C450.867 88.0312 449.664 88.2422 448.227 88.2422C447.461 88.2422 446.898 88.2031 446.539 88.125C446.195 88.0625 445.664 87.9453 444.945 87.7734V82.125C445.148 82.125 445.32 82.125 445.461 82.125C445.617 82.125 445.789 82.125 445.977 82.125C446.82 82.125 447.492 82.0391 447.992 81.8672C448.508 81.6953 448.898 81.4453 449.164 81.1172C449.445 80.7891 449.664 80.3906 449.82 79.9219L451.742 75.0234ZM450.078 52.6406L455.07 70.3828L455.938 78.75H450.641L441.617 52.6406H450.078Z" fill="black"/>
<path d="M1134 0H1348C1356.28 0 1363 6.71573 1363 15V107C1363 115.284 1356.28 122 1348 122H1134V0Z" fill="#006624"/>
<path d="M1234.26 83.2857H1262.74V88.8571H1234.26V83.2857ZM1239.96 94.4286H1257.04V100H1239.96V94.4286ZM1248.5 22C1240.95 22 1233.71 24.9349 1228.37 30.1592C1223.03 35.3834 1220.03 42.469 1220.03 49.8571C1219.84 53.9057 1220.63 57.9412 1222.34 61.6315C1224.05 65.3219 1226.64 68.5616 1229.88 71.0843C1232.73 73.675 1234.26 75.1514 1234.26 77.7143H1239.96C1239.96 72.5886 1236.8 69.7193 1233.72 66.9614C1231.06 64.9676 1228.94 62.3658 1227.55 59.3838C1226.15 56.4019 1225.53 53.1308 1225.72 49.8571C1225.72 43.9466 1228.12 38.2781 1232.39 34.0988C1236.67 29.9194 1242.46 27.5714 1248.5 27.5714C1254.54 27.5714 1260.33 29.9194 1264.61 34.0988C1268.88 38.2781 1271.28 43.9466 1271.28 49.8571C1271.47 53.1333 1270.84 56.4059 1269.44 59.388C1268.04 62.3701 1265.92 64.9706 1263.25 66.9614C1260.2 69.7471 1257.04 72.5329 1257.04 77.7143H1262.74C1262.74 75.1514 1264.25 73.675 1267.12 71.0564C1270.36 68.5381 1272.94 65.3031 1274.66 61.6176C1276.37 57.9321 1277.16 53.9014 1276.97 49.8571C1276.97 46.1989 1276.24 42.5765 1274.81 39.1967C1273.37 35.8169 1271.28 32.7459 1268.63 30.1592C1265.99 27.5724 1262.85 25.5205 1259.4 24.1205C1255.94 22.7205 1252.24 22 1248.5 22Z" fill="white"/>
</svg>
